Mekorot-Vilna-Italic.ufo
<glyph name="exclam" format="2">
  <advance width="333"/>
  <unicode hex="0021"/>
  <outline>
    <contour>
      <point x="207.8" y="156" type="curve" smooth="yes"/>
      <point x="254.8" y="156"/>
      <point x="282.35" y="117"/>
      <point x="269.757" y="70" type="curve" smooth="yes"/>
      <point x="257.431" y="24"/>
      <point x="209.517" y="-13"/>
      <point x="161.517" y="-13" type="curve" smooth="yes"/>
      <point x="114.517" y="-13"/>
      <point x="88.4307" y="24"/>
      <point x="101.292" y="72" type="curve" smooth="yes"/>
      <point x="113.35" y="117"/>
      <point x="161.8" y="156"/>
    </contour>
    <contour>
      <point x="242.7" y="234" type="curve"/>
      <point x="213.7" y="234" type="line"/>
      <point x="233.658" y="357"/>
      <point x="237.056" y="407"/>
      <point x="233.511" y="502" type="curve" smooth="yes"/>
      <point x="231.568" y="547"/>
      <point x="232.659" y="566"/>
      <point x="239.358" y="591" type="curve" smooth="yes"/>
      <point x="256.238" y="654"/>
      <point x="297.153" y="691"/>
      <point x="351.153" y="691" type="curve" smooth="yes"/>
      <point x="404.153" y="691"/>
      <point x="425.238" y="654"/>
      <point x="407.822" y="589" type="curve" smooth="yes"/>
      <point x="401.659" y="566"/>
      <point x="392.3" y="546"/>
      <point x="366.511" y="502" type="curve" smooth="yes"/>
      <point x="310.787" y="406"/>
      <point x="288.658" y="357"/>
    </contour>
  </outline>
</glyph>
<glyph name="quotedbl" format="2">
  <advance width="555"/>
  <unicode hex="0022"/>
  <outline>
    <contour>
      <point x="276.252" y="404" type="curve"/>
      <point x="235.252" y="404" type="line"/>
      <point x="236.146" y="426"/>
      <point x="237.237" y="445"/>
      <point x="237.113" y="452" type="curve" smooth="yes"/>
      <point x="238.353" y="535"/>
      <point x="243.502" y="599"/>
      <point x="249.129" y="620" type="curve" smooth="yes"/>
      <point x="260.65" y="663"/>
      <point x="294.153" y="691"/>
      <point x="332.153" y="691" type="curve" smooth="yes"/>
      <point x="369.153" y="691"/>
      <point x="389.383" y="662"/>
      <point x="379.2" y="624" type="curve" smooth="yes"/>
      <point x="373.306" y="602"/>
      <point x="349.64" y="551"/>
    </contour>
    <contour>
      <point x="536.252" y="404" type="curve"/>
      <point x="495.252" y="404" type="line"/>
      <point x="495.879" y="425"/>
      <point x="496.237" y="445"/>
      <point x="497.113" y="452" type="curve" smooth="yes"/>
      <point x="498.621" y="536"/>
      <point x="503.502" y="599"/>
      <point x="509.129" y="620" type="curve" smooth="yes"/>
      <point x="520.65" y="663"/>
      <point x="554.153" y="691"/>
      <point x="592.153" y="691" type="curve" smooth="yes"/>
      <point x="629.153" y="691"/>
      <point x="649.383" y="662"/>
      <point x="639.2" y="624" type="curve" smooth="yes"/>
      <point x="633.306" y="602"/>
      <point x="602.889" y="537"/>
    </contour>
  </outline>
</glyph>
<glyph name="parenleft" format="2">
  <advance width="333"/>
  <unicode hex="0028"/>
  <outline>
    <contour>
      <point x="491.957" y="694" type="curve"/>
      <point x="484.722" y="667" type="line"/>
      <point x="414.004" y="627"/>
      <point x="383.037" y="601"/>
      <point x="350.248" y="557" type="curve" smooth="yes"/>
      <point x="306.171" y="497"/>
      <point x="265.107" y="396"/>
      <point x="228.131" y="258" type="curve" smooth="yes"/>
      <point x="191.422" y="121"/>
      <point x="180.771" y="29"/>
      <point x="194.157" y="-33" type="curve" smooth="yes"/>
      <point x="203.1" y="-78"/>
      <point x="221.133" y="-104"/>
      <point x="268.487" y="-140" type="curve"/>
      <point x="260.984" y="-168" type="line"/>
      <point x="178.794" y="-109"/>
      <point x="146.512" y="-69"/>
      <point x="119.804" y="3" type="curve" smooth="yes"/>
      <point x="92.168" y="79"/>
      <point x="91.0156" y="168"/>
      <point x="115.398" y="259" type="curve" smooth="yes"/>
      <point x="149.964" y="388"/>
      <point x="227.851" y="507"/>
      <point x="337.502" y="599" type="curve" smooth="yes"/>
      <point x="387.487" y="640"/>
      <point x="421.114" y="661"/>
    </contour>
  </outline>
</glyph>
<glyph name="asterisk" format="2">
  <advance width="500"/>
  <unicode hex="002A"/>
  <outline>
    <contour>
      <point x="405.544" y="476" type="curve"/>
      <point x="403.4" y="468" type="line"/>
      <point x="434.845" y="451"/>
      <point x="448.773" y="447"/>
      <point x="492.701" y="443" type="curve" smooth="yes"/>
      <point x="545.63" y="439"/>
      <point x="560.879" y="425"/>
      <point x="552.036" y="392" type="curve" smooth="yes"/>
      <point x="544.533" y="364"/>
      <point x="517.639" y="342"/>
      <point x="489.639" y="342" type="curve" smooth="yes"/>
      <point x="462.639" y="342"/>
      <point x="450.122" y="355"/>
      <point x="431.252" y="404" type="curve" smooth="yes"/>
      <point x="418.754" y="432"/>
      <point x="412.63" y="439"/>
      <point x="387.648" y="454" type="curve"/>
      <point x="379.31" y="449" type="line"/>
      <point x="372.252" y="404"/>
      <point x="372.232" y="389"/>
      <point x="381.515" y="349" type="curve" smooth="yes"/>
      <point x="386.888" y="328"/>
      <point x="387.476" y="319"/>
      <point x="384.261" y="307" type="curve" smooth="yes"/>
      <point x="376.49" y="278"/>
      <point x="348.327" y="255"/>
      <point x="319.327" y="255" type="curve" smooth="yes"/>
      <point x="290.327" y="255"/>
      <point x="277.49" y="278"/>
      <point x="286.601" y="312" type="curve" smooth="yes"/>
      <point x="290.888" y="328"/>
      <point x="296.299" y="337"/>
      <point x="314.193" y="359" type="curve" smooth="yes"/>
      <point x="343.304" y="393"/>
      <point x="347.983" y="403"/>
      <point x="361.31" y="449" type="curve"/>
      <point x="355.648" y="454" type="line"/>
      <point x="310.146" y="426"/>
      <point x="300.003" y="418"/>
      <point x="262.553" y="379" type="curve" smooth="yes"/>
      <point x="234.246" y="348"/>
      <point x="218.835" y="339"/>
      <point x="197.835" y="339" type="curve" smooth="yes"/>
      <point x="169.835" y="339"/>
      <point x="153.729" y="361"/>
      <point x="161.232" y="389" type="curve" smooth="yes"/>
      <point x="171.146" y="426"/>
      <point x="205.237" y="445"/>
      <point x="261.237" y="445" type="curve" smooth="yes"/>
      <point x="303.773" y="447"/>
      <point x="314.577" y="450"/>
      <point x="352.472" y="472" type="curve"/>
      <point x="354.348" y="479" type="line"/>
      <point x="319.171" y="497"/>
      <point x="304.242" y="501"/>
      <point x="259.314" y="505" type="curve" smooth="yes"/>
      <point x="208.386" y="509"/>
      <point x="195.602" y="521"/>
      <point x="205.248" y="557" type="curve" smooth="yes"/>
      <point x="213.019" y="586"/>
      <point x="237.377" y="606"/>
      <point x="266.377" y="606" type="curve" smooth="yes"/>
      <point x="293.377" y="606"/>
      <point x="305.43" y="595"/>
      <point x="317.319" y="561" type="curve" smooth="yes"/>
      <point x="331.602" y="521"/>
      <point x="335.994" y="515"/>
      <point x="368.367" y="494" type="curve"/>
      <point x="376.171" y="497" type="line"/>
      <point x="386.425" y="539"/>
      <point x="386.372" y="550"/>
      <point x="375.554" y="588" type="curve" smooth="yes"/>
      <point x="368.521" y="614"/>
      <point x="367.2" y="624"/>
      <point x="371.756" y="641" type="curve" smooth="yes"/>
      <point x="379.258" y="669"/>
      <point x="407.153" y="691"/>
      <point x="437.153" y="691" type="curve" smooth="yes"/>
      <point x="465.153" y="691"/>
      <point x="479.258" y="669"/>
      <point x="470.416" y="636" type="curve" smooth="yes"/>
      <point x="466.396" y="621"/>
      <point x="460.717" y="611"/>
      <point x="441.554" y="588" type="curve" smooth="yes"/>
      <point x="417.052" y="560"/>
      <point x="406.961" y="541"/>
      <point x="400.262" y="516" type="curve" smooth="yes"/>
      <point x="395.171" y="497" type="line"/>
      <point x="402.367" y="494" type="line"/>
      <point x="447.138" y="523"/>
      <point x="457.817" y="533"/>
      <point x="493.731" y="570" type="curve" smooth="yes"/>
      <point x="522.037" y="601"/>
      <point x="536.181" y="609"/>
      <point x="558.181" y="609" type="curve" smooth="yes"/>
      <point x="585.181" y="609"/>
      <point x="603.75" y="585"/>
      <point x="596.783" y="559" type="curve" smooth="yes"/>
      <point x="591.961" y="541"/>
      <point x="570.065" y="519"/>
      <point x="547.654" y="510" type="curve" smooth="yes"/>
      <point x="534.314" y="505"/>
      <point x="524.778" y="503"/>
      <point x="500.778" y="503" type="curve" smooth="yes"/>
      <point x="457.242" y="501"/>
      <point x="444.171" y="497"/>
    </contour>
  </outline>
</glyph>
<glyph name="plus" format="2">
  <advance width="570"/>
  <unicode hex="002B"/>
  <outline>
    <contour>
      <point x="320.581" y="297" type="line"/>
      <point x="376.582" y="506" type="line"/>
      <point x="464.582" y="506" type="line"/>
      <point x="408.581" y="297" type="line"/>
      <point x="616.581" y="297" type="line"/>
      <point x="593.001" y="209" type="line"/>
      <point x="385.001" y="209" type="line"/>
      <point x="329" y="0" type="line"/>
      <point x="241" y="0" type="line"/>
      <point x="297.001" y="209" type="line"/>
      <point x="89.001" y="209" type="line"/>
      <point x="112.581" y="297" type="line"/>
    </contour>
  </outline>
</glyph>
<glyph name="comma" format="2">
  <advance width="250"/>
  <unicode hex="002C"/>
  <outline>
    <contour>
      <point x="8.76953" y="-180" type="curve"/>
      <point x="3.66406" y="-158" type="line"/>
      <point x="92.5977" y="-106"/>
      <point x="137.852" y="-64"/>
      <point x="148.033" y="-26" type="curve" smooth="yes"/>
      <point x="151.517" y="-13"/>
      <point x="145.928" y="-4"/>
      <point x="134.928" y="-4" type="curve" smooth="yes"/>
      <point x="132.928" y="-4"/>
      <point x="130.928" y="-4"/>
      <point x="127.66" y="-5" type="curve" smooth="yes"/>
      <point x="121.393" y="-6"/>
      <point x="115.393" y="-6"/>
      <point x="110.393" y="-6" type="curve" smooth="yes"/>
      <point x="67.3926" y="-6"/>
      <point x="45.9668" y="26"/>
      <point x="58.292" y="72" type="curve" smooth="yes"/>
      <point x="71.6895" y="122"/>
      <point x="113.532" y="155"/>
      <point x="163.532" y="155" type="curve" smooth="yes"/>
      <point x="223.532" y="155"/>
      <point x="251.938" y="108"/>
      <point x="233.45" y="39" type="curve" smooth="yes"/>
      <point x="210.406" y="-47"/>
      <point x="142.722" y="-113"/>
    </contour>
  </outline>
</glyph>
<glyph name="zero" format="2">
  <advance width="500"/>
  <unicode hex="0030"/>
  <outline>
    <contour>
      <point x="434.349" y="688" type="curve" smooth="yes"/>
      <point x="563.349" y="688"/>
      <point x="619.889" y="537"/>
      <point x="566.299" y="337" type="curve" smooth="yes"/>
      <point x="512.441" y="136"/>
      <point x="376.517" y="-13"/>
      <point x="247.517" y="-13" type="curve" smooth="yes"/>
      <point x="114.517" y="-13"/>
      <point x="59.9053" y="134"/>
      <point x="115.103" y="340" type="curve" smooth="yes"/>
      <point x="137.343" y="423"/>
      <point x="184.529" y="517"/>
      <point x="231.267" y="572" type="curve" smooth="yes"/>
      <point x="291.56" y="644"/>
      <point x="369.349" y="688"/>
    </contour>
    <contour>
      <point x="377.484" y="222" type="curve" smooth="yes"/>
      <point x="438.845" y="451" type="line" smooth="yes"/>
      <point x="478.233" y="598"/>
      <point x="474.847" y="660"/>
      <point x="425.847" y="660" type="curve" smooth="yes"/>
      <point x="377.847" y="660"/>
      <point x="343.306" y="602"/>
      <point x="302.845" y="451" type="curve" smooth="yes"/>
      <point x="241.484" y="222" type="line" smooth="yes"/>
      <point x="201.828" y="74"/>
      <point x="205.02" y="15"/>
      <point x="255.02" y="15" type="curve" smooth="yes"/>
      <point x="278.02" y="15"/>
      <point x="297.771" y="29"/>
      <point x="316.541" y="58" type="curve" smooth="yes"/>
      <point x="332.775" y="85"/>
      <point x="361.676" y="163"/>
    </contour>
  </outline>
</glyph>
<glyph name="one" format="2">
  <advance width="500"/>
  <unicode hex="0031"/>
  <outline>
    <contour>
      <point x="501.349" y="688" type="line"/>
      <point x="518.349" y="688" type="line"/>
      <point x="365.618" y="118" type="line" smooth="yes"/>
      <point x="344.986" y="41"/>
      <point x="357.967" y="26"/>
      <point x="448.431" y="24" type="curve"/>
      <point x="442" y="0" type="line"/>
      <point x="67" y="0" type="line"/>
      <point x="73.4307" y="24" type="line"/>
      <point x="172.699" y="25"/>
      <point x="197.254" y="42"/>
      <point x="219.226" y="124" type="curve" smooth="yes"/>
      <point x="322.386" y="509" type="line" smooth="yes"/>
      <point x="334.979" y="556"/>
      <point x="329.875" y="578"/>
      <point x="304.875" y="578" type="curve" smooth="yes"/>
      <point x="291.875" y="578"/>
      <point x="264.999" y="571"/>
      <point x="235.319" y="561" type="curve"/>
      <point x="231.783" y="559"/>
      <point x="222.979" y="556"/>
      <point x="213.176" y="553" type="curve"/>
      <point x="220.143" y="579" type="line"/>
    </contour>
  </outline>
</glyph>
<glyph name="four" format="2">
  <advance width="500"/>
  <unicode hex="0034"/>
  <outline>
    <contour>
      <point x="480.327" y="255" type="line"/>
      <point x="543.327" y="255" type="line"/>
      <point x="513.585" y="144" type="line"/>
      <point x="450.585" y="144" type="line"/>
      <point x="412" y="0" type="line"/>
      <point x="267" y="0" type="line"/>
      <point x="305.585" y="144" type="line"/>
      <point x="57.585" y="144" type="line"/>
      <point x="87.8633" y="257" type="line"/>
      <point x="173.318" y="352"/>
      <point x="263.97" y="444"/>
      <point x="436.717" y="611" type="curve" smooth="yes"/>
      <point x="516.349" y="688" type="line"/>
      <point x="596.349" y="688" type="line"/>
    </contour>
    <contour>
      <point x="337.327" y="255" type="line"/>
      <point x="416.908" y="552" type="line"/>
      <point x="128.327" y="255" type="line"/>
    </contour>
  </outline>
</glyph>
<glyph name="six" format="2">
  <advance width="500"/>
  <unicode hex="0036"/>
  <outline>
    <contour>
      <point x="654.349" y="688" type="curve"/>
      <point x="647.383" y="662" type="line"/>
      <point x="493.344" y="632"/>
      <point x="388.64" y="551"/>
      <point x="312.252" y="404" type="curve"/>
      <point x="345.734" y="417"/>
      <point x="368.807" y="421"/>
      <point x="400.807" y="421" type="curve" smooth="yes"/>
      <point x="514.807" y="421"/>
      <point x="566.906" y="343"/>
      <point x="534.484" y="222" type="curve" smooth="yes"/>
      <point x="498.044" y="86"/>
      <point x="380.517" y="-13"/>
      <point x="256.517" y="-13" type="curve" smooth="yes"/>
      <point x="116.517" y="-13"/>
      <point x="54.7949" y="100"/>
      <point x="101.15" y="273" type="curve" smooth="yes"/>
      <point x="136.787" y="406"/>
      <point x="225.798" y="518"/>
      <point x="358.43" y="595" type="curve" smooth="yes"/>
      <point x="448.363" y="647"/>
      <point x="516.258" y="669"/>
    </contour>
    <contour>
      <point x="333.749" y="376" type="curve" smooth="yes"/>
      <point x="319.749" y="376"/>
      <point x="304.677" y="372"/>
      <point x="295.069" y="366" type="curve" smooth="yes"/>
      <point x="286.729" y="361"/>
      <point x="265.457" y="304"/>
      <point x="248.844" y="242" type="curve" smooth="yes"/>
      <point x="223.925" y="149"/>
      <point x="214.364" y="76"/>
      <point x="222.521" y="43" type="curve" smooth="yes"/>
      <point x="227.431" y="24"/>
      <point x="242.751" y="14"/>
      <point x="265.751" y="14" type="curve" smooth="yes"/>
      <point x="314.751" y="14"/>
      <point x="334.79" y="44"/>
      <point x="366.408" y="162" type="curve" smooth="yes"/>
      <point x="409.012" y="321"/>
      <point x="400.749" y="376"/>
    </contour>
  </outline>
</glyph>
<glyph name="seven" format="2">
  <advance width="500"/>
  <unicode hex="0037"/>
  <outline>
    <contour>
      <point x="658.134" y="676" type="line"/>
      <point x="242" y="0" type="line"/>
      <point x="147" y="0" type="line"/>
      <point x="491.425" y="539" type="line"/>
      <point x="284.425" y="539" type="line" smooth="yes"/>
      <point x="229.425" y="539"/>
      <point x="199.798" y="518"/>
      <point x="163.649" y="454" type="curve"/>
      <point x="138.649" y="454" type="line"/>
      <point x="242.134" y="676" type="line"/>
    </contour>
  </outline>
</glyph>
<glyph name="colon" format="2">
  <advance width="333"/>
  <unicode hex="003A"/>
  <outline>
    <contour>
      <point x="207.8" y="156" type="curve" smooth="yes"/>
      <point x="254.8" y="156"/>
      <point x="282.35" y="117"/>
      <point x="269.757" y="70" type="curve" smooth="yes"/>
      <point x="257.431" y="24"/>
      <point x="209.517" y="-13"/>
      <point x="161.517" y="-13" type="curve" smooth="yes"/>
      <point x="114.517" y="-13"/>
      <point x="88.4307" y="24"/>
      <point x="101.292" y="72" type="curve" smooth="yes"/>
      <point x="113.35" y="117"/>
      <point x="161.8" y="156"/>
    </contour>
    <contour>
      <point x="292.472" y="472" type="curve" smooth="yes"/>
      <point x="339.472" y="472"/>
      <point x="367.29" y="434"/>
      <point x="354.696" y="387" type="curve" smooth="yes"/>
      <point x="342.371" y="341"/>
      <point x="294.188" y="303"/>
      <point x="247.188" y="303" type="curve" smooth="yes"/>
      <point x="199.188" y="303"/>
      <point x="173.103" y="340"/>
      <point x="186.232" y="389" type="curve" smooth="yes"/>
      <point x="198.29" y="434"/>
      <point x="246.472" y="472"/>
    </contour>
  </outline>
</glyph>
<glyph name="less" format="2">
  <advance width="570"/>
  <unicode hex="003C"/>
  <outline>
    <contour>
      <point x="535.784" y="-12" type="line"/>
      <point x="87.5371" y="211" type="line"/>
      <point x="110.045" y="295" type="line"/>
      <point x="677.798" y="518" type="line"/>
      <point x="652.074" y="422" type="line"/>
      <point x="221.791" y="253" type="line"/>
      <point x="561.508" y="84" type="line"/>
    </contour>
  </outline>
</glyph>
<glyph name="equal" format="2">
  <advance width="570"/>
  <unicode hex="003D"/>
  <outline>
    <contour>
      <point x="643.912" y="399" type="line"/>
      <point x="620.332" y="311" type="line"/>
      <point x="116.332" y="311" type="line"/>
      <point x="139.912" y="399" type="line"/>
    </contour>
    <contour>
      <point x="589.25" y="195" type="line"/>
      <point x="565.671" y="107" type="line"/>
      <point x="61.6709" y="107" type="line"/>
      <point x="85.25" y="195" type="line"/>
    </contour>
  </outline>
</glyph>
<glyph name="question" format="2">
  <advance width="500"/>
  <unicode hex="003F"/>
  <outline>
    <contour>
      <point x="314.896" y="231" type="curve"/>
      <point x="284.896" y="231" type="line"/>
      <point x="290.935" y="261"/>
      <point x="292.274" y="266"/>
      <point x="295.222" y="277" type="curve" smooth="yes"/>
      <point x="302.725" y="305"/>
      <point x="316.888" y="328"/>
      <point x="353.213" y="374" type="curve" smooth="yes"/>
      <point x="402.826" y="436"/>
      <point x="422.204" y="471"/>
      <point x="436.138" y="523" type="curve" smooth="yes"/>
      <point x="458.109" y="605"/>
      <point x="439.971" y="653"/>
      <point x="386.971" y="653" type="curve" smooth="yes"/>
      <point x="350.971" y="653"/>
      <point x="321.684" y="637"/>
      <point x="315.253" y="613" type="curve" smooth="yes"/>
      <point x="312.573" y="603"/>
      <point x="313.966" y="597"/>
      <point x="322.482" y="584" type="curve" smooth="yes"/>
      <point x="334.392" y="565"/>
      <point x="336.176" y="553"/>
      <point x="330.817" y="533" type="curve" smooth="yes"/>
      <point x="320.635" y="495"/>
      <point x="288.668" y="469"/>
      <point x="250.668" y="469" type="curve" smooth="yes"/>
      <point x="211.668" y="469"/>
      <point x="191.242" y="501"/>
      <point x="203.032" y="545" type="curve" smooth="yes"/>
      <point x="225.54" y="629"/>
      <point x="319.617" y="689"/>
      <point x="429.617" y="689" type="curve" smooth="yes"/>
      <point x="549.617" y="689"/>
      <point x="611.933" y="623"/>
      <point x="585.138" y="523" type="curve" smooth="yes"/>
      <point x="566.648" y="454"/>
      <point x="525.663" y="413"/>
      <point x="419.658" y="357" type="curve" smooth="yes"/>
      <point x="346.208" y="318"/>
      <point x="334.457" y="304"/>
    </contour>
    <contour>
      <point x="280.8" y="156" type="curve" smooth="yes"/>
      <point x="326.8" y="156"/>
      <point x="354.35" y="117"/>
      <point x="342.024" y="71" type="curve" smooth="yes"/>
      <point x="329.431" y="24"/>
      <point x="282.517" y="-13"/>
      <point x="235.517" y="-13" type="curve" smooth="yes"/>
      <point x="187.517" y="-13"/>
      <point x="160.431" y="24"/>
      <point x="173.292" y="72" type="curve" smooth="yes"/>
      <point x="185.35" y="117"/>
      <point x="234.8" y="156"/>
    </contour>
  </outline>
</glyph>
<glyph name="A" format="2">
  <advance width="722"/>
  <unicode hex="0041"/>
  <outline>
    <contour>
      <point x="695.699" y="25" type="line"/>
      <point x="689" y="0" type="line"/>
      <point x="365" y="0" type="line"/>
      <point x="371.699" y="25" type="line"/>
      <point x="386.234" y="27"/>
      <point x="399.503" y="28"/>
      <point x="404.503" y="28" type="curve" smooth="yes"/>
      <point x="440.038" y="30"/>
      <point x="455.718" y="40"/>
      <point x="461.345" y="61" type="curve" smooth="yes"/>
      <point x="467.24" y="83"/>
      <point x="464.886" y="119"/>
      <point x="451.786" y="197" type="curve"/>
      <point x="226.786" y="197" type="line"/>
      <point x="201.336" y="158" type="line" smooth="yes"/>
      <point x="165.867" y="104"/>
      <point x="151.168" y="79"/>
      <point x="147.685" y="66" type="curve" smooth="yes"/>
      <point x="140.718" y="40"/>
      <point x="160.771" y="29"/>
      <point x="218.699" y="25" type="curve"/>
      <point x="212" y="0" type="line"/>
      <point x="9" y="0" type="line"/>
      <point x="15.6982" y="25" type="line"/>
      <point x="66.1104" y="34"/>
      <point x="82.1299" y="49"/>
      <point x="145.049" y="142" type="curve" smooth="yes"/>
      <point x="513.885" y="690" type="line"/>
      <point x="541.885" y="690" type="line"/>
      <point x="623.943" y="164" type="line" smooth="yes"/>
      <point x="642.326" y="46"/>
      <point x="652.699" y="25"/>
      <point x="691.699" y="25" type="curve" smooth="yes"/>
    </contour>
    <contour>
      <point x="252.236" y="236" type="line"/>
      <point x="447.236" y="236" type="line"/>
      <point x="411.348" y="479" type="line"/>
    </contour>
  </outline>
</glyph>
<glyph name="C" format="2">
  <advance width="722"/>
  <unicode hex="0043"/>
  <outline>
    <contour>
      <point x="697.729" y="152" type="curve"/>
      <point x="721.029" y="127" type="line"/>
      <point x="662.632" y="77"/>
      <point x="635.273" y="57"/>
      <point x="597.378" y="35" type="curve" smooth="yes"/>
      <point x="532.464" y="-2"/>
      <point x="468.909" y="-19"/>
      <point x="397.909" y="-19" type="curve" smooth="yes"/>
      <point x="190.909" y="-19"/>
      <point x="83.0293" y="127"/>
      <point x="138.228" y="333" type="curve" smooth="yes"/>
      <point x="192.889" y="537"/>
      <point x="383.153" y="691"/>
      <point x="582.153" y="691" type="curve" smooth="yes"/>
      <point x="630.153" y="691"/>
      <point x="675.205" y="680"/>
      <point x="727.774" y="656" type="curve" smooth="yes"/>
      <point x="747.095" y="646"/>
      <point x="761.023" y="642"/>
      <point x="770.023" y="642" type="curve" smooth="yes"/>
      <point x="789.023" y="642"/>
      <point x="802.971" y="653"/>
      <point x="826.349" y="688" type="curve"/>
      <point x="853.349" y="688" type="line"/>
      <point x="790.648" y="454" type="line"/>
      <point x="765.648" y="454" type="line"/>
      <point x="751.013" y="530"/>
      <point x="736.855" y="563"/>
      <point x="704.306" y="602" type="curve" smooth="yes"/>
      <point x="671.487" y="640"/>
      <point x="633.311" y="658"/>
      <point x="586.311" y="658" type="curve" smooth="yes"/>
      <point x="466.311" y="658"/>
      <point x="372.836" y="548"/>
      <point x="317.371" y="341" type="curve" smooth="yes"/>
      <point x="290.576" y="241"/>
      <point x="285.283" y="169"/>
      <point x="300.082" y="116" type="curve" smooth="yes"/>
      <point x="315.148" y="64"/>
      <point x="368.771" y="29"/>
      <point x="434.771" y="29" type="curve" smooth="yes"/>
      <point x="462.771" y="29"/>
      <point x="497.378" y="35"/>
      <point x="529.594" y="47" type="curve" smooth="yes"/>
      <point x="583.685" y="66"/>
      <point x="622.115" y="90"/>
    </contour>
  </outline>
</glyph>
<glyph name="D" format="2">
  <advance width="722"/>
  <unicode hex="0044"/>
  <outline>
    <contour>
      <point x="121.384" y="91" type="curve" smooth="yes"/>
      <point x="253.482" y="584" type="line" smooth="yes"/>
      <point x="265.808" y="630"/>
      <point x="250.827" y="645"/>
      <point x="188.435" y="651" type="curve"/>
      <point x="195.134" y="676" type="line"/>
      <point x="500.134" y="676" type="line" smooth="yes"/>
      <point x="731.134" y="676"/>
      <point x="837.64" y="551"/>
      <point x="782.442" y="345" type="curve" smooth="yes"/>
      <point x="726.977" y="138"/>
      <point x="546" y="0"/>
      <point x="330" y="0" type="curve" smooth="yes"/>
      <point x="14" y="0" type="line"/>
      <point x="20.6992" y="25" type="line"/>
      <point x="79.2344" y="27"/>
      <point x="109.594" y="47"/>
    </contour>
    <contour>
      <point x="421.646" y="607" type="curve" smooth="yes"/>
      <point x="283.919" y="93" type="line" smooth="yes"/>
      <point x="271.861" y="48"/>
      <point x="281.378" y="35"/>
      <point x="326.378" y="35" type="curve" smooth="yes"/>
      <point x="391.378" y="35"/>
      <point x="445.541" y="58"/>
      <point x="491.867" y="104" type="curve" smooth="yes"/>
      <point x="535.925" y="149"/>
      <point x="578.968" y="235"/>
      <point x="604.423" y="330" type="curve" smooth="yes"/>
      <point x="626.931" y="414"/>
      <point x="632.491" y="487"/>
      <point x="619.692" y="540" type="curve" smooth="yes"/>
      <point x="604.181" y="609"/>
      <point x="562.023" y="642"/>
      <point x="490.023" y="642" type="curve" smooth="yes"/>
      <point x="451.023" y="642"/>
      <point x="427.808" y="630"/>
    </contour>
  </outline>
</glyph>
<glyph name="F" format="2">
  <advance width="611"/>
  <unicode hex="0046"/>
  <outline>
    <contour>
      <point x="764.134" y="676" type="line"/>
      <point x="710.275" y="475" type="line"/>
      <point x="686.275" y="475" type="line"/>
      <point x="689.156" y="538"/>
      <point x="685.392" y="565"/>
      <point x="670.09" y="590" type="curve" smooth="yes"/>
      <point x="648.469" y="625"/>
      <point x="594.023" y="642"/>
      <point x="502.023" y="642" type="curve" smooth="yes"/>
      <point x="451.023" y="642"/>
      <point x="435.344" y="632"/>
      <point x="425.43" y="595" type="curve" smooth="yes"/>
      <point x="363.266" y="363" type="line"/>
      <point x="463.266" y="363"/>
      <point x="507.644" y="398"/>
      <point x="556.19" y="512" type="curve"/>
      <point x="581.19" y="512" type="line"/>
      <point x="490.623" y="174" type="line"/>
      <point x="465.623" y="174" type="line"/>
      <point x="482.705" y="290"/>
      <point x="455.619" y="327"/>
      <point x="354.155" y="329" type="curve"/>
      <point x="291.723" y="96" type="line" smooth="yes"/>
      <point x="276.986" y="41"/>
      <point x="291.771" y="29"/>
      <point x="382.699" y="25" type="curve"/>
      <point x="376" y="0" type="line"/>
      <point x="16" y="0" type="line"/>
      <point x="22.6992" y="25" type="line"/>
      <point x="98.8428" y="33"/>
      <point x="115.79" y="44"/>
      <point x="129.723" y="96" type="curve" smooth="yes"/>
      <point x="259.41" y="580" type="line" smooth="yes"/>
      <point x="273.344" y="632"/>
      <point x="258.363" y="647"/>
      <point x="190.435" y="651" type="curve"/>
      <point x="197.134" y="676" type="line"/>
    </contour>
  </outline>
</glyph>
<glyph name="G" format="2">
  <advance width="778"/>
  <unicode hex="0047"/>
  <outline>
    <contour>
      <point x="831.901" y="287" type="line"/>
      <point x="825.203" y="262" type="line"/>
      <point x="748.059" y="254"/>
      <point x="733.844" y="242"/>
      <point x="714.552" y="170" type="curve" smooth="yes"/>
      <point x="680.521" y="43" type="line"/>
      <point x="606.34" y="5"/>
      <point x="490.909" y="-19"/>
      <point x="387.909" y="-19" type="curve" smooth="yes"/>
      <point x="177.909" y="-19"/>
      <point x="70.4941" y="125"/>
      <point x="125.691" y="331" type="curve" smooth="yes"/>
      <point x="180.889" y="537"/>
      <point x="371.153" y="691"/>
      <point x="570.153" y="691" type="curve" smooth="yes"/>
      <point x="618.153" y="691"/>
      <point x="663.205" y="680"/>
      <point x="715.774" y="656" type="curve" smooth="yes"/>
      <point x="735.095" y="646"/>
      <point x="749.023" y="642"/>
      <point x="758.023" y="642" type="curve" smooth="yes"/>
      <point x="777.023" y="642"/>
      <point x="790.971" y="653"/>
      <point x="814.349" y="688" type="curve"/>
      <point x="841.349" y="688" type="line"/>
      <point x="778.648" y="454" type="line"/>
      <point x="753.648" y="454" type="line"/>
      <point x="739.013" y="530"/>
      <point x="725.123" y="564"/>
      <point x="692.306" y="602" type="curve" smooth="yes"/>
      <point x="658.487" y="640"/>
      <point x="620.311" y="658"/>
      <point x="574.311" y="658" type="curve" smooth="yes"/>
      <point x="453.311" y="658"/>
      <point x="360.568" y="547"/>
      <point x="304.566" y="338" type="curve" smooth="yes"/>
      <point x="272.413" y="218"/>
      <point x="270.369" y="132"/>
      <point x="299.364" y="76" type="curve" smooth="yes"/>
      <point x="320.843" y="33"/>
      <point x="357.751" y="14"/>
      <point x="420.751" y="14" type="curve" smooth="yes"/>
      <point x="487.751" y="14"/>
      <point x="522.646" y="36"/>
      <point x="536.312" y="87" type="curve" smooth="yes"/>
      <point x="564.446" y="192" type="line" smooth="yes"/>
      <point x="578.916" y="246"/>
      <point x="566.863" y="257"/>
      <point x="482.203" y="262" type="curve"/>
      <point x="488.901" y="287" type="line"/>
    </contour>
  </outline>
</glyph>
<glyph name="J" format="2">
  <advance width="500"/>
  <unicode hex="004A"/>
  <outline>
    <contour>
      <point x="539.783" y="559" type="curve" smooth="yes"/>
      <point x="422.958" y="123" type="line" smooth="yes"/>
      <point x="384.641" y="-20"/>
      <point x="290.277" y="-96"/>
      <point x="150.277" y="-96" type="curve" smooth="yes"/>
      <point x="110.277" y="-96"/>
      <point x="72.6885" y="-87"/>
      <point x="50.4395" y="-73" type="curve" smooth="yes"/>
      <point x="17.6025" y="-50"/>
      <point x="1.66016" y="-5"/>
      <point x="12.6465" y="36" type="curve" smooth="yes"/>
      <point x="22.8281" y="74"/>
      <point x="64.9385" y="108"/>
      <point x="101.938" y="108" type="curve" smooth="yes"/>
      <point x="140.938" y="108"/>
      <point x="165.561" y="73"/>
      <point x="154.843" y="33" type="curve" smooth="yes"/>
      <point x="150.823" y="18"/>
      <point x="145.68" y="10"/>
      <point x="129.66" y="-5" type="curve" smooth="yes"/>
      <point x="117.445" y="-17"/>
      <point x="112.837" y="-23"/>
      <point x="110.693" y="-31" type="curve" smooth="yes"/>
      <point x="105.603" y="-50"/>
      <point x="120.119" y="-63"/>
      <point x="147.119" y="-63" type="curve" smooth="yes"/>
      <point x="192.119" y="-63"/>
      <point x="217.818" y="-38"/>
      <point x="234.431" y="24" type="curve" smooth="yes"/>
      <point x="383.41" y="580" type="line" smooth="yes"/>
      <point x="397.88" y="634"/>
      <point x="381.631" y="648"/>
      <point x="301.435" y="651" type="curve"/>
      <point x="308.134" y="676" type="line"/>
      <point x="660.134" y="676" type="line"/>
      <point x="653.435" y="651" type="line"/>
      <point x="577.095" y="646"/>
      <point x="559.076" y="631"/>
    </contour>
  </outline>
</glyph>
<glyph name="K" format="2">
  <advance width="778"/>
  <unicode hex="004B"/>
  <outline>
    <contour>
      <point x="775.699" y="25" type="curve"/>
      <point x="769" y="0" type="line"/>
      <point x="433" y="0" type="line"/>
      <point x="439.699" y="25" type="line"/>
      <point x="453.967" y="26"/>
      <point x="466.967" y="26"/>
      <point x="471.967" y="26" type="curve" smooth="yes"/>
      <point x="505.503" y="28"/>
      <point x="520.843" y="33"/>
      <point x="524.326" y="46" type="curve" smooth="yes"/>
      <point x="527.273" y="57"/>
      <point x="524.685" y="66"/>
      <point x="512.115" y="90" type="curve" smooth="yes"/>
      <point x="390.939" y="317" type="line"/>
      <point x="357.241" y="292" type="line"/>
      <point x="304.723" y="96" type="line" smooth="yes"/>
      <point x="291.594" y="47"/>
      <point x="304.11" y="34"/>
      <point x="373.699" y="25" type="curve"/>
      <point x="367" y="0" type="line"/>
      <point x="30" y="0" type="line"/>
      <point x="36.6992" y="25" type="line"/>
      <point x="110.843" y="33"/>
      <point x="129.058" y="45"/>
      <point x="142.723" y="96" type="curve" smooth="yes"/>
      <point x="272.41" y="580" type="line" smooth="yes"/>
      <point x="286.344" y="632"/>
      <point x="272.363" y="647"/>
      <point x="204.435" y="651" type="curve"/>
      <point x="211.134" y="676" type="line"/>
      <point x="549.134" y="676" type="line"/>
      <point x="542.435" y="651" type="line"/>
      <point x="467.095" y="646"/>
      <point x="447.808" y="630"/>
      <point x="428.783" y="559" type="curve" smooth="yes"/>
      <point x="371.442" y="345" type="line"/>
      <point x="646.855" y="563" type="line" smooth="yes"/>
      <point x="686.162" y="594"/>
      <point x="693.306" y="602"/>
      <point x="697.593" y="618" type="curve" smooth="yes"/>
      <point x="702.951" y="638"/>
      <point x="692.095" y="646"/>
      <point x="656.631" y="648" type="curve"/>
      <point x="651.899" y="649"/>
      <point x="638.167" y="650"/>
      <point x="621.435" y="651" type="curve"/>
      <point x="628.134" y="676" type="line"/>
      <point x="917.134" y="676" type="line"/>
      <point x="910.435" y="651" type="line"/>
      <point x="811.291" y="643"/>
      <point x="768.593" y="618"/>
      <point x="528.61" y="424" type="curve"/>
      <point x="732.326" y="46" type="line" smooth="yes"/>
      <point x="741.307" y="31"/>
      <point x="750.967" y="26"/>
    </contour>
  </outline>
</glyph>
<glyph name="M" format="2">
  <advance width="944"/>
  <unicode hex="004D"/>
  <outline>
    <contour>
      <point x="841.181" y="609" type="line"/>
      <point x="426" y="0" type="line"/>
      <point x="399" y="0" type="line"/>
      <point x="306.162" y="594" type="line"/>
      <point x="180.226" y="124" type="line" smooth="yes"/>
      <point x="160.397" y="50"/>
      <point x="174.307" y="31"/>
      <point x="254.699" y="25" type="curve"/>
      <point x="248" y="0" type="line"/>
      <point x="14" y="0" type="line"/>
      <point x="20.6992" y="25" type="line"/>
      <point x="100.843" y="33"/>
      <point x="117.058" y="45"/>
      <point x="133.135" y="105" type="curve" smooth="yes"/>
      <point x="260.41" y="580" type="line" smooth="yes"/>
      <point x="274.344" y="632"/>
      <point x="261.827" y="645"/>
      <point x="190.435" y="651" type="curve"/>
      <point x="197.134" y="676" type="line"/>
      <point x="450.134" y="676" type="line"/>
      <point x="523.662" y="204" type="line"/>
      <point x="850.134" y="676" type="line"/>
      <point x="1102.13" y="676" type="line"/>
      <point x="1095.43" y="651" type="line"/>
      <point x="1021.09" y="646"/>
      <point x="1002.08" y="631"/>
      <point x="982.783" y="559" type="curve" smooth="yes"/>
      <point x="864.35" y="117" type="line" smooth="yes"/>
      <point x="845.326" y="46"/>
      <point x="852.378" y="35"/>
      <point x="927.699" y="25" type="curve"/>
      <point x="921" y="0" type="line"/>
      <point x="589" y="0" type="line"/>
      <point x="595.699" y="25" type="line"/>
      <point x="672.574" y="32"/>
      <point x="689.79" y="44"/>
      <point x="704.795" y="100" type="curve" smooth="yes"/>
    </contour>
  </outline>
</glyph>
<glyph name="N" format="2">
  <advance width="722"/>
  <unicode hex="004E"/>
  <outline>
    <contour>
      <point x="411.134" y="676" type="line"/>
      <point x="645.184" y="247" type="line"/>
      <point x="726.908" y="552" type="line" smooth="yes"/>
      <point x="745.933" y="623"/>
      <point x="732.56" y="644"/>
      <point x="660.435" y="651" type="curve"/>
      <point x="667.134" y="676" type="line"/>
      <point x="882.134" y="676" type="line"/>
      <point x="875.435" y="651" type="line"/>
      <point x="807.756" y="641"/>
      <point x="791.272" y="628"/>
      <point x="775.999" y="571" type="curve" smooth="yes"/>
      <point x="618.177" y="-18" type="line"/>
      <point x="590.177" y="-18" type="line"/>
      <point x="288.941" y="526" type="line"/>
      <point x="181.226" y="124" type="line" smooth="yes"/>
      <point x="162.201" y="53"/>
      <point x="175.11" y="34"/>
      <point x="249.699" y="25" type="curve"/>
      <point x="243" y="0" type="line"/>
      <point x="16" y="0" type="line"/>
      <point x="22.6992" y="25" type="line"/>
      <point x="98.1104" y="34"/>
      <point x="116.861" y="48"/>
      <point x="132.135" y="105" type="curve" smooth="yes"/>
      <point x="259.143" y="579" type="line"/>
      <point x="226.416" y="636"/>
      <point x="213.435" y="651"/>
      <point x="193.435" y="651" type="curve"/>
      <point x="200.134" y="676" type="line"/>
    </contour>
  </outline>
</glyph>
<glyph name="P" format="2">
  <advance width="611"/>
  <unicode hex="0050"/>
  <outline>
    <contour>
      <point x="343.188" y="303" type="curve"/>
      <point x="293.35" y="117" type="line" smooth="yes"/>
      <point x="273.79" y="44"/>
      <point x="280.378" y="35"/>
      <point x="356.699" y="25" type="curve"/>
      <point x="350" y="0" type="line"/>
      <point x="16" y="0" type="line"/>
      <point x="22.6992" y="25" type="line"/>
      <point x="34.2344" y="27"/>
      <point x="44.7705" y="29"/>
      <point x="47.7705" y="29" type="curve" smooth="yes"/>
      <point x="96.3779" y="35"/>
      <point x="114.737" y="55"/>
      <point x="131.35" y="117" type="curve" smooth="yes"/>
      <point x="249.783" y="559" type="line" smooth="yes"/>
      <point x="268.54" y="629"/>
      <point x="258.827" y="645"/>
      <point x="190.435" y="651" type="curve"/>
      <point x="197.134" y="676" type="line"/>
      <point x="519.134" y="676" type="line" smooth="yes"/>
      <point x="686.134" y="676"/>
      <point x="763.449" y="610"/>
      <point x="732.367" y="494" type="curve" smooth="yes"/>
      <point x="711.734" y="417"/>
      <point x="651.39" y="356"/>
      <point x="562.084" y="325" type="curve" smooth="yes"/>
      <point x="513.261" y="307"/>
      <point x="478.457" y="304"/>
    </contour>
    <contour>
      <point x="424.377" y="606" type="curve" smooth="yes"/>
      <point x="352.566" y="338" type="line"/>
      <point x="423.566" y="338"/>
      <point x="458.442" y="345"/>
      <point x="487.802" y="365" type="curve" smooth="yes"/>
      <point x="519.964" y="388"/>
      <point x="542.146" y="426"/>
      <point x="559.027" y="489" type="curve" smooth="yes"/>
      <point x="587.966" y="597"/>
      <point x="566.756" y="641"/>
      <point x="483.756" y="641" type="curve" smooth="yes"/>
      <point x="450.756" y="641"/>
      <point x="430.54" y="629"/>
    </contour>
  </outline>
</glyph>
<glyph name="Q" format="2">
  <advance width="778"/>
  <unicode hex="0051"/>
  <outline>
    <contour>
      <point x="698.65" y="-117" type="curve"/>
      <point x="698.219" y="-141" type="line"/>
      <point x="615.984" y="-168"/>
      <point x="570.841" y="-176"/>
      <point x="509.841" y="-176" type="curve" smooth="yes"/>
      <point x="421.841" y="-176"/>
      <point x="346.415" y="-144"/>
      <point x="305.421" y="-88" type="curve" smooth="yes"/>
      <point x="288.583" y="-65"/>
      <point x="281.675" y="-46"/>
      <point x="272.464" y="-2" type="curve"/>
      <point x="203.967" y="26"/>
      <point x="177.325" y="46"/>
      <point x="148.651" y="92" type="curve" smooth="yes"/>
      <point x="107.8" y="156"/>
      <point x="99.3076" y="240"/>
      <point x="123.691" y="331" type="curve" smooth="yes"/>
      <point x="179.425" y="539"/>
      <point x="370.153" y="691"/>
      <point x="574.153" y="691" type="curve" smooth="yes"/>
      <point x="780.153" y="691"/>
      <point x="888.229" y="542"/>
      <point x="832.495" y="334" type="curve" smooth="yes"/>
      <point x="806.504" y="237"/>
      <point x="750.46" y="151"/>
      <point x="672.044" y="86" type="curve" smooth="yes"/>
      <point x="616.718" y="40"/>
      <point x="576.359" y="20"/>
      <point x="488.393" y="-6" type="curve"/>
      <point x="496.479" y="-43"/>
      <point x="502.459" y="-58"/>
      <point x="516.368" y="-77" type="curve" smooth="yes"/>
      <point x="541.258" y="-111"/>
      <point x="581.435" y="-129"/>
      <point x="628.435" y="-129" type="curve" smooth="yes"/>
      <point x="647.435" y="-129"/>
      <point x="664.238" y="-126"/>
    </contour>
    <contour>
      <point x="566.311" y="658" type="curve" smooth="yes"/>
      <point x="452.311" y="658"/>
      <point x="356.961" y="541"/>
      <point x="300.691" y="331" type="curve" smooth="yes"/>
      <point x="244.958" y="123"/>
      <point x="276.751" y="14"/>
      <point x="392.751" y="14" type="curve" smooth="yes"/>
      <point x="507.751" y="14"/>
      <point x="599.226" y="124"/>
      <point x="654.423" y="330" type="curve" smooth="yes"/>
      <point x="710.156" y="538"/>
      <point x="678.311" y="658"/>
    </contour>
  </outline>
</glyph>
<glyph name="R" format="2">
  <advance width="722"/>
  <unicode hex="0052"/>
  <outline>
    <contour>
      <point x="721.699" y="25" type="curve"/>
      <point x="715" y="0" type="line"/>
      <point x="510" y="0" type="line"/>
      <point x="386.868" y="313" type="line"/>
      <point x="359.868" y="313" type="line"/>
      <point x="307.35" y="117" type="line" smooth="yes"/>
      <point x="288.325" y="46"/>
      <point x="295.378" y="35"/>
      <point x="370.699" y="25" type="curve"/>
      <point x="364" y="0" type="line"/>
      <point x="26" y="0" type="line"/>
      <point x="32.6992" y="25" type="line"/>
      <point x="113.11" y="34"/>
      <point x="125.79" y="44"/>
      <point x="145.35" y="117" type="curve" smooth="yes"/>
      <point x="263.783" y="559" type="line" smooth="yes"/>
      <point x="283.076" y="631"/>
      <point x="273.095" y="646"/>
      <point x="200.435" y="651" type="curve"/>
      <point x="207.134" y="676" type="line"/>
      <point x="529.134" y="676" type="line" smooth="yes"/>
      <point x="712.134" y="676"/>
      <point x="794.253" y="613"/>
      <point x="763.438" y="498" type="curve" smooth="yes"/>
      <point x="751.381" y="453"/>
      <point x="724.663" y="413"/>
      <point x="688.429" y="386" type="curve" smooth="yes"/>
      <point x="653.729" y="361"/>
      <point x="625.246" y="348"/>
      <point x="561.155" y="329" type="curve"/>
      <point x="685.79" y="44" type="line" smooth="yes"/>
      <point x="692.307" y="31"/>
      <point x="703.699" y="25"/>
    </contour>
    <contour>
      <point x="436.77" y="600" type="curve" smooth="yes"/>
      <point x="368.442" y="345" type="line"/>
      <point x="444.71" y="346"/>
      <point x="480.586" y="353"/>
      <point x="511.142" y="370" type="curve" smooth="yes"/>
      <point x="548.769" y="391"/>
      <point x="574.218" y="430"/>
      <point x="591.367" y="494" type="curve" smooth="yes"/>
      <point x="619.502" y="599"/>
      <point x="594.023" y="642"/>
      <point x="502.023" y="642" type="curve" smooth="yes"/>
      <point x="477.023" y="642"/>
      <point x="459.684" y="637"/>
      <point x="451.004" y="627" type="curve" smooth="yes"/>
      <point x="446.396" y="621"/>
      <point x="438.377" y="606"/>
    </contour>
  </outline>
</glyph>
<glyph name="S" format="2">
  <advance width="556"/>
  <unicode hex="0053"/>
  <outline>
    <contour>
      <point x="611.275" y="475" type="line"/>
      <point x="583.275" y="475" type="line"/>
      <point x="580.692" y="540"/>
      <point x="572.463" y="569"/>
      <point x="547.842" y="604" type="curve" smooth="yes"/>
      <point x="521.756" y="641"/>
      <point x="484.847" y="660"/>
      <point x="439.847" y="660" type="curve" smooth="yes"/>
      <point x="371.847" y="660"/>
      <point x="319.664" y="622"/>
      <point x="303.052" y="560" type="curve" smooth="yes"/>
      <point x="290.19" y="512"/>
      <point x="305.491" y="487"/>
      <point x="375.773" y="447" type="curve" smooth="yes"/>
      <point x="503.213" y="374" type="line" smooth="yes"/>
      <point x="558.639" y="342"/>
      <point x="584.542" y="267"/>
      <point x="564.446" y="192" type="curve" smooth="yes"/>
      <point x="530.685" y="66"/>
      <point x="407.909" y="-19"/>
      <point x="259.909" y="-19" type="curve" smooth="yes"/>
      <point x="216.909" y="-19"/>
      <point x="181.784" y="-12"/>
      <point x="136.34" y="5" type="curve" smooth="yes"/>
      <point x="116.216" y="12"/>
      <point x="106.02" y="15"/>
      <point x="98.0195" y="15" type="curve" smooth="yes"/>
      <point x="82.0195" y="15"/>
      <point x="71.6074" y="6"/>
      <point x="58.9092" y="-19" type="curve"/>
      <point x="29.9092" y="-19" type="line"/>
      <point x="96.0928" y="228" type="line"/>
      <point x="125.093" y="228" type="line"/>
      <point x="123.336" y="158"/>
      <point x="128.494" y="125"/>
      <point x="145.579" y="88" type="curve" smooth="yes"/>
      <point x="170.45" y="39"/>
      <point x="213.751" y="14"/>
      <point x="271.751" y="14" type="curve" smooth="yes"/>
      <point x="348.751" y="14"/>
      <point x="409.809" y="59"/>
      <point x="428.298" y="128" type="curve" smooth="yes"/>
      <point x="442.23" y="180"/>
      <point x="425.197" y="206"/>
      <point x="348.451" y="248" type="curve" smooth="yes"/>
      <point x="290.025" y="280" type="line" smooth="yes"/>
      <point x="186.299" y="337"/>
      <point x="151.18" y="400"/>
      <point x="174.759" y="488" type="curve" smooth="yes"/>
      <point x="208.521" y="614"/>
      <point x="312.153" y="691"/>
      <point x="448.153" y="691" type="curve" smooth="yes"/>
      <point x="486.153" y="691"/>
      <point x="516.545" y="685"/>
      <point x="559.258" y="669" type="curve" smooth="yes"/>
      <point x="579.114" y="661"/>
      <point x="589.311" y="658"/>
      <point x="598.311" y="658" type="curve" smooth="yes"/>
      <point x="615.311" y="658"/>
      <point x="625.454" y="666"/>
      <point x="639.421" y="692" type="curve"/>
      <point x="669.421" y="692" type="line"/>
    </contour>
  </outline>
</glyph>
<glyph name="T" format="2">
  <advance width="667"/>
  <unicode hex="0054"/>
  <outline>
    <contour>
      <point x="284.35" y="117" type="curve" smooth="yes"/>
      <point x="425.56" y="644" type="line"/>
      <point x="300.487" y="640"/>
      <point x="236.162" y="594"/>
      <point x="187.275" y="475" type="curve"/>
      <point x="158.275" y="475" type="line"/>
      <point x="215.134" y="676" type="line"/>
      <point x="815.134" y="676" type="line"/>
      <point x="763.275" y="475" type="line"/>
      <point x="734.275" y="475" type="line"/>
      <point x="749.162" y="594"/>
      <point x="709.487" y="640"/>
      <point x="587.56" y="644" type="curve"/>
      <point x="446.35" y="117" type="line" smooth="yes"/>
      <point x="425.986" y="41"/>
      <point x="434.307" y="31"/>
      <point x="519.699" y="25" type="curve"/>
      <point x="513" y="0" type="line"/>
      <point x="156" y="0" type="line"/>
      <point x="162.699" y="25" type="line"/>
      <point x="250.574" y="32"/>
      <point x="264.521" y="43"/>
    </contour>
  </outline>
</glyph>
<glyph name="U" format="2">
  <advance width="722"/>
  <unicode hex="0055"/>
  <outline>
    <contour>
      <point x="774.659" y="566" type="curve" smooth="yes"/>
      <point x="689.184" y="247" type="line" smooth="yes"/>
      <point x="664.264" y="154"/>
      <point x="617.9" y="78"/>
      <point x="562.718" y="40" type="curve" smooth="yes"/>
      <point x="509.804" y="3"/>
      <point x="433.909" y="-19"/>
      <point x="359.909" y="-19" type="curve" smooth="yes"/>
      <point x="286.909" y="-19"/>
      <point x="227.732" y="-1"/>
      <point x="189.11" y="34" type="curve" smooth="yes"/>
      <point x="139.9" y="78"/>
      <point x="132.029" y="127"/>
      <point x="158.289" y="225" type="curve" smooth="yes"/>
      <point x="247.783" y="559" type="line" smooth="yes"/>
      <point x="267.076" y="631"/>
      <point x="258.56" y="644"/>
      <point x="190.435" y="651" type="curve"/>
      <point x="197.134" y="676" type="line"/>
      <point x="535.134" y="676" type="line"/>
      <point x="528.435" y="651" type="line"/>
      <point x="479.899" y="649"/>
      <point x="462.827" y="645"/>
      <point x="448.147" y="635" type="curve" smooth="yes"/>
      <point x="429.396" y="621"/>
      <point x="417.502" y="599"/>
      <point x="406.783" y="559" type="curve" smooth="yes"/>
      <point x="317.289" y="225" type="line" smooth="yes"/>
      <point x="280.848" y="89"/>
      <point x="310.038" y="30"/>
      <point x="412.038" y="30" type="curve" smooth="yes"/>
      <point x="531.038" y="30"/>
      <point x="605.527" y="99"/>
      <point x="645.184" y="247" type="curve" smooth="yes"/>
      <point x="726.908" y="552" type="line" smooth="yes"/>
      <point x="746.469" y="625"/>
      <point x="731.827" y="645"/>
      <point x="655.435" y="651" type="curve"/>
      <point x="662.134" y="676" type="line"/>
      <point x="882.134" y="676" type="line"/>
      <point x="875.435" y="651" type="line"/>
      <point x="808.756" y="641"/>
      <point x="790.469" y="625"/>
    </contour>
  </outline>
</glyph>
<glyph name="V" format="2">
  <advance width="722"/>
  <unicode hex="0056"/>
  <outline>
    <contour>
      <point x="882.134" y="676" type="line"/>
      <point x="875.435" y="651" type="line"/>
      <point x="821.56" y="644"/>
      <point x="804.076" y="631"/>
      <point x="763.463" y="569" type="curve" smooth="yes"/>
      <point x="378.177" y="-18" type="line"/>
      <point x="351.177" y="-18" type="line"/>
      <point x="255.679" y="581" type="line" smooth="yes"/>
      <point x="245.416" y="636"/>
      <point x="238.56" y="644"/>
      <point x="190.435" y="651" type="curve"/>
      <point x="197.134" y="676" type="line"/>
      <point x="533.134" y="676" type="line"/>
      <point x="526.435" y="651" type="line"/>
      <point x="511.167" y="650"/>
      <point x="497.899" y="649"/>
      <point x="492.899" y="649" type="curve" smooth="yes"/>
      <point x="454.363" y="647"/>
      <point x="436.416" y="636"/>
      <point x="430.253" y="613" type="curve" smooth="yes"/>
      <point x="426.233" y="598"/>
      <point x="427.019" y="586"/>
      <point x="433.961" y="541" type="curve" smooth="yes"/>
      <point x="482.466" y="207" type="line"/>
      <point x="697.621" y="536" type="line" smooth="yes"/>
      <point x="726.143" y="579"/>
      <point x="732.358" y="591"/>
      <point x="736.646" y="607" type="curve" smooth="yes"/>
      <point x="745.22" y="639"/>
      <point x="732.095" y="646"/>
      <point x="662.435" y="651" type="curve"/>
      <point x="669.134" y="676" type="line"/>
    </contour>
  </outline>
</glyph>
<glyph name="X" format="2">
  <advance width="722"/>
  <unicode hex="0058"/>
  <outline>
    <contour>
      <point x="869.134" y="676" type="line"/>
      <point x="862.435" y="651" type="line"/>
      <point x="786.56" y="644"/>
      <point x="755.469" y="625"/>
      <point x="635.314" y="505" type="curve" smooth="yes"/>
      <point x="525.572" y="394" type="line"/>
      <point x="631.742" y="111" type="line" smooth="yes"/>
      <point x="660.45" y="39"/>
      <point x="671.967" y="26"/>
      <point x="705.699" y="25" type="curve"/>
      <point x="699" y="0" type="line"/>
      <point x="359" y="0" type="line"/>
      <point x="365.699" y="25" type="line"/>
      <point x="378.967" y="26"/>
      <point x="390.234" y="27"/>
      <point x="394.234" y="27" type="curve" smooth="yes"/>
      <point x="429.771" y="29"/>
      <point x="449.182" y="38"/>
      <point x="453.737" y="55" type="curve" smooth="yes"/>
      <point x="456.685" y="66"/>
      <point x="454.115" y="90"/>
      <point x="447.206" y="109" type="curve" smooth="yes"/>
      <point x="389.614" y="271" type="line"/>
      <point x="337.949" y="220" type="line" smooth="yes"/>
      <point x="237.154" y="120"/>
      <point x="208.579" y="88"/>
      <point x="202.685" y="66" type="curve" smooth="yes"/>
      <point x="195.986" y="41"/>
      <point x="213.307" y="31"/>
      <point x="272.699" y="25" type="curve"/>
      <point x="266" y="0" type="line"/>
      <point x="16" y="0" type="line"/>
      <point x="22.6992" y="25" type="line"/>
      <point x="74.3066" y="31"/>
      <point x="101.79" y="44"/>
      <point x="141.704" y="81" type="curve" smooth="yes"/>
      <point x="375.921" y="302" type="line"/>
      <point x="255.894" y="593" type="line" smooth="yes"/>
      <point x="236.951" y="638"/>
      <point x="226.631" y="648"/>
      <point x="191.435" y="651" type="curve"/>
      <point x="198.134" y="676" type="line"/>
      <point x="544.134" y="676" type="line"/>
      <point x="537.435" y="651" type="line"/>
      <point x="523.167" y="650"/>
      <point x="510.899" y="649"/>
      <point x="505.899" y="649" type="curve" smooth="yes"/>
      <point x="469.363" y="647"/>
      <point x="455.22" y="639"/>
      <point x="449.593" y="618" type="curve" smooth="yes"/>
      <point x="446.377" y="606"/>
      <point x="447.037" y="601"/>
      <point x="454.679" y="581" type="curve" smooth="yes"/>
      <point x="511.486" y="431" type="line"/>
      <point x="545.864" y="466"/>
      <point x="577.438" y="498"/>
      <point x="588.118" y="508" type="curve" smooth="yes"/>
      <point x="652.267" y="572"/>
      <point x="668.894" y="593"/>
      <point x="674.521" y="614" type="curve" smooth="yes"/>
      <point x="680.951" y="638"/>
      <point x="671.363" y="647"/>
      <point x="631.899" y="649" type="curve"/>
      <point x="629.167" y="650"/>
      <point x="621.167" y="650"/>
      <point x="612.435" y="651" type="curve"/>
      <point x="619.134" y="676" type="line"/>
    </contour>
  </outline>
</glyph>
<glyph name="Y" format="2">
  <advance width="722"/>
  <unicode hex="0059"/>
  <outline>
    <contour>
      <point x="880.134" y="676" type="line"/>
      <point x="873.435" y="651" type="line"/>
      <point x="838.095" y="646"/>
      <point x="816.147" y="635"/>
      <point x="794.985" y="612" type="curve" smooth="yes"/>
      <point x="520.652" y="301" type="line"/>
      <point x="471.35" y="117" type="line" smooth="yes"/>
      <point x="451.521" y="43"/>
      <point x="458.843" y="33"/>
      <point x="538.699" y="25" type="curve"/>
      <point x="532" y="0" type="line"/>
      <point x="185" y="0" type="line"/>
      <point x="191.699" y="25" type="line"/>
      <point x="275.843" y="33"/>
      <point x="289.79" y="44"/>
      <point x="309.35" y="117" type="curve" smooth="yes"/>
      <point x="348.738" y="264" type="line"/>
      <point x="254.697" y="596" type="line" smooth="yes"/>
      <point x="243.808" y="630"/>
      <point x="222.899" y="649"/>
      <point x="189.435" y="651" type="curve"/>
      <point x="196.134" y="676" type="line"/>
      <point x="531.134" y="676" type="line"/>
      <point x="524.435" y="651" type="line"/>
      <point x="499.167" y="650" type="line" smooth="yes"/>
      <point x="458.167" y="650"/>
      <point x="441.023" y="642"/>
      <point x="435.129" y="620" type="curve" smooth="yes"/>
      <point x="432.181" y="609"/>
      <point x="433.233" y="598"/>
      <point x="440.535" y="573" type="curve" smooth="yes"/>
      <point x="440.535" y="573"/>
      <point x="443.123" y="564"/>
      <point x="443.319" y="561" type="curve" smooth="yes"/>
      <point x="501.155" y="329" type="line"/>
      <point x="661.726" y="514" type="line" smooth="yes"/>
      <point x="697.712" y="555"/>
      <point x="721.09" y="590"/>
      <point x="726.181" y="609" type="curve" smooth="yes"/>
      <point x="733.951" y="638"/>
      <point x="719.095" y="646"/>
      <point x="653.435" y="651" type="curve"/>
      <point x="660.134" y="676" type="line"/>
    </contour>
  </outline>
</glyph>
<glyph name="Z" format="2">
  <advance width="667"/>
  <unicode hex="005A"/>
  <outline>
    <contour>
      <point x="698.576" y="241" type="line"/>
      <point x="608" y="0" type="line"/>
      <point x="28" y="0" type="line"/>
      <point x="32.2871" y="16" type="line"/>
      <point x="581.756" y="641" type="line"/>
      <point x="544.487" y="640"/>
      <point x="510.22" y="639"/>
      <point x="497.951" y="638" type="curve" smooth="yes"/>
      <point x="350.487" y="640"/>
      <point x="298.181" y="609"/>
      <point x="212.937" y="470" type="curve"/>
      <point x="184.937" y="470" type="line"/>
      <point x="261.134" y="676" type="line"/>
      <point x="785.134" y="676" type="line"/>
      <point x="780.847" y="660" type="line"/>
      <point x="234.378" y="35" type="line"/>
      <point x="308.378" y="35" type="line" smooth="yes"/>
      <point x="404.378" y="35"/>
      <point x="490.397" y="50"/>
      <point x="530.828" y="74" type="curve" smooth="yes"/>
      <point x="586.671" y="107"/>
      <point x="620.389" y="147"/>
      <point x="672.576" y="241" type="curve"/>
    </contour>
  </outline>
</glyph>
<glyph name="bracketleft" format="2">
  <advance width="333"/>
  <unicode hex="005B"/>
  <outline>
    <contour>
      <point x="269.918" y="-116" type="line"/>
      <point x="261.075" y="-149" type="line"/>
      <point x="27.0752" y="-149" type="line"/>
      <point x="248.67" y="678" type="line"/>
      <point x="482.67" y="678" type="line"/>
      <point x="473.827" y="645" type="line"/>
      <point x="410.827" y="645" type="line" smooth="yes"/>
      <point x="354.827" y="645"/>
      <point x="340.612" y="633"/>
      <point x="325.07" y="575" type="curve" smooth="yes"/>
      <point x="154.119" y="-63" type="line" smooth="yes"/>
      <point x="142.598" y="-106"/>
      <point x="148.918" y="-116"/>
      <point x="189.918" y="-116" type="curve" smooth="yes"/>
    </contour>
  </outline>
</glyph>
<glyph name="backslash" format="2">
  <advance width="278"/>
  <unicode hex="005C"/>
  <outline>
    <contour>
      <point x="205.909" y="-19" type="line"/>
      <point x="160.153" y="691" type="line"/>
      <point x="253.153" y="691" type="line"/>
      <point x="297.909" y="-19" type="line"/>
    </contour>
  </outline>
</glyph>
<glyph name="underscore" format="2">
  <advance width="500"/>
  <unicode hex="005F"/>
  <outline>
    <contour>
      <point x="466.506" y="-125" type="line"/>
      <point x="-33.4932" y="-125" type="line"/>
      <point x="-20.0957" y="-75" type="line"/>
      <point x="479.904" y="-75" type="line"/>
    </contour>
  </outline>
</glyph>
<glyph name="c" format="2">
  <advance width="444"/>
  <unicode hex="0063"/>
  <outline>
    <contour>
      <point x="441.206" y="109" type="curve"/>
      <point x="454.384" y="91" type="line"/>
      <point x="376.555" y="17"/>
      <point x="312.249" y="-14"/>
      <point x="235.249" y="-14" type="curve" smooth="yes"/>
      <point x="111.249" y="-14"/>
      <point x="47.7754" y="85"/>
      <point x="84.7529" y="223" type="curve" smooth="yes"/>
      <point x="123.337" y="367"/>
      <point x="251.74" y="473"/>
      <point x="387.74" y="473" type="curve" smooth="yes"/>
      <point x="475.74" y="473"/>
      <point x="529.879" y="425"/>
      <point x="513.266" y="363" type="curve" smooth="yes"/>
      <point x="502.815" y="324"/>
      <point x="470.385" y="300"/>
      <point x="428.385" y="300" type="curve" smooth="yes"/>
      <point x="391.385" y="300"/>
      <point x="379.548" y="323"/>
      <point x="391.677" y="372" type="curve" smooth="yes"/>
      <point x="402.931" y="414"/>
      <point x="402.931" y="414"/>
      <point x="400.343" y="423" type="curve" smooth="yes"/>
      <point x="397.29" y="434"/>
      <point x="384.434" y="442"/>
      <point x="368.434" y="442" type="curve" smooth="yes"/>
      <point x="316.434" y="442"/>
      <point x="267.553" y="379"/>
      <point x="239.954" y="276" type="curve" smooth="yes"/>
      <point x="203.513" y="140"/>
      <point x="235.201" y="53"/>
      <point x="322.201" y="53" type="curve" smooth="yes"/>
      <point x="363.201" y="53"/>
      <point x="392.952" y="67"/>
    </contour>
  </outline>
</glyph>
<glyph name="f" format="2">
  <advance width="333"/>
  <unicode hex="0066"/>
  <outline>
    <contour>
      <point x="182.734" y="417" type="line"/>
      <point x="125.734" y="417" type="line"/>
      <point x="137.524" y="461" type="line"/>
      <point x="194.524" y="461" type="line"/>
      <point x="217.568" y="547"/>
      <point x="235.554" y="588"/>
      <point x="266.933" y="623" type="curve" smooth="yes"/>
      <point x="305.722" y="667"/>
      <point x="364.153" y="691"/>
      <point x="431.153" y="691" type="curve" smooth="yes"/>
      <point x="515.153" y="691"/>
      <point x="563.167" y="650"/>
      <point x="547.358" y="591" type="curve" smooth="yes"/>
      <point x="537.443" y="554"/>
      <point x="505.745" y="529"/>
      <point x="468.745" y="529" type="curve" smooth="yes"/>
      <point x="434.745" y="529"/>
      <point x="415.176" y="553"/>
      <point x="423.482" y="584" type="curve" smooth="yes"/>
      <point x="426.162" y="594"/>
      <point x="433.109" y="605"/>
      <point x="446.129" y="620" type="curve" smooth="yes"/>
      <point x="454.808" y="630"/>
      <point x="459.684" y="637"/>
      <point x="460.756" y="641" type="curve" smooth="yes"/>
      <point x="463.971" y="653"/>
      <point x="454.847" y="660"/>
      <point x="436.847" y="660" type="curve" smooth="yes"/>
      <point x="401.847" y="660"/>
      <point x="380.951" y="638"/>
      <point x="366.215" y="583" type="curve" smooth="yes"/>
      <point x="333.524" y="461" type="line"/>
      <point x="420.524" y="461" type="line"/>
      <point x="408.734" y="417" type="line"/>
      <point x="321.734" y="417" type="line"/>
      <point x="237.599" y="103" type="line" smooth="yes"/>
      <point x="220.182" y="38"/>
      <point x="228.967" y="26"/>
      <point x="298.431" y="24" type="curve"/>
      <point x="292" y="0" type="line"/>
      <point x="14" y="0" type="line"/>
      <point x="20.4307" y="24" type="line"/>
      <point x="67.7705" y="29"/>
      <point x="81.9863" y="41"/>
      <point x="93.5078" y="84" type="curve" smooth="yes"/>
    </contour>
  </outline>
</glyph>
<glyph name="g" format="2">
  <advance width="500"/>
  <unicode hex="0067"/>
  <outline>
    <contour>
      <point x="588.644" y="398" type="line"/>
      <point x="507.644" y="398" type="line"/>
      <point x="528.142" y="370"/>
      <point x="532.103" y="340"/>
      <point x="521.385" y="300" type="curve" smooth="yes"/>
      <point x="507.184" y="247"/>
      <point x="473.197" y="206"/>
      <point x="421.23" y="180" type="curve" smooth="yes"/>
      <point x="381.872" y="160"/>
      <point x="355.265" y="154"/>
      <point x="308.265" y="154" type="curve" smooth="yes"/>
      <point x="263.532" y="155" type="line" smooth="yes"/>
      <point x="223.532" y="155"/>
      <point x="189.638" y="133"/>
      <point x="181.599" y="103" type="curve" smooth="yes"/>
      <point x="174.096" y="75"/>
      <point x="192.221" y="68"/>
      <point x="272.221" y="68" type="curve" smooth="yes"/>
      <point x="337.221" y="68" type="line" smooth="yes"/>
      <point x="439.221" y="68"/>
      <point x="488.895" y="22"/>
      <point x="468.263" y="-55" type="curve" smooth="yes"/>
      <point x="441.735" y="-154"/>
      <point x="339.803" y="-206"/>
      <point x="173.803" y="-206" type="curve" smooth="yes"/>
      <point x="47.8027" y="-206"/>
      <point x="-18.0869" y="-172"/>
      <point x="-2.5459" y="-114" type="curve" smooth="yes"/>
      <point x="8.43945" y="-73"/>
      <point x="48.1387" y="-48"/>
      <point x="113.55" y="-39" type="curve"/>
      <point x="55.7129" y="-16"/>
      <point x="42.5361" y="2"/>
      <point x="53.5215" y="43" type="curve" smooth="yes"/>
      <point x="67.4551" y="95"/>
      <point x="117.638" y="133"/>
      <point x="203.872" y="160" type="curve"/>
      <point x="162.23" y="180"/>
      <point x="146.714" y="193"/>
      <point x="131.145" y="217" type="curve" smooth="yes"/>
      <point x="115.647" y="245"/>
      <point x="111.49" y="278"/>
      <point x="120.601" y="312" type="curve" smooth="yes"/>
      <point x="146.056" y="407"/>
      <point x="247.74" y="473"/>
      <point x="366.74" y="473" type="curve" smooth="yes"/>
      <point x="406.74" y="473"/>
      <point x="433.132" y="467"/>
      <point x="472.845" y="451" type="curve"/>
      <point x="602.845" y="451" type="line"/>
    </contour>
    <contour>
      <point x="310.066" y="-52" type="curve" smooth="yes"/>
      <point x="137.066" y="-52" type="line"/>
      <point x="102.904" y="-75"/>
      <point x="92.9561" y="-86"/>
      <point x="87.3291" y="-107" type="curve" smooth="yes"/>
      <point x="75.54" y="-151"/>
      <point x="115.377" y="-174"/>
      <point x="203.377" y="-174" type="curve" smooth="yes"/>
      <point x="302.377" y="-174"/>
      <point x="364.344" y="-148"/>
      <point x="376.669" y="-102" type="curve" smooth="yes"/>
      <point x="385.512" y="-69"/>
      <point x="364.066" y="-52"/>
    </contour>
    <contour>
      <point x="358.434" y="442" type="curve" smooth="yes"/>
      <point x="311.434" y="442"/>
      <point x="282.52" y="405"/>
      <point x="257.332" y="311" type="curve" smooth="yes"/>
      <point x="232.413" y="218"/>
      <point x="240.767" y="182"/>
      <point x="288.767" y="182" type="curve" smooth="yes"/>
      <point x="335.767" y="182"/>
      <point x="364.413" y="218"/>
      <point x="389.332" y="311" type="curve" smooth="yes"/>
      <point x="414.252" y="404"/>
      <point x="405.434" y="442"/>
    </contour>
  </outline>
</glyph>
<glyph name="i" format="2">
  <advance width="278"/>
  <unicode hex="0069"/>
  <outline>
    <contour>
      <point x="331.524" y="461" type="line"/>
      <point x="229.704" y="81" type="line" smooth="yes"/>
      <point x="219.521" y="43"/>
      <point x="227.771" y="29"/>
      <point x="261.431" y="24" type="curve"/>
      <point x="255" y="0" type="line"/>
      <point x="16" y="0" type="line"/>
      <point x="22.4307" y="24" type="line"/>
      <point x="71.3779" y="35"/>
      <point x="80.5215" y="43"/>
      <point x="91.5078" y="84" type="curve" smooth="yes"/>
      <point x="170.285" y="378" type="line" smooth="yes"/>
      <point x="181.271" y="419"/>
      <point x="174.683" y="428"/>
      <point x="133.094" y="437" type="curve"/>
      <point x="139.524" y="461" type="line"/>
    </contour>
    <contour>
      <point x="323.153" y="691" type="curve" smooth="yes"/>
      <point x="366.153" y="691"/>
      <point x="390.774" y="656"/>
      <point x="379.253" y="613" type="curve" smooth="yes"/>
      <point x="367.463" y="569"/>
      <point x="324.621" y="536"/>
      <point x="280.621" y="536" type="curve" smooth="yes"/>
      <point x="236.621" y="536"/>
      <point x="212.463" y="569"/>
      <point x="224.521" y="614" type="curve" smooth="yes"/>
      <point x="235.774" y="656"/>
      <point x="280.153" y="691"/>
    </contour>
  </outline>
</glyph>
<glyph name="j" format="2">
  <advance width="333"/>
  <unicode hex="006A"/>
  <outline>
    <contour>
      <point x="383.524" y="461" type="line"/>
      <point x="260.536" y="2" type="line" smooth="yes"/>
      <point x="244.727" y="-57"/>
      <point x="226.545" y="-95"/>
      <point x="198.971" y="-127" type="curve" smooth="yes"/>
      <point x="157.841" y="-176"/>
      <point x="97.6064" y="-203"/>
      <point x="28.6064" y="-203" type="curve" smooth="yes"/>
      <point x="-53.3936" y="-203"/>
      <point x="-100.408" y="-162"/>
      <point x="-84.5986" y="-103" type="curve" smooth="yes"/>
      <point x="-74.9521" y="-67"/>
      <point x="-43.2539" y="-42"/>
      <point x="-6.25391" y="-42" type="curve" smooth="yes"/>
      <point x="25.7461" y="-42"/>
      <point x="46.3154" y="-66"/>
      <point x="38.2773" y="-96" type="curve" smooth="yes"/>
      <point x="35.5977" y="-106"/>
      <point x="28.6504" y="-117"/>
      <point x="14.3623" y="-133" type="curve" smooth="yes"/>
      <point x="5.68359" y="-143"/>
      <point x="0.807617" y="-150"/>
      <point x="-0.532227" y="-155" type="curve" smooth="yes"/>
      <point x="-3.21191" y="-165"/>
      <point x="7.91309" y="-172"/>
      <point x="26.9131" y="-172" type="curve" smooth="yes"/>
      <point x="59.9131" y="-172"/>
      <point x="81.0752" y="-149"/>
      <point x="95.2773" y="-96" type="curve" smooth="yes"/>
      <point x="222.285" y="378" type="line" smooth="yes"/>
      <point x="233.807" y="421"/>
      <point x="225.022" y="433"/>
      <point x="175.094" y="437" type="curve"/>
      <point x="181.524" y="461" type="line"/>
    </contour>
    <contour>
      <point x="370.153" y="691" type="curve" smooth="yes"/>
      <point x="413.153" y="691"/>
      <point x="438.774" y="656"/>
      <point x="427.253" y="613" type="curve" smooth="yes"/>
      <point x="415.731" y="570"/>
      <point x="371.621" y="536"/>
      <point x="328.621" y="536" type="curve" smooth="yes"/>
      <point x="283.621" y="536"/>
      <point x="260.463" y="569"/>
      <point x="272.521" y="614" type="curve" smooth="yes"/>
      <point x="283.774" y="656"/>
      <point x="327.153" y="691"/>
    </contour>
  </outline>
</glyph>
<glyph name="k" format="2">
  <advance width="556"/>
  <unicode hex="006B"/>
  <outline>
    <contour>
      <point x="636.524" y="461" type="line"/>
      <point x="630.361" y="438" type="line"/>
      <point x="565.218" y="430"/>
      <point x="534.396" y="412"/>
      <point x="406.261" y="307" type="curve"/>
      <point x="528.45" y="39" type="line" smooth="yes"/>
      <point x="534.234" y="27"/>
      <point x="538.431" y="24"/>
      <point x="549.431" y="24" type="curve"/>
      <point x="543" y="0" type="line"/>
      <point x="309" y="0" type="line"/>
      <point x="315.431" y="24" type="line"/>
      <point x="343.699" y="25"/>
      <point x="359.307" y="31"/>
      <point x="362.521" y="43" type="curve" smooth="yes"/>
      <point x="364.665" y="51"/>
      <point x="360.881" y="63"/>
      <point x="350.579" y="88" type="curve" smooth="yes"/>
      <point x="291.484" y="222" type="line"/>
      <point x="262.054" y="198" type="line"/>
      <point x="231.508" y="84" type="line" smooth="yes"/>
      <point x="218.914" y="37"/>
      <point x="222.307" y="31"/>
      <point x="267.431" y="24" type="curve"/>
      <point x="261" y="0" type="line"/>
      <point x="22" y="0" type="line"/>
      <point x="28.4307" y="24" type="line"/>
      <point x="62.2344" y="27"/>
      <point x="82.0576" y="45"/>
      <point x="92.5078" y="84" type="curve" smooth="yes"/>
      <point x="229.162" y="594" type="line" smooth="yes"/>
      <point x="239.344" y="632"/>
      <point x="229.899" y="649"/>
      <point x="196.703" y="652" type="curve"/>
      <point x="203.134" y="676" type="line"/>
      <point x="390.134" y="676" type="line"/>
      <point x="274.647" y="245" type="line"/>
      <point x="436.945" y="373" type="line" smooth="yes"/>
      <point x="450.893" y="384"/>
      <point x="465.716" y="402"/>
      <point x="468.127" y="411" type="curve" smooth="yes"/>
      <point x="471.61" y="424"/>
      <point x="462.486" y="431"/>
      <point x="439.29" y="434" type="curve" smooth="yes"/>
      <point x="436.558" y="435"/>
      <point x="426.826" y="436"/>
      <point x="416.361" y="438" type="curve"/>
      <point x="422.524" y="461" type="line"/>
    </contour>
  </outline>
</glyph>
<glyph name="p" format="2">
  <advance width="556"/>
  <unicode hex="0070"/>
  <outline>
    <contour>
      <point x="335.524" y="461" type="line"/>
      <point x="317.036" y="392" type="line"/>
      <point x="363.577" y="450"/>
      <point x="405.74" y="473"/>
      <point x="464.74" y="473" type="curve" smooth="yes"/>
      <point x="575.74" y="473"/>
      <point x="625.285" y="378"/>
      <point x="588.04" y="239" type="curve" smooth="yes"/>
      <point x="548.384" y="91"/>
      <point x="440.517" y="-13"/>
      <point x="328.517" y="-13" type="curve" smooth="yes"/>
      <point x="284.517" y="-13"/>
      <point x="262" y="0"/>
      <point x="226.594" y="47" type="curve"/>
      <point x="188.812" y="-94" type="line" smooth="yes"/>
      <point x="170.86" y="-161"/>
      <point x="182.501" y="-181"/>
      <point x="242.697" y="-184" type="curve"/>
      <point x="237.07" y="-205" type="line"/>
      <point x="-35.9297" y="-205" type="line"/>
      <point x="-29.499" y="-181" type="line"/>
      <point x="20.6445" y="-173"/>
      <point x="31.0566" y="-164"/>
      <point x="42.042" y="-123" type="curve" smooth="yes"/>
      <point x="176.285" y="378" type="line" smooth="yes"/>
      <point x="187.539" y="420"/>
      <point x="180.218" y="430"/>
      <point x="138.094" y="437" type="curve"/>
      <point x="144.524" y="461" type="line"/>
    </contour>
    <contour>
      <point x="306.71" y="346" type="curve" smooth="yes"/>
      <point x="241.599" y="103" type="line"/>
      <point x="246.417" y="65"/>
      <point x="269.254" y="42"/>
      <point x="302.254" y="42" type="curve" smooth="yes"/>
      <point x="359.254" y="42"/>
      <point x="403.062" y="101"/>
      <point x="436.289" y="225" type="curve" smooth="yes"/>
      <point x="471.39" y="356"/>
      <point x="463.467" y="416"/>
      <point x="411.467" y="416" type="curve" smooth="yes"/>
      <point x="389.467" y="416"/>
      <point x="363.252" y="404"/>
      <point x="337.356" y="382" type="curve" smooth="yes"/>
      <point x="321.873" y="369"/>
      <point x="308.586" y="353"/>
    </contour>
  </outline>
</glyph>
<glyph name="q" format="2">
  <advance width="556"/>
  <unicode hex="0071"/>
  <outline>
    <contour>
      <point x="316.009" y="-97" type="curve" smooth="yes"/>
      <point x="353.254" y="42" type="line"/>
      <point x="301.536" y="2"/>
      <point x="262.249" y="-14"/>
      <point x="215.249" y="-14" type="curve" smooth="yes"/>
      <point x="106.249" y="-14"/>
      <point x="55.9717" y="82"/>
      <point x="92.6807" y="219" type="curve" smooth="yes"/>
      <point x="132.605" y="368"/>
      <point x="252.74" y="473"/>
      <point x="382.74" y="473" type="curve" smooth="yes"/>
      <point x="432.74" y="473"/>
      <point x="459.988" y="459"/>
      <point x="499.467" y="416" type="curve"/>
      <point x="592.472" y="472" type="line"/>
      <point x="607.472" y="472" type="line"/>
      <point x="448.042" y="-123" type="line" smooth="yes"/>
      <point x="437.324" y="-163"/>
      <point x="443.913" y="-172"/>
      <point x="487.501" y="-181" type="curve"/>
      <point x="481.07" y="-205" type="line"/>
      <point x="214.07" y="-205" type="line"/>
      <point x="220.77" y="-180" type="line"/>
      <point x="288.984" y="-168"/>
      <point x="299.396" y="-159"/>
    </contour>
    <contour>
      <point x="368.259" y="98" type="curve"/>
      <point x="438.729" y="361" type="line" smooth="yes"/>
      <point x="451.591" y="409"/>
      <point x="433.166" y="441"/>
      <point x="393.166" y="441" type="curve" smooth="yes"/>
      <point x="330.166" y="441"/>
      <point x="279.409" y="371"/>
      <point x="243.236" y="236" type="curve" smooth="yes"/>
      <point x="208.135" y="105"/>
      <point x="221.718" y="40"/>
      <point x="283.718" y="40" type="curve" smooth="yes"/>
      <point x="317.718" y="40"/>
      <point x="348.345" y="61"/>
    </contour>
  </outline>
</glyph>
<glyph name="r" format="2">
  <advance width="444"/>
  <unicode hex="0072"/>
  <outline>
    <contour>
      <point x="341.524" y="461" type="line"/>
      <point x="319.553" y="379" type="line"/>
      <point x="384.505" y="446"/>
      <point x="429.74" y="473"/>
      <point x="479.74" y="473" type="curve" smooth="yes"/>
      <point x="526.74" y="473"/>
      <point x="551.897" y="440"/>
      <point x="539.84" y="395" type="curve" smooth="yes"/>
      <point x="529.39" y="356"/>
      <point x="495.888" y="328"/>
      <point x="458.888" y="328" type="curve" smooth="yes"/>
      <point x="432.888" y="328"/>
      <point x="420.299" y="337"/>
      <point x="408.533" y="364" type="curve" smooth="yes"/>
      <point x="401.82" y="380"/>
      <point x="394.696" y="387"/>
      <point x="386.696" y="387" type="curve" smooth="yes"/>
      <point x="353.696" y="387"/>
      <point x="314.175" y="344"/>
      <point x="300.241" y="292" type="curve" smooth="yes"/>
      <point x="249.599" y="103" type="line" smooth="yes"/>
      <point x="232.986" y="41"/>
      <point x="241.503" y="28"/>
      <point x="301.431" y="24" type="curve"/>
      <point x="295" y="0" type="line"/>
      <point x="29" y="0" type="line"/>
      <point x="35.4307" y="24" type="line"/>
      <point x="81.5742" y="32"/>
      <point x="94.5215" y="43"/>
      <point x="105.508" y="84" type="curve" smooth="yes"/>
      <point x="184.285" y="378" type="line" smooth="yes"/>
      <point x="195.003" y="418"/>
      <point x="187.486" y="431"/>
      <point x="146.094" y="437" type="curve"/>
      <point x="152.524" y="461" type="line"/>
    </contour>
  </outline>
</glyph>
<glyph name="s" format="2">
  <advance width="389"/>
  <unicode hex="0073"/>
  <outline>
    <contour>
      <point x="427.352" y="326" type="line"/>
      <point x="402.352" y="326" type="line"/>
      <point x="399.142" y="370"/>
      <point x="392.964" y="388"/>
      <point x="377.323" y="408" type="curve" smooth="yes"/>
      <point x="360.95" y="429"/>
      <point x="336.897" y="440"/>
      <point x="310.897" y="440" type="curve" smooth="yes"/>
      <point x="272.897" y="440"/>
      <point x="238.199" y="415"/>
      <point x="229.356" y="382" type="curve" smooth="yes"/>
      <point x="220.246" y="348"/>
      <point x="241.548" y="323"/>
      <point x="301.777" y="294" type="curve" smooth="yes"/>
      <point x="389.523" y="252"/>
      <point x="417.001" y="209"/>
      <point x="397.977" y="138" type="curve" smooth="yes"/>
      <point x="373.861" y="48"/>
      <point x="294.249" y="-14"/>
      <point x="203.249" y="-14" type="curve" smooth="yes"/>
      <point x="175.249" y="-14"/>
      <point x="125.196" y="-3"/>
      <point x="101.411" y="9" type="curve" smooth="yes"/>
      <point x="92.4834" y="13"/>
      <point x="85.0195" y="15"/>
      <point x="80.0195" y="15" type="curve" smooth="yes"/>
      <point x="71.0195" y="15"/>
      <point x="63.1436" y="8"/>
      <point x="46.5166" y="-13" type="curve"/>
      <point x="21.5166" y="-13" type="line"/>
      <point x="65.7285" y="152" type="line"/>
      <point x="93.7285" y="152" type="line"/>
      <point x="91.417" y="65"/>
      <point x="125.359" y="20"/>
      <point x="195.359" y="20" type="curve" smooth="yes"/>
      <point x="240.359" y="20"/>
      <point x="277.325" y="46"/>
      <point x="287.775" y="85" type="curve" smooth="yes"/>
      <point x="296.35" y="117"/>
      <point x="275.049" y="142"/>
      <point x="215.087" y="172" type="curve" smooth="yes"/>
      <point x="125.609" y="215"/>
      <point x="96.9346" y="261"/>
      <point x="114.619" y="327" type="curve" smooth="yes"/>
      <point x="137.127" y="411"/>
      <point x="219.74" y="473"/>
      <point x="310.74" y="473" type="curve" smooth="yes"/>
      <point x="332.74" y="473"/>
      <point x="354.668" y="469"/>
      <point x="384.721" y="458" type="curve" smooth="yes"/>
      <point x="399.381" y="453"/>
      <point x="408.845" y="451"/>
      <point x="414.845" y="451" type="curve" smooth="yes"/>
      <point x="426.845" y="451"/>
      <point x="434.185" y="456"/>
      <point x="444.204" y="471" type="curve"/>
      <point x="466.204" y="471" type="line"/>
    </contour>
  </outline>
</glyph>
<glyph name="t" format="2">
  <advance width="333"/>
  <unicode hex="0074"/>
  <outline>
    <contour>
      <point x="428.524" y="461" type="line"/>
      <point x="416.734" y="417" type="line"/>
      <point x="322.734" y="417" type="line"/>
      <point x="242.082" y="116" type="line" smooth="yes"/>
      <point x="231.364" y="76"/>
      <point x="237.809" y="59"/>
      <point x="265.809" y="59" type="curve" smooth="yes"/>
      <point x="286.809" y="59"/>
      <point x="306.561" y="73"/>
      <point x="336.742" y="111" type="curve"/>
      <point x="358.795" y="100" type="line"/>
      <point x="295.823" y="18"/>
      <point x="247.784" y="-12"/>
      <point x="180.784" y="-12" type="curve" smooth="yes"/>
      <point x="111.784" y="-12"/>
      <point x="79.5029" y="28"/>
      <point x="96.9189" y="93" type="curve" smooth="yes"/>
      <point x="183.734" y="417" type="line"/>
      <point x="131.734" y="417" type="line"/>
      <point x="138.97" y="444" type="line"/>
      <point x="218.707" y="499"/>
      <point x="270.765" y="544"/>
      <point x="354.808" y="630" type="curve"/>
      <point x="379.808" y="630" type="line"/>
      <point x="334.524" y="461" type="line"/>
    </contour>
  </outline>
</glyph>
<glyph name="u" format="2">
  <advance width="556"/>
  <unicode hex="0075"/>
  <outline>
    <contour>
      <point x="339.517" y="-13" type="curve"/>
      <point x="356.934" y="52" type="line"/>
      <point x="285.536" y="2"/>
      <point x="246.249" y="-14"/>
      <point x="194.249" y="-14" type="curve" smooth="yes"/>
      <point x="111.249" y="-14"/>
      <point x="75.1816" y="38"/>
      <point x="98.7617" y="126" type="curve" smooth="yes"/>
      <point x="166.285" y="378" type="line" smooth="yes"/>
      <point x="177.539" y="420"/>
      <point x="171.95" y="429"/>
      <point x="133.094" y="437" type="curve"/>
      <point x="139.524" y="461" type="line"/>
      <point x="327.524" y="461" type="line"/>
      <point x="236.689" y="122" type="line" smooth="yes"/>
      <point x="223.024" y="71"/>
      <point x="232.665" y="51"/>
      <point x="273.665" y="51" type="curve" smooth="yes"/>
      <point x="301.665" y="51"/>
      <point x="325.613" y="62"/>
      <point x="367.455" y="95" type="curve"/>
      <point x="443.285" y="378" type="line" smooth="yes"/>
      <point x="454.807" y="421"/>
      <point x="446.022" y="433"/>
      <point x="397.094" y="437" type="curve"/>
      <point x="403.524" y="461" type="line"/>
      <point x="604.524" y="461" type="line"/>
      <point x="508.062" y="101" type="line" smooth="yes"/>
      <point x="496.541" y="58"/>
      <point x="505.058" y="45"/>
      <point x="548.521" y="43" type="curve"/>
      <point x="542.359" y="20" type="line"/>
      <point x="478.483" y="13" type="line" smooth="yes"/>
      <point x="411.607" y="6"/>
      <point x="386.536" y="2"/>
    </contour>
  </outline>
</glyph>
<glyph name="w" format="2">
  <advance width="722"/>
  <unicode hex="0077"/>
  <outline>
    <contour>
      <point x="830.524" y="461" type="line"/>
      <point x="824.094" y="437" type="line"/>
      <point x="796.754" y="432"/>
      <point x="786.61" y="424"/>
      <point x="760.696" y="387" type="curve" smooth="yes"/>
      <point x="498.249" y="-14" type="line"/>
      <point x="475.249" y="-14" type="line"/>
      <point x="456.312" y="296" type="line"/>
      <point x="248.249" y="-14" type="line"/>
      <point x="224.249" y="-14" type="line"/>
      <point x="176.462" y="360" type="line" smooth="yes"/>
      <point x="167.146" y="426"/>
      <point x="164.754" y="432"/>
      <point x="140.094" y="437" type="curve"/>
      <point x="146.524" y="461" type="line"/>
      <point x="368.524" y="461" type="line"/>
      <point x="362.094" y="437" type="line"/>
      <point x="333.022" y="433"/>
      <point x="320.879" y="425"/>
      <point x="316.591" y="409" type="curve" smooth="yes"/>
      <point x="313.107" y="396"/>
      <point x="315.533" y="364"/>
      <point x="324.777" y="294" type="curve" smooth="yes"/>
      <point x="326.025" y="280"/>
      <point x="327.935" y="261"/>
      <point x="331.308" y="240" type="curve" smooth="yes"/>
      <point x="338.159" y="176" type="line"/>
      <point x="451.979" y="347" type="line"/>
      <point x="451.069" y="366" type="line" smooth="yes"/>
      <point x="449.754" y="432"/>
      <point x="449.022" y="433"/>
      <point x="411.094" y="437" type="curve"/>
      <point x="417.524" y="461" type="line"/>
      <point x="651.524" y="461" type="line"/>
      <point x="645.094" y="437" type="line"/>
      <point x="606.29" y="434"/>
      <point x="594.95" y="429"/>
      <point x="590.663" y="413" type="curve" smooth="yes"/>
      <point x="588.252" y="404"/>
      <point x="587.749" y="376"/>
      <point x="589.261" y="307" type="curve" smooth="yes"/>
      <point x="590.433" y="233"/>
      <point x="590.217" y="221"/>
      <point x="589.23" y="180" type="curve"/>
      <point x="610.341" y="214"/>
      <point x="623.968" y="235"/>
      <point x="649.418" y="274" type="curve" smooth="yes"/>
      <point x="701.586" y="353"/>
      <point x="724.5" y="390"/>
      <point x="727.716" y="402" type="curve" smooth="yes"/>
      <point x="733.879" y="425"/>
      <point x="725.021" y="433"/>
      <point x="689.094" y="437" type="curve"/>
      <point x="695.524" y="461" type="line"/>
    </contour>
  </outline>
</glyph>
<glyph name="x" format="2">
  <advance width="500"/>
  <unicode hex="0078"/>
  <outline>
    <contour>
      <point x="490.431" y="24" type="curve"/>
      <point x="484" y="0" type="line"/>
      <point x="243" y="0" type="line"/>
      <point x="249.431" y="24" type="line"/>
      <point x="280.967" y="26"/>
      <point x="296.574" y="32"/>
      <point x="299.79" y="44" type="curve" smooth="yes"/>
      <point x="303.005" y="56"/>
      <point x="298.096" y="75"/>
      <point x="283.938" y="108" type="curve" smooth="yes"/>
      <point x="258.819" y="171" type="line"/>
      <point x="249.408" y="162"/>
      <point x="240.265" y="154"/>
      <point x="237.46" y="151" type="curve" smooth="yes"/>
      <point x="187.135" y="105"/>
      <point x="149.881" y="63"/>
      <point x="145.861" y="48" type="curve" smooth="yes"/>
      <point x="141.843" y="33"/>
      <point x="153.967" y="26"/>
      <point x="189.431" y="24" type="curve"/>
      <point x="183" y="0" type="line"/>
      <point x="14" y="0" type="line"/>
      <point x="20.4307" y="24" type="line"/>
      <point x="57.9668" y="26"/>
      <point x="82.5215" y="43"/>
      <point x="158.35" y="117" type="curve" smooth="yes"/>
      <point x="171.102" y="131"/>
      <point x="206.943" y="164"/>
      <point x="245.857" y="201" type="curve"/>
      <point x="170.644" y="398" type="line" smooth="yes"/>
      <point x="158.683" y="428"/>
      <point x="154.022" y="433"/>
      <point x="129.094" y="437" type="curve"/>
      <point x="135.524" y="461" type="line"/>
      <point x="385.524" y="461" type="line"/>
      <point x="379.094" y="437" type="line"/>
      <point x="345.826" y="436"/>
      <point x="330.218" y="430"/>
      <point x="327.003" y="418" type="curve" smooth="yes"/>
      <point x="323.52" y="405"/>
      <point x="337.998" y="362"/>
      <point x="358.744" y="320" type="curve" smooth="yes"/>
      <point x="360.672" y="316"/>
      <point x="363.064" y="310"/>
      <point x="367.188" y="303" type="curve"/>
      <point x="387.815" y="324"/>
      <point x="407.906" y="343"/>
      <point x="415.515" y="349" type="curve" smooth="yes"/>
      <point x="452.089" y="381"/>
      <point x="466.644" y="398"/>
      <point x="470.663" y="413" type="curve" smooth="yes"/>
      <point x="474.683" y="428"/>
      <point x="468.29" y="434"/>
      <point x="445.558" y="435" type="curve" smooth="yes"/>
      <point x="442.558" y="435"/>
      <point x="434.826" y="436"/>
      <point x="426.094" y="437" type="curve"/>
      <point x="432.524" y="461" type="line"/>
      <point x="600.524" y="461" type="line"/>
      <point x="594.094" y="437" type="line"/>
      <point x="561.754" y="432"/>
      <point x="538.807" y="421"/>
      <point x="513.644" y="398" type="curve" smooth="yes"/>
      <point x="378.882" y="272" type="line"/>
      <point x="465.79" y="44" type="line" smooth="yes"/>
      <point x="469.843" y="33"/>
      <point x="475.771" y="29"/>
    </contour>
  </outline>
</glyph>
<glyph name="z" format="2">
  <advance width="444"/>
  <unicode hex="007A"/>
  <outline>
    <contour>
      <point x="462.872" y="160" type="line"/>
      <point x="404" y="0" type="line"/>
      <point x="21" y="0" type="line"/>
      <point x="27.6992" y="25" type="line"/>
      <point x="369.95" y="429" type="line"/>
      <point x="230.218" y="430"/>
      <point x="199.931" y="414"/>
      <point x="149.476" y="319" type="curve"/>
      <point x="123.476" y="319" type="line"/>
      <point x="168.524" y="461" type="line"/>
      <point x="539.524" y="461" type="line"/>
      <point x="532.558" y="435" type="line"/>
      <point x="193.574" y="32" type="line"/>
      <point x="222.574" y="32" type="line" smooth="yes"/>
      <point x="302.574" y="32"/>
      <point x="339.058" y="45"/>
      <point x="382.848" y="89" type="curve" smooth="yes"/>
      <point x="404.475" y="110"/>
      <point x="417.298" y="128"/>
      <point x="434.872" y="160" type="curve"/>
    </contour>
  </outline>
</glyph>
<glyph name="braceleft" format="2">
  <advance width="394"/>
  <unicode hex="007B"/>
  <outline>
    <contour>
      <point x="119.89" y="-34" type="curve" smooth="yes"/>
      <point x="167.853" y="145" type="line" smooth="yes"/>
      <point x="186.877" y="216"/>
      <point x="171.308" y="240"/>
      <point x="91.9346" y="261" type="curve"/>
      <point x="182.562" y="282"/>
      <point x="210.992" y="306"/>
      <point x="230.017" y="377" type="curve" smooth="yes"/>
      <point x="277.979" y="556" type="line" smooth="yes"/>
      <point x="292.717" y="611"/>
      <point x="318.631" y="648"/>
      <point x="358.258" y="669" type="curve" smooth="yes"/>
      <point x="395.885" y="690"/>
      <point x="437.761" y="697"/>
      <point x="527.028" y="698" type="curve"/>
      <point x="523.813" y="686" type="line"/>
      <point x="439.258" y="669"/>
      <point x="404.951" y="638"/>
      <point x="384.588" y="562" type="curve" smooth="yes"/>
      <point x="338.769" y="391" type="line" smooth="yes"/>
      <point x="316.261" y="307"/>
      <point x="285.294" y="281"/>
      <point x="185.935" y="261" type="curve"/>
      <point x="274.576" y="241"/>
      <point x="291.609" y="215"/>
      <point x="269.102" y="131" type="curve" smooth="yes"/>
      <point x="223.282" y="-40" type="line" smooth="yes"/>
      <point x="202.918" y="-116"/>
      <point x="221.611" y="-147"/>
      <point x="296.324" y="-163" type="curve"/>
      <point x="293.109" y="-175" type="line"/>
      <point x="195.377" y="-174"/>
      <point x="154.057" y="-164"/>
      <point x="131.023" y="-138" type="curve" smooth="yes"/>
      <point x="109.918" y="-116"/>
      <point x="106.76" y="-83"/>
    </contour>
  </outline>
</glyph>
<glyph name="bar" format="2">
  <advance width="220"/>
  <unicode hex="007C"/>
  <outline>
    <contour>
      <point x="60.9092" y="-19" type="line"/>
      <point x="251.153" y="691" type="line"/>
      <point x="339.153" y="691" type="line"/>
      <point x="148.909" y="-19" type="line"/>
    </contour>
  </outline>
</glyph>
<glyph name="braceright" format="2">
  <advance width="394"/>
  <unicode hex="007D"/>
  <outline>
    <contour>
      <point x="149.55" y="-39" type="curve" smooth="yes"/>
      <point x="195.369" y="132" type="line" smooth="yes"/>
      <point x="217.609" y="215"/>
      <point x="249.844" y="242"/>
      <point x="348.203" y="262" type="curve"/>
      <point x="259.562" y="282"/>
      <point x="242.528" y="308"/>
      <point x="265.036" y="392" type="curve" smooth="yes"/>
      <point x="310.855" y="563" type="line" smooth="yes"/>
      <point x="330.951" y="638"/>
      <point x="312.526" y="670"/>
      <point x="237.813" y="686" type="curve"/>
      <point x="241.028" y="698" type="line"/>
      <point x="330.761" y="697"/>
      <point x="367.885" y="690"/>
      <point x="394.258" y="669" type="curve" smooth="yes"/>
      <point x="422.631" y="648"/>
      <point x="428.985" y="612"/>
      <point x="414.248" y="557" type="curve" smooth="yes"/>
      <point x="366.285" y="378" type="line" smooth="yes"/>
      <point x="347.261" y="307"/>
      <point x="362.83" y="283"/>
      <point x="442.203" y="262" type="curve"/>
      <point x="351.576" y="241"/>
      <point x="323.145" y="217"/>
      <point x="304.12" y="146" type="curve" smooth="yes"/>
      <point x="256.157" y="-33" type="line" smooth="yes"/>
      <point x="241.421" y="-88"/>
      <point x="215.506" y="-125"/>
      <point x="175.88" y="-146" type="curve" smooth="yes"/>
      <point x="138.253" y="-167"/>
      <point x="96.377" y="-174"/>
      <point x="7.10938" y="-175" type="curve"/>
      <point x="10.3242" y="-163" type="line"/>
      <point x="94.8799" y="-146"/>
      <point x="129.186" y="-115"/>
    </contour>
  </outline>
</glyph>
<glyph name="uni0591" format="2">
  <advance width="0"/>
  <unicode hex="0591"/>
  <outline>
    <contour>
      <point x="-59.082" y="-116" type="curve"/>
      <point x="-44.0771" y="-60" type="line" smooth="yes"/>
      <point x="-41.9336" y="-52"/>
      <point x="-33.0576" y="-45"/>
      <point x="-24.0576" y="-45" type="curve" smooth="yes"/>
      <point x="-0.0576172" y="-45" type="line" smooth="yes"/>
      <point x="8.94238" y="-45"/>
      <point x="14.0664" y="-52"/>
      <point x="11.9229" y="-60" type="curve" smooth="yes"/>
      <point x="-3.08203" y="-116" type="line"/>
      <point x="23.5781" y="-121"/>
      <point x="53.6836" y="-143"/>
      <point x="45.1094" y="-175" type="curve" smooth="yes"/>
      <point x="33.0508" y="-220" type="line" smooth="yes"/>
      <point x="30.9072" y="-228"/>
      <point x="23.0322" y="-235"/>
      <point x="15.0322" y="-235" type="curve" smooth="yes"/>
      <point x="-10.9678" y="-235" type="line" smooth="yes"/>
      <point x="-18.9678" y="-235"/>
      <point x="-23.0928" y="-228"/>
      <point x="-20.9492" y="-220" type="curve" smooth="yes"/>
      <point x="-9.69531" y="-178" type="line" smooth="yes"/>
      <point x="-4.06836" y="-157"/>
      <point x="-16.5127" y="-140"/>
      <point x="-37.5127" y="-140" type="curve" smooth="yes"/>
      <point x="-58.5127" y="-140"/>
      <point x="-80.0684" y="-157"/>
      <point x="-85.6953" y="-178" type="curve" smooth="yes"/>
      <point x="-96.9492" y="-220" type="line" smooth="yes"/>
      <point x="-99.0928" y="-228"/>
      <point x="-106.968" y="-235"/>
      <point x="-114.968" y="-235" type="curve" smooth="yes"/>
      <point x="-140.968" y="-235" type="line" smooth="yes"/>
      <point x="-148.968" y="-235"/>
      <point x="-153.093" y="-228"/>
      <point x="-150.949" y="-220" type="curve" smooth="yes"/>
      <point x="-138.891" y="-175" type="line" smooth="yes"/>
      <point x="-130.585" y="-144"/>
      <point x="-92.1543" y="-120"/>
    </contour>
  </outline>
</glyph>
<glyph name="uni0594" format="2">
  <advance width="0"/>
  <unicode hex="0594"/>
  <outline>
    <contour>
      <point x="198.282" y="740" type="curve" smooth="yes"/>
      <point x="219.282" y="740"/>
      <point x="231.728" y="723"/>
      <point x="226.101" y="702" type="curve" smooth="yes"/>
      <point x="220.741" y="682"/>
      <point x="199.187" y="665"/>
      <point x="178.187" y="665" type="curve" smooth="yes"/>
      <point x="157.187" y="665"/>
      <point x="144.741" y="682"/>
      <point x="150.101" y="702" type="curve" smooth="yes"/>
      <point x="155.728" y="723"/>
      <point x="177.282" y="740"/>
    </contour>
    <contour>
      <point x="229.097" y="855" type="curve" smooth="yes"/>
      <point x="250.097" y="855"/>
      <point x="262.541" y="838"/>
      <point x="257.183" y="818" type="curve" smooth="yes"/>
      <point x="251.556" y="797"/>
      <point x="230" y="780"/>
      <point x="209" y="780" type="curve" smooth="yes"/>
      <point x="188" y="780"/>
      <point x="175.556" y="797"/>
      <point x="181.183" y="818" type="curve" smooth="yes"/>
      <point x="186.541" y="838"/>
      <point x="208.097" y="855"/>
    </contour>
  </outline>
</glyph>
<glyph name="uni0595" format="2">
  <advance width="0"/>
  <unicode hex="0595"/>
  <outline>
    <contour>
      <point x="130.99" y="668" type="curve" smooth="yes"/>
      <point x="106.99" y="668" type="line" smooth="yes"/>
      <point x="97.9902" y="668"/>
      <point x="92.5977" y="674"/>
      <point x="94.7412" y="682" type="curve" smooth="yes"/>
      <point x="136.541" y="838" type="line" smooth="yes"/>
      <point x="138.685" y="846"/>
      <point x="147.293" y="852"/>
      <point x="156.293" y="852" type="curve" smooth="yes"/>
      <point x="180.293" y="852" type="line" smooth="yes"/>
      <point x="189.293" y="852"/>
      <point x="194.685" y="846"/>
      <point x="192.541" y="838" type="curve" smooth="yes"/>
      <point x="150.741" y="682" type="line" smooth="yes"/>
      <point x="148.598" y="674"/>
      <point x="139.99" y="668"/>
    </contour>
    <contour>
      <point x="248.282" y="740" type="curve" smooth="yes"/>
      <point x="269.282" y="740"/>
      <point x="281.728" y="723"/>
      <point x="276.101" y="702" type="curve" smooth="yes"/>
      <point x="270.741" y="682"/>
      <point x="249.187" y="665"/>
      <point x="228.187" y="665" type="curve" smooth="yes"/>
      <point x="207.187" y="665"/>
      <point x="194.741" y="682"/>
      <point x="200.101" y="702" type="curve" smooth="yes"/>
      <point x="205.728" y="723"/>
      <point x="227.282" y="740"/>
    </contour>
    <contour>
      <point x="279.097" y="855" type="curve" smooth="yes"/>
      <point x="300.097" y="855"/>
      <point x="312.541" y="838"/>
      <point x="307.183" y="818" type="curve" smooth="yes"/>
      <point x="301.556" y="797"/>
      <point x="280" y="780"/>
      <point x="259" y="780" type="curve" smooth="yes"/>
      <point x="238" y="780"/>
      <point x="225.556" y="797"/>
      <point x="231.183" y="818" type="curve" smooth="yes"/>
      <point x="236.541" y="838"/>
      <point x="258.097" y="855"/>
    </contour>
  </outline>
</glyph>
<glyph name="uni059E" format="2">
  <advance width="0"/>
  <unicode hex="059E"/>
  <outline>
    <contour>
      <point x="201.401" y="677" type="curve" smooth="yes"/>
      <point x="198.526" y="670"/>
      <point x="191.187" y="665"/>
      <point x="184.187" y="665" type="curve" smooth="yes"/>
      <point x="176.187" y="665"/>
      <point x="171.794" y="671"/>
      <point x="173.938" y="679" type="curve" smooth="yes"/>
      <point x="196.569" y="756"/>
      <point x="247.273" y="837"/>
      <point x="316.527" y="879" type="curve" smooth="yes"/>
      <point x="322.6" y="883"/>
      <point x="329.135" y="885"/>
      <point x="335.135" y="885" type="curve" smooth="yes"/>
      <point x="352.135" y="885"/>
      <point x="361.651" y="872"/>
      <point x="357.097" y="855" type="curve" smooth="yes"/>
      <point x="354.417" y="845"/>
      <point x="346.737" y="835"/>
      <point x="337.666" y="831" type="curve" smooth="yes"/>
      <point x="277.432" y="804"/>
      <point x="243.125" y="773"/>
    </contour>
    <contour>
      <point x="81.4014" y="677" type="curve" smooth="yes"/>
      <point x="78.5264" y="670"/>
      <point x="71.1865" y="665"/>
      <point x="64.1865" y="665" type="curve" smooth="yes"/>
      <point x="56.1865" y="665"/>
      <point x="51.7939" y="671"/>
      <point x="53.9375" y="679" type="curve" smooth="yes"/>
      <point x="76.5693" y="756"/>
      <point x="127.273" y="837"/>
      <point x="196.527" y="879" type="curve" smooth="yes"/>
      <point x="202.6" y="883"/>
      <point x="209.135" y="885"/>
      <point x="215.135" y="885" type="curve" smooth="yes"/>
      <point x="232.135" y="885"/>
      <point x="241.651" y="872"/>
      <point x="237.097" y="855" type="curve" smooth="yes"/>
      <point x="234.417" y="845"/>
      <point x="226.737" y="835"/>
      <point x="217.666" y="831" type="curve" smooth="yes"/>
      <point x="157.432" y="804"/>
      <point x="123.125" y="773"/>
    </contour>
  </outline>
</glyph>
<glyph name="uni05A0" format="2">
  <advance width="0"/>
  <unicode hex="05A0"/>
  <outline>
    <contour>
      <point x="213.346" y="841" type="curve" smooth="yes"/>
      <point x="185.666" y="831"/>
      <point x="165.163" y="803"/>
      <point x="167.465" y="778" type="curve" smooth="yes"/>
      <point x="169.766" y="753"/>
      <point x="194.282" y="740"/>
      <point x="222.694" y="749" type="curve" smooth="yes"/>
      <point x="250.105" y="758"/>
      <point x="270.608" y="786"/>
      <point x="268.307" y="811" type="curve" smooth="yes"/>
      <point x="266.273" y="837"/>
      <point x="241.757" y="850"/>
    </contour>
    <contour>
      <point x="134.479" y="737" type="line" smooth="yes"/>
      <point x="140.354" y="744"/>
      <point x="140.426" y="748"/>
      <point x="137.838" y="757" type="curve" smooth="yes"/>
      <point x="121.896" y="802"/>
      <point x="158.973" y="862"/>
      <point x="214.063" y="881" type="curve" smooth="yes"/>
      <point x="262.351" y="897"/>
      <point x="305.188" y="874"/>
      <point x="309.397" y="830" type="curve" smooth="yes"/>
      <point x="313.608" y="786"/>
      <point x="277.479" y="737"/>
      <point x="229.191" y="721" type="curve" smooth="yes"/>
      <point x="211.584" y="715"/>
      <point x="194.584" y="715"/>
      <point x="179.655" y="719" type="curve" smooth="yes"/>
      <point x="172.924" y="720"/>
      <point x="168.388" y="718"/>
      <point x="165.048" y="713" type="curve" smooth="yes"/>
      <point x="141.598" y="674" type="line" smooth="yes"/>
      <point x="136.454" y="666"/>
      <point x="130.918" y="664"/>
      <point x="122.722" y="667" type="curve" smooth="yes"/>
      <point x="97.4014" y="677" type="line" smooth="yes"/>
      <point x="90.2051" y="680"/>
      <point x="89.8135" y="686"/>
      <point x="96.6885" y="693" type="curve" smooth="yes"/>
    </contour>
  </outline>
</glyph>
<glyph name="uni05A4" format="2">
  <advance width="0"/>
  <unicode hex="05A4"/>
  <outline>
    <contour>
      <point x="69.9951" y="-56" type="line" smooth="yes"/>
      <point x="72.2627" y="-55"/>
      <point x="74.2627" y="-55"/>
      <point x="76.2627" y="-55" type="curve" smooth="yes"/>
      <point x="86.2627" y="-55"/>
      <point x="92.1191" y="-63"/>
      <point x="89.708" y="-72" type="curve" smooth="yes"/>
      <point x="87.5645" y="-80"/>
      <point x="80.9561" y="-86"/>
      <point x="74.1523" y="-89" type="curve" smooth="yes"/>
      <point x="-48.1729" y="-135" type="line"/>
      <point x="47.0371" y="-179" type="line" smooth="yes"/>
      <point x="55.9648" y="-183"/>
      <point x="58.3574" y="-189"/>
      <point x="55.4102" y="-200" type="curve" smooth="yes"/>
      <point x="48.7119" y="-225" type="line" smooth="yes"/>
      <point x="46.2998" y="-234"/>
      <point x="39.4961" y="-237"/>
      <point x="32.2998" y="-234" type="curve" smooth="yes"/>
      <point x="-139.996" y="-153" type="line" smooth="yes"/>
      <point x="-151.656" y="-148"/>
      <point x="-148.977" y="-138"/>
      <point x="-134.638" y="-133" type="curve" smooth="yes"/>
    </contour>
  </outline>
</glyph>
<glyph name="uni05A5" format="2">
  <advance width="0"/>
  <unicode hex="05A5"/>
  <outline>
    <contour>
      <point x="24.7266" y="-57" type="curve" smooth="yes"/>
      <point x="27.6025" y="-50"/>
      <point x="34.9424" y="-45"/>
      <point x="41.9424" y="-45" type="curve" smooth="yes"/>
      <point x="49.9424" y="-45"/>
      <point x="54.335" y="-51"/>
      <point x="52.1914" y="-59" type="curve" smooth="yes"/>
      <point x="29.5586" y="-136"/>
      <point x="-21.1445" y="-217"/>
      <point x="-90.3984" y="-259" type="curve" smooth="yes"/>
      <point x="-96.4707" y="-263"/>
      <point x="-103.007" y="-265"/>
      <point x="-109.007" y="-265" type="curve" smooth="yes"/>
      <point x="-126.007" y="-265"/>
      <point x="-135.523" y="-252"/>
      <point x="-130.968" y="-235" type="curve" smooth="yes"/>
      <point x="-128.289" y="-225"/>
      <point x="-120.609" y="-215"/>
      <point x="-111.537" y="-211" type="curve" smooth="yes"/>
      <point x="-51.3027" y="-184"/>
      <point x="-16.9961" y="-153"/>
    </contour>
  </outline>
</glyph>
<glyph name="uni05A6" format="2">
  <advance width="0"/>
  <unicode hex="05A6"/>
  <outline>
    <contour>
      <point x="-35.2734" y="-57" type="curve" smooth="yes"/>
      <point x="-32.3975" y="-50"/>
      <point x="-25.0576" y="-45"/>
      <point x="-18.0576" y="-45" type="curve" smooth="yes"/>
      <point x="-10.0576" y="-45"/>
      <point x="-5.66504" y="-51"/>
      <point x="-7.80859" y="-59" type="curve" smooth="yes"/>
      <point x="-30.4414" y="-136"/>
      <point x="-81.1445" y="-217"/>
      <point x="-150.398" y="-259" type="curve" smooth="yes"/>
      <point x="-156.471" y="-263"/>
      <point x="-163.007" y="-265"/>
      <point x="-169.007" y="-265" type="curve" smooth="yes"/>
      <point x="-186.007" y="-265"/>
      <point x="-195.523" y="-252"/>
      <point x="-190.968" y="-235" type="curve" smooth="yes"/>
      <point x="-188.289" y="-225"/>
      <point x="-180.609" y="-215"/>
      <point x="-171.537" y="-211" type="curve" smooth="yes"/>
      <point x="-111.303" y="-184"/>
      <point x="-76.9961" y="-153"/>
    </contour>
    <contour>
      <point x="84.7266" y="-57" type="curve" smooth="yes"/>
      <point x="87.6025" y="-50"/>
      <point x="94.9424" y="-45"/>
      <point x="101.942" y="-45" type="curve" smooth="yes"/>
      <point x="109.942" y="-45"/>
      <point x="114.335" y="-51"/>
      <point x="112.191" y="-59" type="curve" smooth="yes"/>
      <point x="89.5586" y="-136"/>
      <point x="38.8555" y="-217"/>
      <point x="-30.3984" y="-259" type="curve" smooth="yes"/>
      <point x="-36.4707" y="-263"/>
      <point x="-43.0068" y="-265"/>
      <point x="-49.0068" y="-265" type="curve" smooth="yes"/>
      <point x="-66.0068" y="-265"/>
      <point x="-75.5234" y="-252"/>
      <point x="-70.9678" y="-235" type="curve" smooth="yes"/>
      <point x="-68.2881" y="-225"/>
      <point x="-60.6094" y="-215"/>
      <point x="-51.5371" y="-211" type="curve" smooth="yes"/>
      <point x="8.69727" y="-184"/>
      <point x="43.0039" y="-153"/>
    </contour>
  </outline>
</glyph>
<glyph name="uni05A9" format="2">
  <advance width="0"/>
  <unicode hex="05A9"/>
  <outline>
    <contour>
      <point x="237.346" y="841" type="curve" smooth="yes"/>
      <point x="213.757" y="850"/>
      <point x="182.273" y="837"/>
      <point x="166.307" y="811" type="curve" smooth="yes"/>
      <point x="150.608" y="786"/>
      <point x="156.105" y="758"/>
      <point x="178.694" y="749" type="curve" smooth="yes"/>
      <point x="202.282" y="740"/>
      <point x="233.766" y="753"/>
      <point x="249.465" y="778" type="curve" smooth="yes"/>
      <point x="265.163" y="803"/>
      <point x="259.666" y="831"/>
    </contour>
    <contour>
      <point x="260.479" y="737" type="curve" smooth="yes"/>
      <point x="274.688" y="693" type="line" smooth="yes"/>
      <point x="277.813" y="686"/>
      <point x="274.205" y="680"/>
      <point x="265.401" y="677" type="curve" smooth="yes"/>
      <point x="234.722" y="667" type="line" smooth="yes"/>
      <point x="224.918" y="664"/>
      <point x="220.454" y="666"/>
      <point x="219.598" y="674" type="curve" smooth="yes"/>
      <point x="217.048" y="713" type="line" smooth="yes"/>
      <point x="216.388" y="718"/>
      <point x="212.924" y="720"/>
      <point x="205.655" y="719" type="curve" smooth="yes"/>
      <point x="188.584" y="715"/>
      <point x="171.584" y="715"/>
      <point x="157.191" y="721" type="curve" smooth="yes"/>
      <point x="117.479" y="737"/>
      <point x="107.608" y="786"/>
      <point x="135.397" y="830" type="curve" smooth="yes"/>
      <point x="163.188" y="874"/>
      <point x="218.351" y="897"/>
      <point x="258.063" y="881" type="curve" smooth="yes"/>
      <point x="302.973" y="862"/>
      <point x="307.896" y="802"/>
      <point x="267.838" y="757" type="curve" smooth="yes"/>
      <point x="260.426" y="748"/>
      <point x="258.354" y="744"/>
    </contour>
  </outline>
</glyph>
<glyph name="uni05AD" format="2">
  <advance width="0"/>
  <unicode hex="05AD"/>
  <outline>
    <contour>
      <point x="-55.2734" y="-57" type="curve" smooth="yes"/>
      <point x="-64.9961" y="-153"/>
      <point x="-47.3027" y="-184"/>
      <point x="-1.53711" y="-211" type="curve" smooth="yes"/>
      <point x="5.39062" y="-215"/>
      <point x="7.71191" y="-225"/>
      <point x="5.03223" y="-235" type="curve" smooth="yes"/>
      <point x="0.476562" y="-252"/>
      <point x="-16.0068" y="-265"/>
      <point x="-33.0068" y="-265" type="curve" smooth="yes"/>
      <point x="-39.0068" y="-265"/>
      <point x="-44.4707" y="-263"/>
      <point x="-48.3984" y="-259" type="curve" smooth="yes"/>
      <point x="-95.1445" y="-217"/>
      <point x="-102.441" y="-136"/>
      <point x="-83.8086" y="-59" type="curve" smooth="yes"/>
      <point x="-81.665" y="-51"/>
      <point x="-74.0576" y="-45"/>
      <point x="-66.0576" y="-45" type="curve" smooth="yes"/>
      <point x="-59.0576" y="-45"/>
      <point x="-54.3975" y="-50"/>
    </contour>
  </outline>
</glyph>
<glyph name="uni05AE" format="2">
  <advance width="0"/>
  <unicode hex="05AE"/>
  <outline>
    <contour>
      <point x="140.445" y="763" type="line" smooth="yes"/>
      <point x="136.785" y="768"/>
      <point x="130.589" y="771"/>
      <point x="122.589" y="771" type="curve" smooth="yes"/>
      <point x="106.589" y="771"/>
      <point x="90.1055" y="758"/>
      <point x="85.8184" y="742" type="curve" smooth="yes"/>
      <point x="79.1191" y="717"/>
      <point x="94.7607" y="697"/>
      <point x="118.761" y="697" type="curve" smooth="yes"/>
      <point x="127.761" y="697"/>
      <point x="132.885" y="690"/>
      <point x="130.474" y="681" type="curve" smooth="yes"/>
      <point x="128.062" y="672"/>
      <point x="119.187" y="665"/>
      <point x="110.187" y="665" type="curve" smooth="yes"/>
      <point x="68.1865" y="665"/>
      <point x="42.5645" y="700"/>
      <point x="53.8184" y="742" type="curve" smooth="yes"/>
      <point x="65.3398" y="785"/>
      <point x="109.719" y="820"/>
      <point x="151.719" y="820" type="curve" smooth="yes"/>
      <point x="173.719" y="820"/>
      <point x="190.307" y="811"/>
      <point x="200.556" y="797" type="curve" smooth="yes"/>
      <point x="257.191" y="721" type="line" smooth="yes"/>
      <point x="260.852" y="716"/>
      <point x="267.048" y="713"/>
      <point x="275.048" y="713" type="curve" smooth="yes"/>
      <point x="291.048" y="713"/>
      <point x="307.531" y="726"/>
      <point x="311.818" y="742" type="curve" smooth="yes"/>
      <point x="318.517" y="767"/>
      <point x="302.876" y="787"/>
      <point x="278.876" y="787" type="curve" smooth="yes"/>
      <point x="269.876" y="787"/>
      <point x="265.02" y="795"/>
      <point x="267.163" y="803" type="curve" smooth="yes"/>
      <point x="269.575" y="812"/>
      <point x="278.719" y="820"/>
      <point x="287.719" y="820" type="curve" smooth="yes"/>
      <point x="329.719" y="820"/>
      <point x="355.34" y="785"/>
      <point x="343.818" y="742" type="curve" smooth="yes"/>
      <point x="332.564" y="700"/>
      <point x="288.187" y="665"/>
      <point x="246.187" y="665" type="curve" smooth="yes"/>
      <point x="224.187" y="665"/>
      <point x="207.598" y="674"/>
      <point x="197.349" y="688" type="curve" smooth="yes"/>
    </contour>
  </outline>
</glyph>
<glyph name="afii57799" format="2">
  <advance width="0"/>
  <unicode hex="05B0"/>
  <outline>
    <contour>
      <point x="-42.8721" y="-160" type="curve" smooth="yes"/>
      <point x="-21.8721" y="-160"/>
      <point x="-9.42676" y="-177"/>
      <point x="-15.0537" y="-198" type="curve" smooth="yes"/>
      <point x="-20.4131" y="-218"/>
      <point x="-41.9678" y="-235"/>
      <point x="-62.9678" y="-235" type="curve" smooth="yes"/>
      <point x="-83.9678" y="-235"/>
      <point x="-96.4131" y="-218"/>
      <point x="-91.0537" y="-198" type="curve" smooth="yes"/>
      <point x="-85.4268" y="-177"/>
      <point x="-63.8721" y="-160"/>
    </contour>
    <contour>
      <point x="-12.0576" y="-45" type="curve" smooth="yes"/>
      <point x="8.94238" y="-45"/>
      <point x="21.3867" y="-62"/>
      <point x="16.0283" y="-82" type="curve" smooth="yes"/>
      <point x="10.4014" y="-103"/>
      <point x="-11.1543" y="-120"/>
      <point x="-32.1543" y="-120" type="curve" smooth="yes"/>
      <point x="-53.1543" y="-120"/>
      <point x="-65.5986" y="-103"/>
      <point x="-59.9717" y="-82" type="curve" smooth="yes"/>
      <point x="-54.6133" y="-62"/>
      <point x="-33.0576" y="-45"/>
    </contour>
  </outline>
</glyph>
<glyph name="afii57801" format="2">
  <advance width="0"/>
  <unicode hex="05B1"/>
  <outline>
    <contour>
      <point x="-144.058" y="-45" type="curve" smooth="yes"/>
      <point x="-123.058" y="-45"/>
      <point x="-110.613" y="-62"/>
      <point x="-115.972" y="-82" type="curve" smooth="yes"/>
      <point x="-121.599" y="-103"/>
      <point x="-143.154" y="-120"/>
      <point x="-164.154" y="-120" type="curve" smooth="yes"/>
      <point x="-185.154" y="-120"/>
      <point x="-197.599" y="-103"/>
      <point x="-191.972" y="-82" type="curve" smooth="yes"/>
      <point x="-186.613" y="-62"/>
      <point x="-165.058" y="-45"/>
    </contour>
    <contour>
      <point x="-107.872" y="-160" type="curve" smooth="yes"/>
      <point x="-86.8721" y="-160"/>
      <point x="-75.4268" y="-177"/>
      <point x="-81.0537" y="-198" type="curve" smooth="yes"/>
      <point x="-86.4131" y="-218"/>
      <point x="-106.968" y="-235"/>
      <point x="-127.968" y="-235" type="curve" smooth="yes"/>
      <point x="-148.968" y="-235"/>
      <point x="-160.413" y="-218"/>
      <point x="-155.054" y="-198" type="curve" smooth="yes"/>
      <point x="-149.427" y="-177"/>
      <point x="-128.872" y="-160"/>
    </contour>
    <contour>
      <point x="-10.0576" y="-45" type="curve" smooth="yes"/>
      <point x="10.9424" y="-45"/>
      <point x="23.3867" y="-62"/>
      <point x="18.0283" y="-82" type="curve" smooth="yes"/>
      <point x="12.4014" y="-103"/>
      <point x="-9.1543" y="-120"/>
      <point x="-30.1543" y="-120" type="curve" smooth="yes"/>
      <point x="-51.1543" y="-120"/>
      <point x="-63.5986" y="-103"/>
      <point x="-57.9717" y="-82" type="curve" smooth="yes"/>
      <point x="-52.6133" y="-62"/>
      <point x="-31.0576" y="-45"/>
    </contour>
    <contour>
      <point x="89.1279" y="-160" type="curve" smooth="yes"/>
      <point x="110.128" y="-160"/>
      <point x="122.573" y="-177"/>
      <point x="116.946" y="-198" type="curve" smooth="yes"/>
      <point x="111.587" y="-218"/>
      <point x="90.0322" y="-235"/>
      <point x="69.0322" y="-235" type="curve" smooth="yes"/>
      <point x="48.0322" y="-235"/>
      <point x="35.5869" y="-218"/>
      <point x="40.9463" y="-198" type="curve" smooth="yes"/>
      <point x="46.5732" y="-177"/>
      <point x="68.1279" y="-160"/>
    </contour>
    <contour>
      <point x="119.942" y="-45" type="curve" smooth="yes"/>
      <point x="140.942" y="-45"/>
      <point x="153.387" y="-62"/>
      <point x="148.028" y="-82" type="curve" smooth="yes"/>
      <point x="142.401" y="-103"/>
      <point x="120.846" y="-120"/>
      <point x="99.8457" y="-120" type="curve" smooth="yes"/>
      <point x="78.8457" y="-120"/>
      <point x="66.4014" y="-103"/>
      <point x="72.0283" y="-82" type="curve" smooth="yes"/>
      <point x="77.3867" y="-62"/>
      <point x="98.9424" y="-45"/>
    </contour>
  </outline>
</glyph>
<glyph name="afii57793" format="2">
  <advance width="0"/>
  <unicode hex="05B4"/>
  <outline>
    <contour>
      <point x="-12.0576" y="-45" type="curve" smooth="yes"/>
      <point x="8.94238" y="-45"/>
      <point x="21.3867" y="-62"/>
      <point x="16.0283" y="-82" type="curve" smooth="yes"/>
      <point x="10.4014" y="-103"/>
      <point x="-11.1543" y="-120"/>
      <point x="-32.1543" y="-120" type="curve" smooth="yes"/>
      <point x="-53.1543" y="-120"/>
      <point x="-65.5986" y="-103"/>
      <point x="-59.9717" y="-82" type="curve" smooth="yes"/>
      <point x="-54.6133" y="-62"/>
      <point x="-33.0576" y="-45"/>
    </contour>
  </outline>
</glyph>
<glyph name="afii57797" format="2">
  <advance width="0"/>
  <unicode hex="05B8"/>
  <outline>
    <contour>
      <point x="-18.3555" y="-173" type="curve"/>
      <point x="-18.5488" y="-173.31" type="line"/>
      <point x="-14.1562" y="-179.31"/>
      <point x="-12.5684" y="-188.31"/>
      <point x="-15.2471" y="-198.31" type="curve" smooth="yes"/>
      <point x="-20.6064" y="-218.31"/>
      <point x="-42.1611" y="-235.31"/>
      <point x="-63.1611" y="-235.31" type="curve" smooth="yes"/>
      <point x="-84.1611" y="-235.31"/>
      <point x="-96.6064" y="-218.31"/>
      <point x="-91.2471" y="-198.31" type="curve" smooth="yes"/>
      <point x="-88.5684" y="-188.31"/>
      <point x="-82.1562" y="-179.31"/>
      <point x="-74.2803" y="-172.31" type="curve" smooth="yes"/>
      <point x="-60.0654" y="-160.31"/>
      <point x="-57.582" y="-147.31"/>
      <point x="-55.1709" y="-138.31" type="curve" smooth="yes"/>
      <point x="-49.5439" y="-117.31"/>
      <point x="-59.668" y="-110.31"/>
      <point x="-85.668" y="-110.31" type="curve" smooth="yes"/>
      <point x="-129.668" y="-110.31" type="line" smooth="yes"/>
      <point x="-137.668" y="-110.31"/>
      <point x="-142.792" y="-103.31"/>
      <point x="-140.648" y="-95.3096" type="curve" smooth="yes"/>
      <point x="-133.949" y="-70.3096" type="line" smooth="yes"/>
      <point x="-131.806" y="-62.3096"/>
      <point x="-122.93" y="-55.3096"/>
      <point x="-114.93" y="-55.3096" type="curve" smooth="yes"/>
      <point x="85.0693" y="-55.3096" type="line" smooth="yes"/>
      <point x="93.0703" y="-55.3096"/>
      <point x="98.1943" y="-62.3096"/>
      <point x="96.0508" y="-70.3096" type="curve" smooth="yes"/>
      <point x="89.3516" y="-95.3096" type="line" smooth="yes"/>
      <point x="87.208" y="-103.31"/>
      <point x="78.333" y="-110.31"/>
      <point x="70.332" y="-110.31" type="curve" smooth="yes"/>
      <point x="26.332" y="-110.31" type="line" smooth="yes"/>
      <point x="-1.66797" y="-110.31"/>
      <point x="-13.5439" y="-117.31"/>
      <point x="-19.1709" y="-138.31" type="curve" smooth="yes"/>
      <point x="-21.582" y="-147.31"/>
      <point x="-26.0654" y="-160.31"/>
    </contour>
  </outline>
</glyph>
<glyph name="afii57796" format="2">
  <advance width="0"/>
  <unicode hex="05BB"/>
  <outline>
    <contour>
      <point x="62.1279" y="-160" type="curve" smooth="yes"/>
      <point x="83.1279" y="-160"/>
      <point x="94.5732" y="-177"/>
      <point x="88.9463" y="-198" type="curve" smooth="yes"/>
      <point x="83.5869" y="-218"/>
      <point x="63.0322" y="-235"/>
      <point x="42.0322" y="-235" type="curve" smooth="yes"/>
      <point x="21.0322" y="-235"/>
      <point x="9.58691" y="-218"/>
      <point x="14.9463" y="-198" type="curve" smooth="yes"/>
      <point x="20.5732" y="-177"/>
      <point x="41.1279" y="-160"/>
    </contour>
    <contour>
      <point x="-75.5127" y="-140" type="curve" smooth="yes"/>
      <point x="-69.8857" y="-119"/>
      <point x="-48.3311" y="-102"/>
      <point x="-27.3311" y="-102" type="curve" smooth="yes"/>
      <point x="-6.33105" y="-102"/>
      <point x="6.11426" y="-119"/>
      <point x="0.487305" y="-140" type="curve" smooth="yes"/>
      <point x="-5.13965" y="-161"/>
      <point x="-26.6953" y="-178"/>
      <point x="-47.6953" y="-178" type="curve" smooth="yes"/>
      <point x="-68.6953" y="-178"/>
      <point x="-81.1396" y="-161"/>
    </contour>
    <contour>
      <point x="-163.972" y="-82" type="curve" smooth="yes"/>
      <point x="-158.613" y="-62"/>
      <point x="-138.058" y="-45"/>
      <point x="-117.058" y="-45" type="curve" smooth="yes"/>
      <point x="-96.0576" y="-45"/>
      <point x="-84.6133" y="-62"/>
      <point x="-89.9717" y="-82" type="curve" smooth="yes"/>
      <point x="-95.5986" y="-103"/>
      <point x="-116.154" y="-120"/>
      <point x="-137.154" y="-120" type="curve" smooth="yes"/>
      <point x="-158.154" y="-120"/>
      <point x="-169.599" y="-103"/>
    </contour>
  </outline>
</glyph>
<glyph name="afii57841" format="2">
  <advance width="0"/>
  <unicode hex="05BF"/>
  <outline>
    <contour>
      <point x="85.957" y="694" type="line" smooth="yes"/>
      <point x="88.1006" y="702"/>
      <point x="96.9756" y="709"/>
      <point x="104.976" y="709" type="curve" smooth="yes"/>
      <point x="274.976" y="709" type="line" smooth="yes"/>
      <point x="282.976" y="709"/>
      <point x="288.101" y="702"/>
      <point x="285.957" y="694" type="curve" smooth="yes"/>
      <point x="279.258" y="669" type="line" smooth="yes"/>
      <point x="277.114" y="661"/>
      <point x="268.238" y="654"/>
      <point x="260.238" y="654" type="curve" smooth="yes"/>
      <point x="90.2383" y="654" type="line" smooth="yes"/>
      <point x="82.2383" y="654"/>
      <point x="77.1143" y="661"/>
      <point x="79.2578" y="669" type="curve" smooth="yes"/>
    </contour>
  </outline>
</glyph>
<glyph name="afii57842" format="2">
  <advance width="155"/>
  <unicode hex="05C0"/>
  <outline>
    <contour>
      <point x="60.9805" y="-15" type="line" smooth="yes"/>
      <point x="52.9805" y="-15"/>
      <point x="47.8564" y="-8"/>
      <point x="50" y="0" type="curve" smooth="yes"/>
      <point x="222.827" y="645" type="line" smooth="yes"/>
      <point x="224.971" y="653"/>
      <point x="233.847" y="660"/>
      <point x="241.847" y="660" type="curve" smooth="yes"/>
      <point x="266.847" y="660" type="line" smooth="yes"/>
      <point x="274.847" y="660"/>
      <point x="279.971" y="653"/>
      <point x="277.827" y="645" type="curve" smooth="yes"/>
      <point x="105" y="0" type="line" smooth="yes"/>
      <point x="102.856" y="-8"/>
      <point x="93.9805" y="-15"/>
      <point x="85.9805" y="-15" type="curve" smooth="yes"/>
    </contour>
  </outline>
</glyph>
<glyph name="uni05C4" format="2">
  <advance width="0"/>
  <unicode hex="05C4"/>
  <outline>
    <contour>
      <point x="192.924" y="720" type="curve" smooth="yes"/>
      <point x="213.924" y="720"/>
      <point x="226.368" y="703"/>
      <point x="220.741" y="682" type="curve" smooth="yes"/>
      <point x="215.383" y="662"/>
      <point x="193.827" y="645"/>
      <point x="172.827" y="645" type="curve" smooth="yes"/>
      <point x="151.827" y="645"/>
      <point x="139.383" y="662"/>
      <point x="144.741" y="682" type="curve" smooth="yes"/>
      <point x="150.368" y="703"/>
      <point x="171.924" y="720"/>
    </contour>
  </outline>
</glyph>
<glyph name="afii57665" format="2">
  <advance width="498"/>
  <unicode hex="05D1"/>
  <outline>
    <contour>
      <point x="519.872" y="160" type="line" smooth="yes"/>
      <point x="535.872" y="160"/>
      <point x="539.46" y="151"/>
      <point x="529.977" y="138" type="curve" smooth="yes"/>
      <point x="450.627" y="21" type="line" smooth="yes"/>
      <point x="441.876" y="7"/>
      <point x="430" y="0"/>
      <point x="414" y="0" type="curve" smooth="yes"/>
      <point x="40" y="0" type="line" smooth="yes"/>
      <point x="24" y="0"/>
      <point x="20.4111" y="9"/>
      <point x="28.8945" y="22" type="curve" smooth="yes"/>
      <point x="108.245" y="139" type="line" smooth="yes"/>
      <point x="117.996" y="153"/>
      <point x="128.872" y="160"/>
      <point x="144.872" y="160" type="curve" smooth="yes"/>
      <point x="445.872" y="160" type="line" smooth="yes"/>
      <point x="454.872" y="160"/>
      <point x="462.14" y="161"/>
      <point x="466.159" y="176" type="curve" smooth="yes"/>
      <point x="485.576" y="241"/>
      <point x="506.998" y="362"/>
      <point x="475.107" y="396" type="curve" smooth="yes"/>
      <point x="413.793" y="462"/>
      <point x="298.95" y="429"/>
      <point x="241.505" y="446" type="curve" smooth="yes"/>
      <point x="188.793" y="462"/>
      <point x="190.902" y="496"/>
      <point x="191.798" y="518" type="curve" smooth="yes"/>
      <point x="193.783" y="559"/>
      <point x="211.966" y="597"/>
      <point x="235.272" y="628" type="curve" smooth="yes"/>
      <point x="252.167" y="650"/>
      <point x="262.899" y="649"/>
      <point x="267.076" y="631" type="curve" smooth="yes"/>
      <point x="274.697" y="596"/>
      <point x="311.306" y="602"/>
      <point x="348.77" y="600" type="curve" smooth="yes"/>
      <point x="398.966" y="597"/>
      <point x="497.037" y="601"/>
      <point x="532.156" y="538" type="curve" smooth="yes"/>
      <point x="572.132" y="467"/>
      <point x="537.548" y="323"/>
      <point x="492.623" y="174" type="curve"/>
      <point x="492.623" y="174"/>
      <point x="489.872" y="160"/>
      <point x="503.872" y="160" type="curve" smooth="yes"/>
    </contour>
  </outline>
</glyph>
<glyph name="afii57667" format="2">
  <advance width="523"/>
  <unicode hex="05D3"/>
  <outline>
    <contour>
      <point x="333.77" y="600" type="curve" smooth="yes"/>
      <point x="577.77" y="600" type="line" smooth="yes"/>
      <point x="637.77" y="600"/>
      <point x="634.855" y="563"/>
      <point x="625.138" y="523" type="curve" smooth="yes"/>
      <point x="617.224" y="486"/>
      <point x="601.041" y="448"/>
      <point x="554.166" y="441" type="curve" smooth="yes"/>
      <point x="539.63" y="439"/>
      <point x="537.146" y="426"/>
      <point x="537.146" y="426" type="curve"/>
      <point x="531.017" y="377"/>
      <point x="511.27" y="210"/>
      <point x="502.532" y="155" type="curve" smooth="yes"/>
      <point x="499.638" y="133"/>
      <point x="485.632" y="77"/>
      <point x="442.359" y="20" type="curve" smooth="yes"/>
      <point x="415.445" y="-17"/>
      <point x="381.32" y="-10"/>
      <point x="391.699" y="25" type="curve" smooth="yes"/>
      <point x="506.146" y="426" type="line" smooth="yes"/>
      <point x="508.897" y="440"/>
      <point x="501.897" y="440"/>
      <point x="493.897" y="440" type="curve" smooth="yes"/>
      <point x="225.897" y="440" type="line" smooth="yes"/>
      <point x="180.897" y="440"/>
      <point x="169.831" y="492"/>
      <point x="171.726" y="514" type="curve" smooth="yes"/>
      <point x="173.836" y="548"/>
      <point x="195.966" y="597"/>
      <point x="220.272" y="628" type="curve" smooth="yes"/>
      <point x="236.167" y="650"/>
      <point x="247.899" y="649"/>
      <point x="251.076" y="631" type="curve" smooth="yes"/>
      <point x="259.697" y="596"/>
      <point x="295.77" y="600"/>
    </contour>
  </outline>
</glyph>
<glyph name="afii57668" format="2">
  <advance width="561"/>
  <unicode hex="05D4"/>
  <outline>
    <contour>
      <point x="342.77" y="600" type="curve" smooth="yes"/>
      <point x="613.27" y="600" type="line" smooth="yes"/>
      <point x="673.27" y="600"/>
      <point x="670.355" y="563"/>
      <point x="660.638" y="523" type="curve" smooth="yes"/>
      <point x="651.724" y="486"/>
      <point x="635.541" y="448"/>
      <point x="588.666" y="441" type="curve" smooth="yes"/>
      <point x="575.13" y="439"/>
      <point x="572.646" y="426"/>
      <point x="572.646" y="426" type="curve"/>
      <point x="566.517" y="377"/>
      <point x="558.77" y="210"/>
      <point x="550.032" y="155" type="curve" smooth="yes"/>
      <point x="547.138" y="133"/>
      <point x="533.132" y="77"/>
      <point x="489.859" y="20" type="curve" smooth="yes"/>
      <point x="462.945" y="-17"/>
      <point x="428.82" y="-10"/>
      <point x="439.199" y="25" type="curve" smooth="yes"/>
      <point x="540.646" y="426" type="line" smooth="yes"/>
      <point x="544.397" y="440"/>
      <point x="537.397" y="440"/>
      <point x="529.397" y="440" type="curve" smooth="yes"/>
      <point x="235.397" y="440" type="line" smooth="yes"/>
      <point x="189.397" y="440"/>
      <point x="178.331" y="492"/>
      <point x="180.226" y="514" type="curve" smooth="yes"/>
      <point x="182.336" y="548"/>
      <point x="205.466" y="597"/>
      <point x="228.772" y="628" type="curve" smooth="yes"/>
      <point x="245.667" y="650"/>
      <point x="256.399" y="649"/>
      <point x="260.576" y="631" type="curve" smooth="yes"/>
      <point x="268.197" y="596"/>
      <point x="304.27" y="600"/>
    </contour>
    <contour>
      <point x="54.7344" y="27" type="curve" smooth="yes"/>
      <point x="85.7783" y="113"/>
      <point x="96.123" y="174"/>
      <point x="122.54" y="239" type="curve" smooth="yes"/>
      <point x="136.918" y="274"/>
      <point x="160.957" y="304"/>
      <point x="185.583" y="325" type="curve" smooth="yes"/>
      <point x="220.622" y="355"/>
      <point x="227.655" y="329"/>
      <point x="217.296" y="309" type="curve" smooth="yes"/>
      <point x="204.865" y="285"/>
      <point x="200.898" y="259"/>
      <point x="194.86" y="229" type="curve" smooth="yes"/>
      <point x="178.908" y="162"/>
      <point x="160.831" y="102"/>
      <point x="102.467" y="26" type="curve" smooth="yes"/>
      <point x="68.6768" y="-18"/>
      <point x="40.749" y="-14"/>
    </contour>
  </outline>
</glyph>
<glyph name="afii57670" format="2">
  <advance width="291"/>
  <unicode hex="05D6"/>
  <outline>
    <contour>
      <point x="177.241" y="292" type="curve" smooth="yes"/>
      <point x="197.906" y="343"/>
      <point x="213.802" y="365"/>
      <point x="234.787" y="406" type="curve" smooth="yes"/>
      <point x="244.61" y="424"/>
      <point x="241.826" y="436"/>
      <point x="230.63" y="439" type="curve" smooth="yes"/>
      <point x="212.97" y="444"/>
      <point x="198.113" y="452"/>
      <point x="188.061" y="463" type="curve" smooth="yes"/>
      <point x="177.74" y="473"/>
      <point x="172.759" y="488"/>
      <point x="171.314" y="505" type="curve" smooth="yes"/>
      <point x="171.138" y="523"/>
      <point x="175.496" y="543"/>
      <point x="180.516" y="558" type="curve" smooth="yes"/>
      <point x="187.679" y="581"/>
      <point x="203.646" y="607"/>
      <point x="213.593" y="618" type="curve" smooth="yes"/>
      <point x="242.167" y="650"/>
      <point x="252.238" y="654"/>
      <point x="270.933" y="623" type="curve" smooth="yes"/>
      <point x="277.449" y="610"/>
      <point x="306.306" y="602"/>
      <point x="322.77" y="600" type="curve" smooth="yes"/>
      <point x="362.43" y="595"/>
      <point x="382.875" y="578"/>
      <point x="392.712" y="555" type="curve" smooth="yes"/>
      <point x="400.621" y="536"/>
      <point x="394.438" y="498"/>
      <point x="380.597" y="465" type="curve" smooth="yes"/>
      <point x="363.61" y="424"/>
      <point x="351.003" y="418"/>
      <point x="341.343" y="423" type="curve" smooth="yes"/>
      <point x="330.683" y="428"/>
      <point x="317.754" y="432"/>
      <point x="299.218" y="430" type="curve" smooth="yes"/>
      <point x="284.218" y="430"/>
      <point x="273.003" y="418"/>
      <point x="265.18" y="400" type="curve" smooth="yes"/>
      <point x="241.371" y="341"/>
      <point x="251.744" y="320"/>
      <point x="250.347" y="270" type="curve" smooth="yes"/>
      <point x="249.484" y="222"/>
      <point x="246.179" y="191"/>
      <point x="216.618" y="118" type="curve" smooth="yes"/>
      <point x="201.972" y="82"/>
      <point x="189.809" y="59"/>
      <point x="169.967" y="26" type="curve" smooth="yes"/>
      <point x="146.784" y="-12"/>
      <point x="116.766" y="-27"/>
      <point x="133.11" y="34" type="curve" smooth="yes"/>
      <point x="143.292" y="72"/>
      <point x="148.402" y="106"/>
      <point x="151.441" y="136" type="curve" smooth="yes"/>
      <point x="156.518" y="196"/>
      <point x="152.896" y="231"/>
    </contour>
  </outline>
</glyph>
<glyph name="afii57671" format="2">
  <advance width="559"/>
  <unicode hex="05D7"/>
  <outline>
    <contour>
      <point x="275.897" y="440" type="line"/>
      <point x="257.414" y="427"/>
      <point x="239.716" y="402"/>
      <point x="231.625" y="383" type="curve" smooth="yes"/>
      <point x="208.423" y="330"/>
      <point x="197.111" y="243"/>
      <point x="191.949" y="220" type="curve" smooth="yes"/>
      <point x="176.996" y="153"/>
      <point x="168.331" y="102"/>
      <point x="109.967" y="26" type="curve" smooth="yes"/>
      <point x="76.1768" y="-18"/>
      <point x="48.249" y="-14"/>
      <point x="62.2344" y="27" type="curve" smooth="yes"/>
      <point x="93.2783" y="113"/>
      <point x="105.714" y="193"/>
      <point x="127.398" y="259" type="curve" smooth="yes"/>
      <point x="142.992" y="306"/>
      <point x="164.409" y="371"/>
      <point x="230.897" y="440" type="curve"/>
      <point x="167.845" y="451"/>
      <point x="176.831" y="492"/>
      <point x="178.726" y="514" type="curve" smooth="yes"/>
      <point x="180.836" y="548"/>
      <point x="203.966" y="597"/>
      <point x="227.272" y="628" type="curve" smooth="yes"/>
      <point x="244.167" y="650"/>
      <point x="254.899" y="649"/>
      <point x="259.076" y="631" type="curve" smooth="yes"/>
      <point x="266.697" y="596"/>
      <point x="302.77" y="600"/>
      <point x="340.77" y="600" type="curve" smooth="yes"/>
      <point x="611.77" y="600" type="line" smooth="yes"/>
      <point x="671.77" y="600"/>
      <point x="668.855" y="563"/>
      <point x="659.138" y="523" type="curve" smooth="yes"/>
      <point x="650.224" y="486"/>
      <point x="634.041" y="448"/>
      <point x="587.166" y="441" type="curve" smooth="yes"/>
      <point x="573.63" y="439"/>
      <point x="571.146" y="426"/>
      <point x="571.146" y="426" type="curve"/>
      <point x="565.017" y="377"/>
      <point x="557.27" y="210"/>
      <point x="548.532" y="155" type="curve" smooth="yes"/>
      <point x="545.638" y="133"/>
      <point x="531.632" y="77"/>
      <point x="488.359" y="20" type="curve" smooth="yes"/>
      <point x="461.445" y="-17"/>
      <point x="427.32" y="-10"/>
      <point x="437.699" y="25" type="curve" smooth="yes"/>
      <point x="539.146" y="426" type="line" smooth="yes"/>
      <point x="542.897" y="440"/>
      <point x="535.897" y="440"/>
      <point x="527.897" y="440" type="curve" smooth="yes"/>
    </contour>
  </outline>
</glyph>
<glyph name="afii57674" format="2">
  <advance width="496"/>
  <unicode hex="05DA"/>
  <outline>
    <contour>
      <point x="333.77" y="600" type="curve" smooth="yes"/>
      <point x="550.77" y="600" type="line" smooth="yes"/>
      <point x="610.77" y="600"/>
      <point x="607.855" y="563"/>
      <point x="598.138" y="523" type="curve" smooth="yes"/>
      <point x="589.224" y="486"/>
      <point x="573.041" y="448"/>
      <point x="526.166" y="441" type="curve" smooth="yes"/>
      <point x="512.63" y="439"/>
      <point x="510.146" y="426"/>
      <point x="510.146" y="426" type="curve"/>
      <point x="504.017" y="377"/>
      <point x="406.243" y="-70"/>
      <point x="398.506" y="-125" type="curve" smooth="yes"/>
      <point x="394.611" y="-147"/>
      <point x="381.606" y="-203"/>
      <point x="338.333" y="-260" type="curve" smooth="yes"/>
      <point x="310.419" y="-297"/>
      <point x="277.295" y="-290"/>
      <point x="287.673" y="-255" type="curve" smooth="yes"/>
      <point x="478.146" y="426" type="line" smooth="yes"/>
      <point x="481.897" y="440"/>
      <point x="474.897" y="440"/>
      <point x="466.897" y="440" type="curve" smooth="yes"/>
      <point x="225.897" y="440" type="line" smooth="yes"/>
      <point x="180.897" y="440"/>
      <point x="169.831" y="492"/>
      <point x="171.726" y="514" type="curve" smooth="yes"/>
      <point x="173.836" y="548"/>
      <point x="195.966" y="597"/>
      <point x="220.272" y="628" type="curve" smooth="yes"/>
      <point x="236.167" y="650"/>
      <point x="247.899" y="649"/>
      <point x="251.076" y="631" type="curve" smooth="yes"/>
      <point x="259.697" y="596"/>
      <point x="295.77" y="600"/>
    </contour>
  </outline>
</glyph>
<glyph name="afii57676" format="2">
  <advance width="510"/>
  <unicode hex="05DC"/>
  <outline>
    <contour>
      <point x="275.188" y="874" type="curve" smooth="yes"/>
      <point x="281.475" y="890"/>
      <point x="287.69" y="902"/>
      <point x="306.887" y="899" type="curve" smooth="yes"/>
      <point x="355.743" y="891"/>
      <point x="365.202" y="833"/>
      <point x="359.575" y="812" type="curve" smooth="yes"/>
      <point x="352.876" y="787"/>
      <point x="301.569" y="756"/>
      <point x="284.479" y="737" type="curve" smooth="yes"/>
      <point x="267.388" y="718"/>
      <point x="264.028" y="698"/>
      <point x="251.703" y="652" type="curve" smooth="yes"/>
      <point x="243.129" y="620"/>
      <point x="232.77" y="600"/>
      <point x="276.77" y="600" type="curve" smooth="yes"/>
      <point x="546.77" y="600" type="line" smooth="yes"/>
      <point x="590.77" y="600"/>
      <point x="620.019" y="586"/>
      <point x="615.765" y="544" type="curve" smooth="yes"/>
      <point x="609.615" y="480"/>
      <point x="593.701" y="443"/>
      <point x="578.429" y="386" type="curve" smooth="yes"/>
      <point x="560.476" y="319"/>
      <point x="480.811" y="268"/>
      <point x="401.001" y="209" type="curve" smooth="yes"/>
      <point x="378.714" y="193"/>
      <point x="335.532" y="155"/>
      <point x="311.062" y="101" type="curve" smooth="yes"/>
      <point x="301.972" y="82"/>
      <point x="314.024" y="71"/>
      <point x="307.861" y="48" type="curve" smooth="yes"/>
      <point x="300.359" y="20"/>
      <point x="280.66" y="-5"/>
      <point x="250.66" y="-5" type="curve" smooth="yes"/>
      <point x="222.66" y="-5"/>
      <point x="208.555" y="17"/>
      <point x="213.058" y="45" type="curve" smooth="yes"/>
      <point x="220.115" y="90"/>
      <point x="282.8" y="156"/>
      <point x="308.891" y="175" type="curve" smooth="yes"/>
      <point x="478.581" y="297"/>
      <point x="512.744" y="320"/>
      <point x="525.213" y="374" type="curve" smooth="yes"/>
      <point x="535.003" y="418"/>
      <point x="533.897" y="440"/>
      <point x="476.897" y="440" type="curve" smooth="yes"/>
      <point x="233.897" y="440" type="line" smooth="yes"/>
      <point x="175.897" y="440"/>
      <point x="159.472" y="472"/>
      <point x="171.262" y="516" type="curve" smooth="yes"/>
      <point x="199.664" y="622"/>
      <point x="214.081" y="687"/>
      <point x="233.655" y="719" type="curve" smooth="yes"/>
      <point x="258.642" y="760"/>
      <point x="284.785" y="768"/>
      <point x="288.072" y="784" type="curve" smooth="yes"/>
      <point x="291.359" y="800"/>
      <point x="266.11" y="814"/>
      <point x="263.326" y="826" type="curve" smooth="yes"/>
      <point x="261.202" y="833"/>
      <point x="268.9" y="858"/>
    </contour>
  </outline>
</glyph>
<glyph name="afii57681" format="2">
  <advance width="512"/>
  <unicode hex="05E1"/>
  <outline>
    <contour>
      <point x="344.77" y="600" type="curve" smooth="yes"/>
      <point x="345.27" y="600" type="line" smooth="yes"/>
      <point x="393.197" y="596"/>
      <point x="540.485" y="612"/>
      <point x="577.192" y="540" type="curve" smooth="yes"/>
      <point x="614.632" y="467"/>
      <point x="578.923" y="330"/>
      <point x="537.339" y="186" type="curve" smooth="yes"/>
      <point x="531.783" y="169"/>
      <point x="522.692" y="150"/>
      <point x="511.405" y="134" type="curve" smooth="yes"/>
      <point x="435.395" y="22" type="line" smooth="yes"/>
      <point x="427.18" y="10"/>
      <point x="411.5" y="0"/>
      <point x="394.5" y="0" type="curve" smooth="yes"/>
      <point x="88.5" y="0" type="line" smooth="yes"/>
      <point x="72.5" y="0"/>
      <point x="65.6436" y="8"/>
      <point x="70.1992" y="25" type="curve" smooth="yes"/>
      <point x="75.3613" y="48"/>
      <point x="83.4717" y="82"/>
      <point x="88.4385" y="108" type="curve" smooth="yes"/>
      <point x="106.233" y="208"/>
      <point x="93.3193" y="171"/>
      <point x="111.611" y="243" type="curve" smooth="yes"/>
      <point x="126.688" y="303"/>
      <point x="213.967" y="416"/>
      <point x="244.397" y="440" type="curve"/>
      <point x="195.077" y="450"/>
      <point x="186.402" y="496"/>
      <point x="187.298" y="518" type="curve" smooth="yes"/>
      <point x="189.283" y="559"/>
      <point x="207.466" y="597"/>
      <point x="230.772" y="628" type="curve" smooth="yes"/>
      <point x="247.667" y="650"/>
      <point x="258.399" y="649"/>
      <point x="262.576" y="631" type="curve" smooth="yes"/>
      <point x="270.197" y="596"/>
      <point x="306.806" y="602"/>
    </contour>
    <contour>
      <point x="281.397" y="440" type="curve"/>
      <point x="228.929" y="386"/>
      <point x="187.603" y="340"/>
      <point x="170.578" y="269" type="curve" smooth="yes"/>
      <point x="163.468" y="235"/>
      <point x="161.253" y="223"/>
      <point x="156.07" y="185" type="curve" smooth="yes"/>
      <point x="152.908" y="162"/>
      <point x="163.372" y="160"/>
      <point x="177.372" y="160" type="curve" smooth="yes"/>
      <point x="473.372" y="160" type="line" smooth="yes"/>
      <point x="491.372" y="160"/>
      <point x="501.052" y="170"/>
      <point x="505.07" y="185" type="curve" smooth="yes"/>
      <point x="522.487" y="250"/>
      <point x="550.942" y="345"/>
      <point x="534.196" y="387" type="curve" smooth="yes"/>
      <point x="525.359" y="410"/>
      <point x="492.522" y="433"/>
      <point x="455.326" y="436" type="curve" smooth="yes"/>
      <point x="408.397" y="440"/>
      <point x="328.666" y="441"/>
    </contour>
  </outline>
</glyph>
<glyph name="afii57685" format="2">
  <advance width="537"/>
  <unicode hex="05E5"/>
  <outline>
    <contour>
      <point x="225.905" y="134" type="curve"/>
      <point x="225.929" y="134.5" type="line"/>
      <point x="219.422" y="50.5"/>
      <point x="200.712" y="-86.5"/>
      <point x="187.727" y="-127.5" type="curve" smooth="yes"/>
      <point x="173.473" y="-169.5"/>
      <point x="147.486" y="-210.5"/>
      <point x="102.554" y="-262.5" type="curve" smooth="yes"/>
      <point x="78.3184" y="-289.5"/>
      <point x="56.1943" y="-282.5"/>
      <point x="65.1611" y="-256.5" type="curve" smooth="yes"/>
      <point x="85.5781" y="-191.5"/>
      <point x="107.746" y="-112.5"/>
      <point x="129.593" y="-23.5" type="curve" smooth="yes"/>
      <point x="153.12" y="75.5"/>
      <point x="155.125" y="131.5"/>
      <point x="179.92" y="231.5" type="curve" smooth="yes"/>
      <point x="196.873" y="298.5"/>
      <point x="215.734" y="346.5"/>
      <point x="263.955" y="414.5" type="curve" smooth="yes"/>
      <point x="268.831" y="421.5"/>
      <point x="270.975" y="429.5"/>
      <point x="260.242" y="430.5" type="curve" smooth="yes"/>
      <point x="240.046" y="433.5"/>
      <point x="225.313" y="434.5"/>
      <point x="205.261" y="445.5" type="curve" smooth="yes"/>
      <point x="188.673" y="454.5"/>
      <point x="174.764" y="473.5"/>
      <point x="172.854" y="492.5" type="curve" smooth="yes"/>
      <point x="170.481" y="513.5"/>
      <point x="173.572" y="532.5"/>
      <point x="178.592" y="547.5" type="curve" smooth="yes"/>
      <point x="184.755" y="570.5"/>
      <point x="201.597" y="603.5"/>
      <point x="210.544" y="614.5" type="curve" smooth="yes"/>
      <point x="238.387" y="647.5"/>
      <point x="252.334" y="658.5"/>
      <point x="263.76" y="626.5" type="curve" smooth="yes"/>
      <point x="271.401" y="606.5"/>
      <point x="296.598" y="603.5"/>
      <point x="309.794" y="600.5" type="curve" smooth="yes"/>
      <point x="337.454" y="595.5"/>
      <point x="351.578" y="588.5"/>
      <point x="365.559" y="573.5" type="curve" smooth="yes"/>
      <point x="392.252" y="542.5"/>
      <point x="364.032" y="474.5"/>
      <point x="326.457" y="442.5" type="curve" smooth="yes"/>
      <point x="309.706" y="428.5"/>
      <point x="300.223" y="415.5"/>
      <point x="300.223" y="415.5" type="curve"/>
      <point x="275.577" y="379.5"/>
      <point x="262.414" y="356.5"/>
      <point x="250.571" y="323.5" type="curve" smooth="yes"/>
      <point x="242.337" y="296.5"/>
      <point x="235.227" y="262.5"/>
      <point x="233.116" y="228.5" type="curve" smooth="yes"/>
      <point x="231.829" y="212.5"/>
      <point x="238.489" y="207.5"/>
      <point x="251.973" y="220.5" type="curve" smooth="yes"/>
      <point x="477.778" y="432.5" type="line" smooth="yes"/>
      <point x="485.653" y="439.5"/>
      <point x="489.993" y="444.5"/>
      <point x="480.673" y="454.5" type="curve" smooth="yes"/>
      <point x="461.032" y="474.5"/>
      <point x="457.463" y="498.5"/>
      <point x="465.305" y="531.5" type="curve" smooth="yes"/>
      <point x="474.219" y="568.5"/>
      <point x="493.258" y="598.5"/>
      <point x="528.296" y="628.5" type="curve" smooth="yes"/>
      <point x="553.459" y="651.5"/>
      <point x="572.459" y="651.5"/>
      <point x="574.296" y="628.5" type="curve" smooth="yes"/>
      <point x="576.152" y="620.5"/>
      <point x="584.794" y="600.5"/>
      <point x="601.578" y="588.5" type="curve" smooth="yes"/>
      <point x="630.487" y="569.5"/>
      <point x="646.448" y="539.5"/>
      <point x="638.803" y="503.5" type="curve" smooth="yes"/>
      <point x="630.62" y="465.5"/>
      <point x="614.189" y="441.5"/>
      <point x="583.419" y="412.5" type="curve" smooth="yes"/>
      <point x="568.399" y="397.5"/>
      <point x="545.577" y="379.5"/>
      <point x="538.061" y="392.5" type="curve" smooth="yes"/>
      <point x="533.204" y="400.5"/>
      <point x="529.812" y="406.5"/>
      <point x="523.419" y="412.5" type="curve" smooth="yes"/>
      <point x="519.491" y="416.5"/>
      <point x="512.295" y="419.5"/>
      <point x="500.348" y="408.5" type="curve" smooth="yes"/>
      <point x="249.183" y="176.5" type="line"/>
      <point x="237.164" y="161.5"/>
      <point x="226.608" y="144.5"/>
    </contour>
  </outline>
</glyph>
<glyph name="afii57686" format="2">
  <advance width="561"/>
  <unicode hex="05E6"/>
  <outline>
    <contour>
      <point x="54" y="0" type="line" smooth="yes"/>
      <point x="38" y="0"/>
      <point x="35.4111" y="9"/>
      <point x="43.8945" y="22" type="curve" smooth="yes"/>
      <point x="123.245" y="139" type="line" smooth="yes"/>
      <point x="132.996" y="153"/>
      <point x="143.872" y="160"/>
      <point x="159.872" y="160" type="curve" smooth="yes"/>
      <point x="448.872" y="160" type="line" smooth="yes"/>
      <point x="463.872" y="160"/>
      <point x="464.479" y="166"/>
      <point x="459.087" y="172" type="curve" smooth="yes"/>
      <point x="311.601" y="312" type="line" smooth="yes"/>
      <point x="305.476" y="319"/>
      <point x="303.352" y="326"/>
      <point x="305.031" y="336" type="curve" smooth="yes"/>
      <point x="309.605" y="368"/>
      <point x="312.964" y="388"/>
      <point x="311.716" y="402" type="curve" smooth="yes"/>
      <point x="311.199" y="415"/>
      <point x="312.146" y="426"/>
      <point x="290.683" y="428" type="curve" smooth="yes"/>
      <point x="251.486" y="431"/>
      <point x="213.826" y="436"/>
      <point x="193.524" y="461" type="curve" smooth="yes"/>
      <point x="185.472" y="472"/>
      <point x="179.759" y="488"/>
      <point x="179.314" y="505" type="curve" smooth="yes"/>
      <point x="178.138" y="523"/>
      <point x="182.496" y="543"/>
      <point x="187.516" y="558" type="curve" smooth="yes"/>
      <point x="194.679" y="581"/>
      <point x="210.646" y="607"/>
      <point x="220.593" y="618" type="curve" smooth="yes"/>
      <point x="249.167" y="650"/>
      <point x="260.971" y="653"/>
      <point x="272.2" y="624" type="curve" smooth="yes"/>
      <point x="279.842" y="604"/>
      <point x="305.233" y="598"/>
      <point x="317.162" y="594" type="curve" smooth="yes"/>
      <point x="355.482" y="584"/>
      <point x="373.052" y="560"/>
      <point x="372.941" y="526" type="curve" smooth="yes"/>
      <point x="372.635" y="495"/>
      <point x="357.4" y="468"/>
      <point x="346.434" y="442" type="curve" smooth="yes"/>
      <point x="342.022" y="433"/>
      <point x="341.61" y="424"/>
      <point x="344.931" y="414" type="curve" smooth="yes"/>
      <point x="347.52" y="405"/>
      <point x="416.835" y="339"/>
      <point x="416.835" y="339" type="curve" smooth="yes"/>
      <point x="423.691" y="331"/>
      <point x="432.031" y="336"/>
      <point x="437.906" y="343" type="curve" smooth="yes"/>
      <point x="496.683" y="428" type="line" smooth="yes"/>
      <point x="502.558" y="435"/>
      <point x="508.166" y="441"/>
      <point x="497.845" y="451" type="curve" smooth="yes"/>
      <point x="478.937" y="470"/>
      <point x="469.438" y="498"/>
      <point x="478.281" y="531" type="curve" smooth="yes"/>
      <point x="487.195" y="568"/>
      <point x="505.233" y="598"/>
      <point x="540.272" y="628" type="curve" smooth="yes"/>
      <point x="566.435" y="651"/>
      <point x="584.435" y="651"/>
      <point x="587.272" y="628" type="curve" smooth="yes"/>
      <point x="588.129" y="620"/>
      <point x="596.77" y="600"/>
      <point x="613.554" y="588" type="curve" smooth="yes"/>
      <point x="642.463" y="569"/>
      <point x="658.425" y="539"/>
      <point x="650.778" y="503" type="curve" smooth="yes"/>
      <point x="642.597" y="465"/>
      <point x="626.166" y="441"/>
      <point x="596.396" y="412" type="curve" smooth="yes"/>
      <point x="580.376" y="397"/>
      <point x="557.553" y="379"/>
      <point x="551.036" y="392" type="curve" smooth="yes"/>
      <point x="545.18" y="400"/>
      <point x="545.983" y="403"/>
      <point x="540.591" y="409" type="curve" smooth="yes"/>
      <point x="536.931" y="414"/>
      <point x="529.807" y="421"/>
      <point x="521.323" y="408" type="curve" smooth="yes"/>
      <point x="460.012" y="321" type="line" smooth="yes"/>
      <point x="450.796" y="309"/>
      <point x="451.457" y="304"/>
      <point x="459.312" y="296" type="curve" smooth="yes"/>
      <point x="542.806" y="212" type="line" smooth="yes"/>
      <point x="569.57" y="185"/>
      <point x="567.422" y="121"/>
      <point x="530.488" y="69" type="curve" smooth="yes"/>
      <point x="495.627" y="21"/>
      <point x="448" y="0"/>
      <point x="397" y="0" type="curve" smooth="yes"/>
    </contour>
  </outline>
</glyph>
<glyph name="afii57690" format="2">
  <advance width="571"/>
  <unicode hex="05EA"/>
  <outline>
    <contour>
      <point x="251.041" y="448" type="curve"/>
      <point x="250.711" y="448" type="line"/>
      <point x="224.463" y="462"/>
      <point x="221.572" y="496"/>
      <point x="223.396" y="514" type="curve" smooth="yes"/>
      <point x="226.506" y="548"/>
      <point x="248.636" y="597"/>
      <point x="271.942" y="628" type="curve" smooth="yes"/>
      <point x="288.837" y="650"/>
      <point x="299.569" y="649"/>
      <point x="303.746" y="631" type="curve" smooth="yes"/>
      <point x="311.368" y="596"/>
      <point x="347.439" y="600"/>
      <point x="386.439" y="600" type="curve" smooth="yes"/>
      <point x="535.439" y="600" type="line" smooth="yes"/>
      <point x="623.439" y="600"/>
      <point x="653.095" y="539"/>
      <point x="638.567" y="440" type="curve" smooth="yes"/>
      <point x="628.347" y="372"/>
      <point x="589.403" y="208"/>
      <point x="579.935" y="154" type="curve" smooth="yes"/>
      <point x="576.039" y="132"/>
      <point x="563.962" y="72"/>
      <point x="531.029" y="20" type="curve" smooth="yes"/>
      <point x="506.579" y="-19"/>
      <point x="478.526" y="-8"/>
      <point x="489.637" y="26" type="curve" smooth="yes"/>
      <point x="489.637" y="26"/>
      <point x="545.279" y="215"/>
      <point x="587.845" y="344" type="curve" smooth="yes"/>
      <point x="601.242" y="394"/>
      <point x="575.567" y="440"/>
      <point x="517.567" y="440" type="curve" smooth="yes"/>
      <point x="285.567" y="440" type="line"/>
      <point x="272.549" y="425"/>
      <point x="262.601" y="414"/>
      <point x="252.046" y="397" type="curve" smooth="yes"/>
      <point x="219.648" y="347"/>
      <point x="211.179" y="293"/>
      <point x="227.978" y="240" type="curve" smooth="yes"/>
      <point x="241.456" y="197"/>
      <point x="252.183" y="140"/>
      <point x="220.034" y="76" type="curve" smooth="yes"/>
      <point x="208.14" y="54"/>
      <point x="175.67" y="0"/>
      <point x="126.67" y="0" type="curve" smooth="yes"/>
      <point x="26.6699" y="0" type="line" smooth="yes"/>
      <point x="10.6699" y="0"/>
      <point x="7.08105" y="9"/>
      <point x="16.5645" y="22" type="curve" smooth="yes"/>
      <point x="95.915" y="139" type="line" smooth="yes"/>
      <point x="104.666" y="153"/>
      <point x="116.542" y="160"/>
      <point x="132.542" y="160" type="curve" smooth="yes"/>
      <point x="136.542" y="160"/>
      <point x="143.81" y="161"/>
      <point x="150.418" y="167" type="curve" smooth="yes"/>
      <point x="163.9" y="180"/>
      <point x="131.958" y="225"/>
      <point x="160.126" y="304" type="curve" smooth="yes"/>
      <point x="181.203" y="364"/>
      <point x="224.816" y="426"/>
    </contour>
  </outline>
</glyph>
<glyph name="afii57718" format="2">
  <advance width="532"/>
  <unicode hex="05F2"/>
  <outline>
    <contour>
      <point x="0" y="0" type="line" smooth="yes"/>
    </contour>
    <contour>
      <point x="578.271" y="419" type="curve" smooth="yes"/>
      <point x="564.5" y="390"/>
      <point x="538.658" y="357"/>
      <point x="505.815" y="324" type="curve" smooth="yes"/>
      <point x="493.601" y="312"/>
      <point x="477.045" y="295"/>
      <point x="468.457" y="304" type="curve" smooth="yes"/>
      <point x="458.136" y="314"/>
      <point x="472.763" y="335"/>
      <point x="480.175" y="344" type="curve" smooth="yes"/>
      <point x="502.409" y="371"/>
      <point x="519.5" y="390"/>
      <point x="510.199" y="415" type="curve" smooth="yes"/>
      <point x="501.826" y="436"/>
      <point x="480.022" y="433"/>
      <point x="456.237" y="445" type="curve" smooth="yes"/>
      <point x="435.185" y="456"/>
      <point x="416.74" y="473"/>
      <point x="411.118" y="508" type="curve" smooth="yes"/>
      <point x="408.013" y="530"/>
      <point x="415.588" y="562"/>
      <point x="422.143" y="579" type="curve" smooth="yes"/>
      <point x="431.842" y="604"/>
      <point x="441.86" y="619"/>
      <point x="455.076" y="631" type="curve" smooth="yes"/>
      <point x="481.238" y="654"/>
      <point x="489.095" y="646"/>
      <point x="495.736" y="626" type="curve" smooth="yes"/>
      <point x="503.377" y="606"/>
      <point x="515.233" y="598"/>
      <point x="540.626" y="592" type="curve" smooth="yes"/>
      <point x="564.286" y="587"/>
      <point x="589.999" y="571"/>
      <point x="597.961" y="541" type="curve" smooth="yes"/>
      <point x="609.975" y="500"/>
      <point x="596.721" y="458"/>
    </contour>
    <contour>
      <point x="312.271" y="419" type="curve" smooth="yes"/>
      <point x="298.5" y="390"/>
      <point x="272.658" y="357"/>
      <point x="239.815" y="324" type="curve" smooth="yes"/>
      <point x="227.601" y="312"/>
      <point x="211.045" y="295"/>
      <point x="202.457" y="304" type="curve" smooth="yes"/>
      <point x="192.136" y="314"/>
      <point x="206.763" y="335"/>
      <point x="214.175" y="344" type="curve" smooth="yes"/>
      <point x="236.409" y="371"/>
      <point x="253.5" y="390"/>
      <point x="244.199" y="415" type="curve" smooth="yes"/>
      <point x="235.826" y="436"/>
      <point x="214.022" y="433"/>
      <point x="190.237" y="445" type="curve" smooth="yes"/>
      <point x="169.185" y="456"/>
      <point x="150.74" y="473"/>
      <point x="145.118" y="508" type="curve" smooth="yes"/>
      <point x="142.013" y="530"/>
      <point x="149.588" y="562"/>
      <point x="156.143" y="579" type="curve" smooth="yes"/>
      <point x="165.842" y="604"/>
      <point x="175.86" y="619"/>
      <point x="189.076" y="631" type="curve" smooth="yes"/>
      <point x="215.238" y="654"/>
      <point x="223.095" y="646"/>
      <point x="229.736" y="626" type="curve" smooth="yes"/>
      <point x="237.377" y="606"/>
      <point x="249.233" y="598"/>
      <point x="274.626" y="592" type="curve" smooth="yes"/>
      <point x="298.286" y="587"/>
      <point x="323.999" y="571"/>
      <point x="331.961" y="541" type="curve" smooth="yes"/>
      <point x="343.975" y="500"/>
      <point x="330.721" y="458"/>
    </contour>
  </outline>
</glyph>
<glyph name="uni25CC" format="2">
  <advance width="604"/>
  <unicode hex="25CC"/>
  <outline>
    <contour>
      <point x="626.648" y="454" type="curve" smooth="yes"/>
      <point x="646.648" y="454"/>
      <point x="659.361" y="438"/>
      <point x="654.003" y="418" type="curve" smooth="yes"/>
      <point x="648.376" y="397"/>
      <point x="627.089" y="381"/>
      <point x="607.089" y="381" type="curve" smooth="yes"/>
      <point x="587.089" y="381"/>
      <point x="574.376" y="397"/>
      <point x="580.003" y="418" type="curve" smooth="yes"/>
      <point x="585.361" y="438"/>
      <point x="606.648" y="454"/>
    </contour>
    <contour>
      <point x="454.638" y="133" type="curve" smooth="yes"/>
      <point x="474.638" y="133"/>
      <point x="487.35" y="117"/>
      <point x="481.723" y="96" type="curve" smooth="yes"/>
      <point x="476.364" y="76"/>
      <point x="455.077" y="60"/>
      <point x="435.077" y="60" type="curve" smooth="yes"/>
      <point x="415.077" y="60"/>
      <point x="402.364" y="76"/>
      <point x="407.723" y="96" type="curve" smooth="yes"/>
      <point x="413.35" y="117"/>
      <point x="434.638" y="133"/>
    </contour>
    <contour>
      <point x="155.681" y="219" type="curve" smooth="yes"/>
      <point x="176.681" y="219"/>
      <point x="188.394" y="203"/>
      <point x="182.767" y="182" type="curve" smooth="yes"/>
      <point x="177.408" y="162"/>
      <point x="157.12" y="146"/>
      <point x="136.12" y="146" type="curve" smooth="yes"/>
      <point x="116.12" y="146"/>
      <point x="104.408" y="162"/>
      <point x="109.767" y="182" type="curve" smooth="yes"/>
      <point x="115.394" y="203"/>
      <point x="135.681" y="219"/>
    </contour>
    <contour>
      <point x="328.692" y="540" type="curve" smooth="yes"/>
      <point x="348.692" y="540"/>
      <point x="360.405" y="524"/>
      <point x="355.047" y="504" type="curve" smooth="yes"/>
      <point x="349.42" y="483"/>
      <point x="329.132" y="467"/>
      <point x="309.132" y="467" type="curve" smooth="yes"/>
      <point x="288.132" y="467"/>
      <point x="276.42" y="483"/>
      <point x="282.047" y="504" type="curve" smooth="yes"/>
      <point x="287.405" y="524"/>
      <point x="307.692" y="540"/>
    </contour>
    <contour>
      <point x="218.649" y="454" type="curve" smooth="yes"/>
      <point x="239.649" y="454"/>
      <point x="251.361" y="438"/>
      <point x="246.003" y="418" type="curve" smooth="yes"/>
      <point x="240.376" y="397"/>
      <point x="220.089" y="381"/>
      <point x="199.089" y="381" type="curve" smooth="yes"/>
      <point x="179.089" y="381"/>
      <point x="167.376" y="397"/>
      <point x="173.003" y="418" type="curve" smooth="yes"/>
      <point x="178.361" y="438"/>
      <point x="198.649" y="454"/>
    </contour>
    <contour>
      <point x="219.638" y="133" type="curve" smooth="yes"/>
      <point x="239.638" y="133"/>
      <point x="251.35" y="117"/>
      <point x="245.723" y="96" type="curve" smooth="yes"/>
      <point x="240.364" y="76"/>
      <point x="220.077" y="60"/>
      <point x="200.077" y="60" type="curve" smooth="yes"/>
      <point x="179.077" y="60"/>
      <point x="167.364" y="76"/>
      <point x="172.723" y="96" type="curve" smooth="yes"/>
      <point x="178.35" y="117"/>
      <point x="198.638" y="133"/>
    </contour>
    <contour>
      <point x="563.681" y="219" type="curve" smooth="yes"/>
      <point x="583.681" y="219"/>
      <point x="596.394" y="203"/>
      <point x="590.767" y="182" type="curve" smooth="yes"/>
      <point x="585.408" y="162"/>
      <point x="564.121" y="146"/>
      <point x="544.121" y="146" type="curve" smooth="yes"/>
      <point x="524.121" y="146"/>
      <point x="511.408" y="162"/>
      <point x="516.767" y="182" type="curve" smooth="yes"/>
      <point x="522.394" y="203"/>
      <point x="543.681" y="219"/>
    </contour>
    <contour>
      <point x="563.692" y="540" type="curve" smooth="yes"/>
      <point x="583.692" y="540"/>
      <point x="596.405" y="524"/>
      <point x="591.047" y="504" type="curve" smooth="yes"/>
      <point x="585.42" y="483"/>
      <point x="564.132" y="467"/>
      <point x="544.132" y="467" type="curve" smooth="yes"/>
      <point x="524.132" y="467"/>
      <point x="511.42" y="483"/>
      <point x="517.047" y="504" type="curve" smooth="yes"/>
      <point x="522.405" y="524"/>
      <point x="543.692" y="540"/>
    </contour>
    <contour>
      <point x="328.062" y="101" type="curve" smooth="yes"/>
      <point x="348.062" y="101"/>
      <point x="360.775" y="85"/>
      <point x="355.417" y="65" type="curve" smooth="yes"/>
      <point x="349.79" y="44"/>
      <point x="328.503" y="28"/>
      <point x="308.503" y="28" type="curve" smooth="yes"/>
      <point x="288.503" y="28"/>
      <point x="275.79" y="44"/>
      <point x="281.417" y="65" type="curve" smooth="yes"/>
      <point x="286.775" y="85"/>
      <point x="308.062" y="101"/>
    </contour>
    <contour>
      <point x="626.299" y="337" type="curve" smooth="yes"/>
      <point x="647.299" y="337"/>
      <point x="658.744" y="320"/>
      <point x="653.385" y="300" type="curve" smooth="yes"/>
      <point x="648.025" y="280"/>
      <point x="627.471" y="263"/>
      <point x="606.471" y="263" type="curve" smooth="yes"/>
      <point x="586.471" y="263"/>
      <point x="575.025" y="280"/>
      <point x="580.385" y="300" type="curve" smooth="yes"/>
      <point x="585.744" y="320"/>
      <point x="606.299" y="337"/>
    </contour>
    <contour>
      <point x="454.267" y="572" type="curve" smooth="yes"/>
      <point x="474.267" y="572"/>
      <point x="486.979" y="556"/>
      <point x="481.353" y="535" type="curve" smooth="yes"/>
      <point x="475.994" y="515"/>
      <point x="454.707" y="499"/>
      <point x="434.707" y="499" type="curve" smooth="yes"/>
      <point x="414.707" y="499"/>
      <point x="401.994" y="515"/>
      <point x="407.353" y="535" type="curve" smooth="yes"/>
      <point x="412.979" y="556"/>
      <point x="434.267" y="572"/>
    </contour>
    <contour>
      <point x="156.299" y="337" type="curve" smooth="yes"/>
      <point x="176.299" y="337"/>
      <point x="188.744" y="320"/>
      <point x="183.385" y="300" type="curve" smooth="yes"/>
      <point x="178.025" y="280"/>
      <point x="156.471" y="263"/>
      <point x="136.471" y="263" type="curve" smooth="yes"/>
      <point x="116.471" y="263"/>
      <point x="104.025" y="280"/>
      <point x="109.385" y="300" type="curve" smooth="yes"/>
      <point x="114.744" y="320"/>
      <point x="136.299" y="337"/>
    </contour>
  </outline>
</glyph>
<glyph name="uniE803" format="2">
  <advance width="496"/>
  <unicode hex="E803"/>
  <outline>
    <contour>
      <point x="287.087" y="172" type="curve"/>
      <point x="286.895" y="171.69" type="line"/>
      <point x="291.286" y="165.69"/>
      <point x="292.875" y="156.69"/>
      <point x="290.195" y="146.69" type="curve" smooth="yes"/>
      <point x="284.837" y="126.69"/>
      <point x="263.281" y="109.69"/>
      <point x="242.281" y="109.69" type="curve" smooth="yes"/>
      <point x="221.281" y="109.69"/>
      <point x="208.837" y="126.69"/>
      <point x="214.195" y="146.69" type="curve" smooth="yes"/>
      <point x="216.875" y="156.69"/>
      <point x="223.286" y="165.69"/>
      <point x="231.162" y="172.69" type="curve" smooth="yes"/>
      <point x="245.378" y="184.69"/>
      <point x="247.861" y="197.69"/>
      <point x="250.272" y="206.69" type="curve" smooth="yes"/>
      <point x="255.899" y="227.69"/>
      <point x="245.775" y="234.69"/>
      <point x="219.775" y="234.69" type="curve" smooth="yes"/>
      <point x="175.775" y="234.69" type="line" smooth="yes"/>
      <point x="167.775" y="234.69"/>
      <point x="162.65" y="241.69"/>
      <point x="164.794" y="249.69" type="curve" smooth="yes"/>
      <point x="171.492" y="274.69" type="line" smooth="yes"/>
      <point x="173.636" y="282.69"/>
      <point x="182.512" y="289.69"/>
      <point x="190.512" y="289.69" type="curve" smooth="yes"/>
      <point x="390.512" y="289.69" type="line" smooth="yes"/>
      <point x="398.512" y="289.69"/>
      <point x="403.637" y="282.69"/>
      <point x="401.493" y="274.69" type="curve" smooth="yes"/>
      <point x="394.794" y="249.69" type="line" smooth="yes"/>
      <point x="392.65" y="241.69"/>
      <point x="383.775" y="234.69"/>
      <point x="375.775" y="234.69" type="curve" smooth="yes"/>
      <point x="331.775" y="234.69" type="line" smooth="yes"/>
      <point x="303.775" y="234.69"/>
      <point x="291.899" y="227.69"/>
      <point x="286.272" y="206.69" type="curve" smooth="yes"/>
      <point x="283.861" y="197.69"/>
      <point x="279.378" y="184.69"/>
    </contour>
    <contour>
      <point x="333.576" y="599.69" type="curve" smooth="yes"/>
      <point x="550.576" y="599.69" type="line" smooth="yes"/>
      <point x="610.576" y="599.69"/>
      <point x="607.662" y="562.69"/>
      <point x="597.944" y="522.69" type="curve" smooth="yes"/>
      <point x="589.03" y="485.69"/>
      <point x="572.849" y="447.69"/>
      <point x="525.973" y="440.69" type="curve" smooth="yes"/>
      <point x="512.437" y="438.69"/>
      <point x="509.953" y="425.69"/>
      <point x="509.953" y="425.69" type="curve"/>
      <point x="503.824" y="376.69"/>
      <point x="406.051" y="-70.3096"/>
      <point x="398.313" y="-125.31" type="curve" smooth="yes"/>
      <point x="394.418" y="-147.31"/>
      <point x="381.413" y="-203.31"/>
      <point x="338.141" y="-260.31" type="curve" smooth="yes"/>
      <point x="310.226" y="-297.31"/>
      <point x="277.102" y="-290.31"/>
      <point x="287.479" y="-255.31" type="curve" smooth="yes"/>
      <point x="477.953" y="425.69" type="line" smooth="yes"/>
      <point x="481.705" y="439.69"/>
      <point x="474.705" y="439.69"/>
      <point x="466.705" y="439.69" type="curve" smooth="yes"/>
      <point x="225.704" y="439.69" type="line" smooth="yes"/>
      <point x="180.704" y="439.69"/>
      <point x="169.638" y="491.69"/>
      <point x="171.532" y="513.69" type="curve" smooth="yes"/>
      <point x="173.643" y="547.69"/>
      <point x="195.772" y="596.69"/>
      <point x="220.079" y="627.69" type="curve" smooth="yes"/>
      <point x="235.974" y="649.69"/>
      <point x="247.705" y="648.69"/>
      <point x="250.883" y="630.69" type="curve" smooth="yes"/>
      <point x="259.504" y="595.69"/>
      <point x="295.576" y="599.69"/>
    </contour>
  </outline>
</glyph>
<glyph name="afii57705" format="2">
  <advance width="532"/>
  <unicode hex="FB1F"/>
  <outline>
    <contour>
      <point x="196.59" y="200" type="line" smooth="yes"/>
      <point x="198.733" y="208"/>
      <point x="207.609" y="215"/>
      <point x="215.609" y="215" type="curve" smooth="yes"/>
      <point x="415.609" y="215" type="line" smooth="yes"/>
      <point x="423.609" y="215"/>
      <point x="428.733" y="208"/>
      <point x="426.59" y="200" type="curve" smooth="yes"/>
      <point x="419.891" y="175" type="line" smooth="yes"/>
      <point x="417.747" y="167"/>
      <point x="408.872" y="160"/>
      <point x="400.872" y="160" type="curve" smooth="yes"/>
      <point x="200.872" y="160" type="line" smooth="yes"/>
      <point x="192.872" y="160"/>
      <point x="187.747" y="167"/>
      <point x="189.891" y="175" type="curve" smooth="yes"/>
    </contour>
    <contour>
      <point x="341.271" y="419" type="curve" smooth="yes"/>
      <point x="327.5" y="390"/>
      <point x="301.658" y="357"/>
      <point x="268.815" y="324" type="curve" smooth="yes"/>
      <point x="256.601" y="312"/>
      <point x="240.045" y="295"/>
      <point x="231.457" y="304" type="curve" smooth="yes"/>
      <point x="221.136" y="314"/>
      <point x="235.763" y="335"/>
      <point x="243.175" y="344" type="curve" smooth="yes"/>
      <point x="265.409" y="371"/>
      <point x="282.5" y="390"/>
      <point x="273.199" y="415" type="curve" smooth="yes"/>
      <point x="264.826" y="436"/>
      <point x="243.022" y="433"/>
      <point x="219.237" y="445" type="curve" smooth="yes"/>
      <point x="198.185" y="456"/>
      <point x="179.74" y="473"/>
      <point x="174.118" y="508" type="curve" smooth="yes"/>
      <point x="171.013" y="530"/>
      <point x="178.588" y="562"/>
      <point x="185.143" y="579" type="curve" smooth="yes"/>
      <point x="194.842" y="604"/>
      <point x="204.86" y="619"/>
      <point x="218.076" y="631" type="curve" smooth="yes"/>
      <point x="244.238" y="654"/>
      <point x="252.095" y="646"/>
      <point x="258.736" y="626" type="curve" smooth="yes"/>
      <point x="266.377" y="606"/>
      <point x="278.233" y="598"/>
      <point x="303.626" y="592" type="curve" smooth="yes"/>
      <point x="327.286" y="587"/>
      <point x="352.999" y="571"/>
      <point x="360.961" y="541" type="curve" smooth="yes"/>
      <point x="372.975" y="500"/>
      <point x="359.721" y="458"/>
    </contour>
    <contour>
      <point x="607.271" y="419" type="curve" smooth="yes"/>
      <point x="593.5" y="390"/>
      <point x="567.658" y="357"/>
      <point x="534.815" y="324" type="curve" smooth="yes"/>
      <point x="522.601" y="312"/>
      <point x="506.045" y="295"/>
      <point x="497.457" y="304" type="curve" smooth="yes"/>
      <point x="487.136" y="314"/>
      <point x="501.763" y="335"/>
      <point x="509.175" y="344" type="curve" smooth="yes"/>
      <point x="531.409" y="371"/>
      <point x="548.5" y="390"/>
      <point x="539.199" y="415" type="curve" smooth="yes"/>
      <point x="530.826" y="436"/>
      <point x="509.022" y="433"/>
      <point x="485.237" y="445" type="curve" smooth="yes"/>
      <point x="464.185" y="456"/>
      <point x="445.74" y="473"/>
      <point x="440.118" y="508" type="curve" smooth="yes"/>
      <point x="437.013" y="530"/>
      <point x="444.588" y="562"/>
      <point x="451.143" y="579" type="curve" smooth="yes"/>
      <point x="460.842" y="604"/>
      <point x="470.86" y="619"/>
      <point x="484.076" y="631" type="curve" smooth="yes"/>
      <point x="510.238" y="654"/>
      <point x="518.095" y="646"/>
      <point x="524.736" y="626" type="curve" smooth="yes"/>
      <point x="532.377" y="606"/>
      <point x="544.233" y="598"/>
      <point x="569.626" y="592" type="curve" smooth="yes"/>
      <point x="593.286" y="587"/>
      <point x="618.999" y="571"/>
      <point x="626.961" y="541" type="curve" smooth="yes"/>
      <point x="638.975" y="500"/>
      <point x="625.721" y="458"/>
    </contour>
  </outline>
</glyph>
<glyph name="afii57694" format="2">
  <advance width="716"/>
  <unicode hex="FB2A"/>
  <outline>
    <contour>
      <point x="832.904" y="705" type="curve" smooth="yes"/>
      <point x="853.904" y="705"/>
      <point x="866.349" y="688"/>
      <point x="860.99" y="668" type="curve" smooth="yes"/>
      <point x="855.363" y="647"/>
      <point x="833.808" y="630"/>
      <point x="812.808" y="630" type="curve" smooth="yes"/>
      <point x="791.808" y="630"/>
      <point x="779.363" y="647"/>
      <point x="784.99" y="668" type="curve" smooth="yes"/>
      <point x="790.349" y="688"/>
      <point x="811.904" y="705"/>
    </contour>
    <contour>
      <point x="552.824" y="227" type="curve" smooth="yes"/>
      <point x="615.476" y="319"/>
      <point x="690.912" y="399"/>
      <point x="690.912" y="399" type="curve" smooth="yes"/>
      <point x="696.787" y="406"/>
      <point x="700.931" y="414"/>
      <point x="694.539" y="420" type="curve" smooth="yes"/>
      <point x="680.29" y="434"/>
      <point x="640.257" y="460"/>
      <point x="641.582" y="506" type="curve" smooth="yes"/>
      <point x="642.712" y="555"/>
      <point x="665.358" y="591"/>
      <point x="707.272" y="628" type="curve" smooth="yes"/>
      <point x="732.435" y="651"/>
      <point x="751.435" y="651"/>
      <point x="754.272" y="628" type="curve" smooth="yes"/>
      <point x="755.129" y="620"/>
      <point x="764.77" y="600"/>
      <point x="781.554" y="588" type="curve" smooth="yes"/>
      <point x="809.463" y="569"/>
      <point x="825.425" y="539"/>
      <point x="817.778" y="503" type="curve" smooth="yes"/>
      <point x="809.597" y="465"/>
      <point x="794.166" y="441"/>
      <point x="763.396" y="412" type="curve" smooth="yes"/>
      <point x="747.376" y="397"/>
      <point x="740.304" y="393"/>
      <point x="735.572" y="394" type="curve" smooth="yes"/>
      <point x="731.84" y="395"/>
      <point x="729.18" y="400"/>
      <point x="720.5" y="390" type="curve" smooth="yes"/>
      <point x="671.371" y="341"/>
      <point x="621.007" y="265"/>
      <point x="559.925" y="149" type="curve" smooth="yes"/>
      <point x="527.579" y="88"/>
      <point x="490" y="0"/>
      <point x="377" y="0" type="curve" smooth="yes"/>
      <point x="114" y="0" type="line" smooth="yes"/>
      <point x="104" y="0"/>
      <point x="100.34" y="5"/>
      <point x="103.02" y="15" type="curve" smooth="yes"/>
      <point x="108.914" y="37"/>
      <point x="119.168" y="79"/>
      <point x="123.938" y="108" type="curve" smooth="yes"/>
      <point x="141.733" y="208"/>
      <point x="132.518" y="196"/>
      <point x="150.811" y="268" type="curve" smooth="yes"/>
      <point x="162.528" y="308"/>
      <point x="189.586" y="353"/>
      <point x="212.036" y="392" type="curve" smooth="yes"/>
      <point x="222.859" y="410"/>
      <point x="223.343" y="423"/>
      <point x="214.146" y="426" type="curve" smooth="yes"/>
      <point x="198.022" y="433"/>
      <point x="186.701" y="443"/>
      <point x="178.917" y="455" type="curve" smooth="yes"/>
      <point x="171.864" y="466"/>
      <point x="168.151" y="482"/>
      <point x="169.707" y="499" type="curve" smooth="yes"/>
      <point x="170.798" y="518"/>
      <point x="176.889" y="537"/>
      <point x="182.908" y="552" type="curve" smooth="yes"/>
      <point x="192.07" y="575"/>
      <point x="209.842" y="604"/>
      <point x="219.789" y="615" type="curve" smooth="yes"/>
      <point x="250.167" y="650"/>
      <point x="265.507" y="655"/>
      <point x="275.468" y="625" type="curve" smooth="yes"/>
      <point x="279.717" y="611"/>
      <point x="291.966" y="597"/>
      <point x="314.358" y="591" type="curve" smooth="yes"/>
      <point x="347.679" y="581"/>
      <point x="362.516" y="558"/>
      <point x="367.281" y="531" type="curve" smooth="yes"/>
      <point x="371.654" y="510"/>
      <point x="363.472" y="472"/>
      <point x="347.897" y="440" type="curve" smooth="yes"/>
      <point x="328.18" y="400"/>
      <point x="316.84" y="395"/>
      <point x="308.447" y="401" type="curve" smooth="yes"/>
      <point x="300.056" y="407"/>
      <point x="289.396" y="412"/>
      <point x="272.396" y="412" type="curve" smooth="yes"/>
      <point x="259.396" y="412"/>
      <point x="249.447" y="401"/>
      <point x="239.893" y="384" type="curve" smooth="yes"/>
      <point x="211.763" y="335"/>
      <point x="206.888" y="328"/>
      <point x="204.241" y="292" type="curve" smooth="yes"/>
      <point x="200.72" y="249"/>
      <point x="214.289" y="225"/>
      <point x="209.891" y="175" type="curve" smooth="yes"/>
      <point x="208.479" y="166"/>
      <point x="211.872" y="160"/>
      <point x="222.872" y="160" type="curve" smooth="yes"/>
      <point x="228.872" y="160" type="line" smooth="yes"/>
      <point x="238.872" y="160"/>
      <point x="246.212" y="165"/>
      <point x="252.623" y="174" type="curve" smooth="yes"/>
      <point x="433.754" y="432" type="line" smooth="yes"/>
      <point x="438.897" y="440"/>
      <point x="442.773" y="447"/>
      <point x="435.648" y="454" type="curve" smooth="yes"/>
      <point x="415.74" y="473"/>
      <point x="412.438" y="498"/>
      <point x="420.281" y="531" type="curve" smooth="yes"/>
      <point x="429.195" y="568"/>
      <point x="448.233" y="598"/>
      <point x="483.272" y="628" type="curve" smooth="yes"/>
      <point x="508.435" y="651"/>
      <point x="527.435" y="651"/>
      <point x="530.272" y="628" type="curve" smooth="yes"/>
      <point x="530.129" y="620"/>
      <point x="539.77" y="600"/>
      <point x="556.554" y="588" type="curve" smooth="yes"/>
      <point x="585.463" y="569"/>
      <point x="600.425" y="539"/>
      <point x="592.778" y="503" type="curve" smooth="yes"/>
      <point x="585.597" y="465"/>
      <point x="569.166" y="441"/>
      <point x="538.396" y="412" type="curve" smooth="yes"/>
      <point x="523.376" y="397"/>
      <point x="500.553" y="379"/>
      <point x="493.036" y="392" type="curve" smooth="yes"/>
      <point x="488.18" y="400"/>
      <point x="484.787" y="406"/>
      <point x="478.396" y="412" type="curve" smooth="yes"/>
      <point x="473.467" y="416"/>
      <point x="465.343" y="423"/>
      <point x="455.323" y="408" type="curve" smooth="yes"/>
      <point x="293.623" y="174" type="line" smooth="yes"/>
      <point x="286.676" y="163"/>
      <point x="287.872" y="160"/>
      <point x="299.872" y="160" type="curve" smooth="yes"/>
      <point x="419.872" y="160" type="line" smooth="yes"/>
      <point x="469.872" y="160"/>
      <point x="521.499" y="181"/>
    </contour>
  </outline>
</glyph>
<glyph name="afii57695" format="2">
  <advance width="716"/>
  <unicode hex="FB2B"/>
  <outline>
    <contour>
      <point x="360.904" y="705" type="curve"/>
      <point x="360.404" y="705" type="line"/>
      <point x="381.404" y="705"/>
      <point x="393.849" y="688"/>
      <point x="388.49" y="668" type="curve" smooth="yes"/>
      <point x="382.863" y="647"/>
      <point x="361.308" y="630"/>
      <point x="340.308" y="630" type="curve" smooth="yes"/>
      <point x="320.308" y="630"/>
      <point x="307.863" y="647"/>
      <point x="313.49" y="668" type="curve" smooth="yes"/>
      <point x="318.849" y="688"/>
      <point x="340.404" y="705"/>
    </contour>
    <contour>
      <point x="552.324" y="227" type="curve" smooth="yes"/>
      <point x="614.976" y="319"/>
      <point x="690.412" y="399"/>
      <point x="690.412" y="399" type="curve" smooth="yes"/>
      <point x="696.287" y="406"/>
      <point x="700.431" y="414"/>
      <point x="694.039" y="420" type="curve" smooth="yes"/>
      <point x="679.79" y="434"/>
      <point x="639.757" y="460"/>
      <point x="641.082" y="506" type="curve" smooth="yes"/>
      <point x="642.212" y="555"/>
      <point x="664.858" y="591"/>
      <point x="706.772" y="628" type="curve" smooth="yes"/>
      <point x="731.935" y="651"/>
      <point x="750.935" y="651"/>
      <point x="753.772" y="628" type="curve" smooth="yes"/>
      <point x="754.629" y="620"/>
      <point x="764.27" y="600"/>
      <point x="781.054" y="588" type="curve" smooth="yes"/>
      <point x="808.963" y="569"/>
      <point x="824.925" y="539"/>
      <point x="817.278" y="503" type="curve" smooth="yes"/>
      <point x="809.097" y="465"/>
      <point x="793.666" y="441"/>
      <point x="762.896" y="412" type="curve" smooth="yes"/>
      <point x="746.876" y="397"/>
      <point x="739.804" y="393"/>
      <point x="735.072" y="394" type="curve" smooth="yes"/>
      <point x="731.34" y="395"/>
      <point x="728.68" y="400"/>
      <point x="720" y="390" type="curve" smooth="yes"/>
      <point x="670.871" y="341"/>
      <point x="620.507" y="265"/>
      <point x="559.425" y="149" type="curve" smooth="yes"/>
      <point x="527.079" y="88"/>
      <point x="489.5" y="0"/>
      <point x="376.5" y="0" type="curve" smooth="yes"/>
      <point x="113.5" y="0" type="line" smooth="yes"/>
      <point x="103.5" y="0"/>
      <point x="99.8398" y="5"/>
      <point x="102.52" y="15" type="curve" smooth="yes"/>
      <point x="108.414" y="37"/>
      <point x="118.668" y="79"/>
      <point x="123.438" y="108" type="curve" smooth="yes"/>
      <point x="141.233" y="208"/>
      <point x="132.018" y="196"/>
      <point x="150.311" y="268" type="curve" smooth="yes"/>
      <point x="162.028" y="308"/>
      <point x="189.086" y="353"/>
      <point x="211.536" y="392" type="curve" smooth="yes"/>
      <point x="222.359" y="410"/>
      <point x="222.843" y="423"/>
      <point x="213.646" y="426" type="curve" smooth="yes"/>
      <point x="197.522" y="433"/>
      <point x="186.201" y="443"/>
      <point x="178.417" y="455" type="curve" smooth="yes"/>
      <point x="171.364" y="466"/>
      <point x="167.651" y="482"/>
      <point x="169.207" y="499" type="curve" smooth="yes"/>
      <point x="170.298" y="518"/>
      <point x="176.389" y="537"/>
      <point x="182.408" y="552" type="curve" smooth="yes"/>
      <point x="191.57" y="575"/>
      <point x="209.342" y="604"/>
      <point x="219.289" y="615" type="curve" smooth="yes"/>
      <point x="249.667" y="650"/>
      <point x="265.007" y="655"/>
      <point x="274.968" y="625" type="curve" smooth="yes"/>
      <point x="279.217" y="611"/>
      <point x="291.466" y="597"/>
      <point x="313.858" y="591" type="curve" smooth="yes"/>
      <point x="347.179" y="581"/>
      <point x="362.016" y="558"/>
      <point x="366.781" y="531" type="curve" smooth="yes"/>
      <point x="371.154" y="510"/>
      <point x="362.972" y="472"/>
      <point x="347.397" y="440" type="curve" smooth="yes"/>
      <point x="327.68" y="400"/>
      <point x="316.34" y="395"/>
      <point x="307.947" y="401" type="curve" smooth="yes"/>
      <point x="299.556" y="407"/>
      <point x="288.896" y="412"/>
      <point x="271.896" y="412" type="curve" smooth="yes"/>
      <point x="258.896" y="412"/>
      <point x="248.947" y="401"/>
      <point x="239.393" y="384" type="curve" smooth="yes"/>
      <point x="211.263" y="335"/>
      <point x="206.388" y="328"/>
      <point x="203.741" y="292" type="curve" smooth="yes"/>
      <point x="200.22" y="249"/>
      <point x="213.789" y="225"/>
      <point x="209.391" y="175" type="curve" smooth="yes"/>
      <point x="207.979" y="166"/>
      <point x="211.372" y="160"/>
      <point x="222.372" y="160" type="curve" smooth="yes"/>
      <point x="228.372" y="160" type="line" smooth="yes"/>
      <point x="238.372" y="160"/>
      <point x="245.712" y="165"/>
      <point x="252.123" y="174" type="curve" smooth="yes"/>
      <point x="433.254" y="432" type="line" smooth="yes"/>
      <point x="438.397" y="440"/>
      <point x="442.273" y="447"/>
      <point x="435.148" y="454" type="curve" smooth="yes"/>
      <point x="415.24" y="473"/>
      <point x="411.938" y="498"/>
      <point x="419.781" y="531" type="curve" smooth="yes"/>
      <point x="428.695" y="568"/>
      <point x="447.733" y="598"/>
      <point x="482.772" y="628" type="curve" smooth="yes"/>
      <point x="507.935" y="651"/>
      <point x="526.935" y="651"/>
      <point x="529.772" y="628" type="curve" smooth="yes"/>
      <point x="529.629" y="620"/>
      <point x="539.27" y="600"/>
      <point x="556.054" y="588" type="curve" smooth="yes"/>
      <point x="584.963" y="569"/>
      <point x="599.925" y="539"/>
      <point x="592.278" y="503" type="curve" smooth="yes"/>
      <point x="585.097" y="465"/>
      <point x="568.666" y="441"/>
      <point x="537.896" y="412" type="curve" smooth="yes"/>
      <point x="522.876" y="397"/>
      <point x="500.053" y="379"/>
      <point x="492.536" y="392" type="curve" smooth="yes"/>
      <point x="487.68" y="400"/>
      <point x="484.287" y="406"/>
      <point x="477.896" y="412" type="curve" smooth="yes"/>
      <point x="472.967" y="416"/>
      <point x="464.843" y="423"/>
      <point x="454.823" y="408" type="curve" smooth="yes"/>
      <point x="293.123" y="174" type="line" smooth="yes"/>
      <point x="286.176" y="163"/>
      <point x="287.372" y="160"/>
      <point x="299.372" y="160" type="curve" smooth="yes"/>
      <point x="419.372" y="160" type="line" smooth="yes"/>
      <point x="469.372" y="160"/>
      <point x="520.999" y="181"/>
    </contour>
  </outline>
</glyph>
<glyph name="uniFB2F" format="2">
  <advance width="593"/>
  <unicode hex="FB2F"/>
  <outline>
    <contour>
      <point x="271.645" y="-173" type="curve"/>
      <point x="271.452" y="-173.31" type="line"/>
      <point x="275.844" y="-179.31"/>
      <point x="277.433" y="-188.31"/>
      <point x="274.753" y="-198.31" type="curve" smooth="yes"/>
      <point x="269.394" y="-218.31"/>
      <point x="247.839" y="-235.31"/>
      <point x="226.839" y="-235.31" type="curve" smooth="yes"/>
      <point x="205.839" y="-235.31"/>
      <point x="193.394" y="-218.31"/>
      <point x="198.753" y="-198.31" type="curve" smooth="yes"/>
      <point x="201.433" y="-188.31"/>
      <point x="207.844" y="-179.31"/>
      <point x="215.72" y="-172.31" type="curve" smooth="yes"/>
      <point x="229.936" y="-160.31"/>
      <point x="232.418" y="-147.31"/>
      <point x="234.83" y="-138.31" type="curve" smooth="yes"/>
      <point x="240.457" y="-117.31"/>
      <point x="230.333" y="-110.31"/>
      <point x="204.332" y="-110.31" type="curve" smooth="yes"/>
      <point x="160.332" y="-110.31" type="line" smooth="yes"/>
      <point x="152.332" y="-110.31"/>
      <point x="147.208" y="-103.31"/>
      <point x="149.352" y="-95.3096" type="curve" smooth="yes"/>
      <point x="156.051" y="-70.3096" type="line" smooth="yes"/>
      <point x="158.194" y="-62.3096"/>
      <point x="167.07" y="-55.3096"/>
      <point x="175.07" y="-55.3096" type="curve" smooth="yes"/>
      <point x="375.07" y="-55.3096" type="line" smooth="yes"/>
      <point x="383.07" y="-55.3096"/>
      <point x="388.194" y="-62.3096"/>
      <point x="386.051" y="-70.3096" type="curve" smooth="yes"/>
      <point x="379.352" y="-95.3096" type="line" smooth="yes"/>
      <point x="377.208" y="-103.31"/>
      <point x="368.333" y="-110.31"/>
      <point x="360.333" y="-110.31" type="curve" smooth="yes"/>
      <point x="316.333" y="-110.31" type="line" smooth="yes"/>
      <point x="288.333" y="-110.31"/>
      <point x="276.457" y="-117.31"/>
      <point x="270.83" y="-138.31" type="curve" smooth="yes"/>
      <point x="268.418" y="-147.31"/>
      <point x="263.936" y="-160.31"/>
    </contour>
    <contour>
      <point x="313.079" y="627.69" type="curve" smooth="yes"/>
      <point x="308.596" y="614.69"/>
      <point x="304.309" y="598.69"/>
      <point x="305.289" y="583.69" type="curve" smooth="yes"/>
      <point x="310.141" y="519.69"/>
      <point x="332.494" y="483.69"/>
      <point x="374.705" y="439.69" type="curve" smooth="yes"/>
      <point x="451.929" y="354.69" type="line"/>
      <point x="451.929" y="354.69"/>
      <point x="461.054" y="347.69"/>
      <point x="470.001" y="358.69" type="curve" smooth="yes"/>
      <point x="470.001" y="358.69"/>
      <point x="506.059" y="403.69"/>
      <point x="515.273" y="415.69" type="curve" smooth="yes"/>
      <point x="522.953" y="425.69"/>
      <point x="522.9" y="436.69"/>
      <point x="516.509" y="442.69" type="curve" smooth="yes"/>
      <point x="494.207" y="467.69"/>
      <point x="484.227" y="482.69"/>
      <point x="487.408" y="520.69" type="curve" smooth="yes"/>
      <point x="489.839" y="544.69"/>
      <point x="507.218" y="579.69"/>
      <point x="516.433" y="591.69" type="curve" smooth="yes"/>
      <point x="533.596" y="614.69"/>
      <point x="549.812" y="626.69"/>
      <point x="566.223" y="635.69" type="curve" smooth="yes"/>
      <point x="603.313" y="654.69"/>
      <point x="597.295" y="639.69"/>
      <point x="603.988" y="608.69" type="curve" smooth="yes"/>
      <point x="606.041" y="597.69"/>
      <point x="613.896" y="589.69"/>
      <point x="623.021" y="582.69" type="curve" smooth="yes"/>
      <point x="643.002" y="567.69"/>
      <point x="681.839" y="544.69"/>
      <point x="682.317" y="501.69" type="curve" smooth="yes"/>
      <point x="683.116" y="448.69"/>
      <point x="657.273" y="415.69"/>
      <point x="630.628" y="379.69" type="curve" smooth="yes"/>
      <point x="619.341" y="363.69"/>
      <point x="599.857" y="350.69"/>
      <point x="595.805" y="361.69" type="curve" smooth="yes"/>
      <point x="590.092" y="377.69"/>
      <point x="579.575" y="390.69"/>
      <point x="565.255" y="400.69" type="curve" smooth="yes"/>
      <point x="557.595" y="405.69"/>
      <point x="545.059" y="403.69"/>
      <point x="537.379" y="393.69" type="curve" smooth="yes"/>
      <point x="492.374" y="337.69" type="line"/>
      <point x="492.374" y="337.69"/>
      <point x="484.158" y="325.69"/>
      <point x="491.283" y="318.69" type="curve" smooth="yes"/>
      <point x="555.33" y="251.69"/>
      <point x="593.272" y="206.69"/>
      <point x="577.032" y="123.69" type="curve" smooth="yes"/>
      <point x="568.779" y="81.6904"/>
      <point x="539.186" y="34.6904"/>
      <point x="501.486" y="9.69043" type="curve" smooth="yes"/>
      <point x="457.716" y="-19.3096"/>
      <point x="467.434" y="20.6904"/>
      <point x="472.204" y="49.6904" type="curve" smooth="yes"/>
      <point x="481.138" y="101.69"/>
      <point x="394.378" y="184.69"/>
      <point x="327.67" y="256.69" type="curve" smooth="yes"/>
      <point x="301.44" y="285.69"/>
      <point x="269.622" y="323.69"/>
      <point x="253.91" y="339.69" type="curve"/>
      <point x="253.91" y="339.69"/>
      <point x="245.518" y="345.69"/>
      <point x="236.374" y="337.69" type="curve" smooth="yes"/>
      <point x="224.694" y="327.69"/>
      <point x="200.067" y="306.69"/>
      <point x="195.368" y="281.69" type="curve" smooth="yes"/>
      <point x="187.971" y="231.69"/>
      <point x="244.2" y="202.69"/>
      <point x="268.464" y="147.69" type="curve" smooth="yes"/>
      <point x="279.032" y="123.69"/>
      <point x="272.616" y="58.6904"/>
      <point x="224.238" y="23.6904" type="curve" smooth="yes"/>
      <point x="199.415" y="5.69043"/>
      <point x="178.807" y="-0.30957"/>
      <point x="151.807" y="-0.30957" type="curve" smooth="yes"/>
      <point x="62.8066" y="-0.30957" type="line" smooth="yes"/>
      <point x="58.8066" y="-0.30957"/>
      <point x="41.5391" y="-1.30957"/>
      <point x="59.8262" y="14.6904" type="curve" smooth="yes"/>
      <point x="65.166" y="19.6904"/>
      <point x="71.3096" y="27.6904"/>
      <point x="76.917" y="33.6904" type="curve" smooth="yes"/>
      <point x="85.5967" y="43.6904"/>
      <point x="89.0801" y="56.6904"/>
      <point x="84.2949" y="68.6904" type="curve" smooth="yes"/>
      <point x="76.6543" y="88.6904"/>
      <point x="68.4248" y="117.69"/>
      <point x="88.9658" y="175.69" type="curve" smooth="yes"/>
      <point x="117.67" y="256.69"/>
      <point x="139.976" y="287.69"/>
      <point x="219.732" y="357.69" type="curve"/>
      <point x="219.732" y="357.69"/>
      <point x="227.412" y="367.69"/>
      <point x="222.824" y="376.69" type="curve" smooth="yes"/>
      <point x="200.006" y="414.69"/>
      <point x="179.704" y="439.69"/>
      <point x="182.814" y="473.69" type="curve" smooth="yes"/>
      <point x="186.604" y="517.69"/>
      <point x="198.446" y="550.69"/>
      <point x="227.629" y="588.69" type="curve" smooth="yes"/>
      <point x="238.647" y="603.69"/>
      <point x="264.811" y="626.69"/>
      <point x="283.49" y="636.69" type="curve" smooth="yes"/>
      <point x="305.438" y="647.69"/>
      <point x="318.902" y="645.69"/>
    </contour>
  </outline>
</glyph>
